<svg width="27" height="26" viewBox="0 0 27 26" fill="none" xmlns="http://www.w3.org/2000/svg">
<path fill-rule="evenodd" clip-rule="evenodd" d="M18.3134 16.7216L19.2968 15.775C19.5638 15.5181 19.9259 15.3738 20.3034 15.3738C20.6809 15.3738 21.0429 15.5181 21.31 15.775L26.5833 20.853C26.8501 21.1102 27 21.4589 27 21.8225C27 22.1861 26.8501 22.5348 26.5833 22.792L25.6002 23.7384L18.3134 16.7216ZM2.34772 1.34713L3.3305 0.400163C3.59797 0.143874 3.95995 0 4.33728 0C4.7146 0 5.07658 0.143874 5.34405 0.400163L10.6173 5.4782C10.8841 5.73544 11.034 6.08414 11.034 6.4477C11.034 6.81127 10.8841 7.15997 10.6173 7.41721L9.63547 8.36388L2.34772 1.34713ZM0.0104669 4.79903C0.491357 10.1772 3.2015 15.2446 7.18482 19.081C11.1681 22.9174 16.4306 25.5263 22.0165 25.9897C22.3764 26.0223 22.7393 25.9773 23.0788 25.8579C23.4183 25.7385 23.726 25.5478 23.9794 25.2995L25.0035 24.3133L17.717 17.2962L16.7423 18.2348C16.7202 18.2586 16.6905 18.2746 16.6578 18.2801C16.6252 18.2857 16.5915 18.2805 16.5623 18.2655C14.9703 17.5395 13.218 16.2542 11.6703 14.7618C10.1227 13.2695 8.78528 11.5841 8.0314 10.053C8.01633 10.0239 8.01128 9.99089 8.017 9.95882C8.02379 9.9283 8.03975 9.90037 8.0629 9.87851L9.03758 8.93992L1.75103 1.92173L0.726852 2.90798C0.470171 3.15342 0.272262 3.44989 0.146964 3.77666C0.0237206 4.10359 -0.0228921 4.45272 0.0104669 4.79903ZM16.0163 4.78979C15.9045 4.78979 15.7973 4.74702 15.7183 4.67091C15.6392 4.59479 15.5948 4.49155 15.5948 4.3839C15.5948 4.27625 15.6392 4.17302 15.7183 4.0969C15.7973 4.02078 15.9045 3.97802 16.0163 3.97802C16.9164 3.97779 17.8076 4.14833 18.6392 4.4799C19.4707 4.81146 20.2263 5.29755 20.8627 5.9104C21.4991 6.52325 22.0039 7.25084 22.3482 8.05161C22.6925 8.85238 22.8696 9.71063 22.8694 10.5773C22.8694 10.6851 22.8249 10.7885 22.7458 10.8647C22.6666 10.941 22.5592 10.9838 22.4473 10.9838C22.3354 10.9838 22.228 10.941 22.1488 10.8647C22.0697 10.7885 22.0252 10.6851 22.0252 10.5773C22.0254 9.81733 21.8702 9.06474 21.5683 8.36253C21.2664 7.66033 20.8239 7.02227 20.2658 6.48482C19.7078 5.94737 19.0453 5.52104 18.3162 5.23021C17.5871 4.93937 16.8056 4.78971 16.0163 4.78979ZM16.0163 0.812114C15.9065 0.809292 15.8021 0.765276 15.7254 0.689438C15.6487 0.613601 15.6058 0.511934 15.6058 0.406085C15.6058 0.300237 15.6487 0.19857 15.7254 0.122732C15.8021 0.0468947 15.9065 0.00287834 16.0163 5.57205e-05C17.4588 1.77794e-05 18.8871 0.273583 20.2197 0.805131C21.5524 1.33668 22.7632 2.1158 23.7832 3.098C24.8031 4.0802 25.6121 5.24625 26.1641 6.52956C26.716 7.81287 27.0001 9.18831 27 10.5773C27 10.6851 26.9555 10.7885 26.8764 10.8647C26.7972 10.941 26.6899 10.9838 26.5779 10.9838C26.466 10.9838 26.3586 10.941 26.2794 10.8647C26.2003 10.7885 26.1558 10.6851 26.1558 10.5773C26.1558 7.98766 25.0875 5.50406 23.1859 3.67289C21.2844 1.84172 18.7053 0.812981 16.016 0.812981L16.0163 0.812114Z" fill="black"/>
</svg>
