<svg width="27" height="26" viewBox="0 0 27 26" fill="none" xmlns="http://www.w3.org/2000/svg">
<path fill-rule="evenodd" clip-rule="evenodd" d="M15.9742 5.13211C15.8899 5.13388 15.8062 5.11943 15.7278 5.08961C15.6495 5.05979 15.5781 5.01521 15.5179 4.95847C15.4577 4.90173 15.4099 4.83399 15.3772 4.75921C15.3445 4.68442 15.3277 4.60411 15.3277 4.52299C15.3277 4.44186 15.3445 4.36155 15.3772 4.28677C15.4099 4.21199 15.4577 4.14424 15.5179 4.08751C15.5781 4.03077 15.6495 3.98618 15.7278 3.95637C15.8062 3.92655 15.8899 3.9121 15.9742 3.91387C17.8195 3.9157 19.5888 4.62237 20.8938 5.87884C22.1988 7.13531 22.933 8.83898 22.9353 10.6161C22.9353 10.7778 22.8686 10.9328 22.7499 11.0471C22.6312 11.1614 22.4702 11.2256 22.3023 11.2256C22.1344 11.2256 21.9735 11.1614 21.8547 11.0471C21.736 10.9328 21.6694 10.7778 21.6694 10.6161C21.6674 9.16213 21.0667 7.76828 19.999 6.74024C18.9314 5.71219 17.4839 5.13387 15.9742 5.13211ZM26.9995 10.6167C26.9961 7.80179 25.8334 5.10313 23.7665 3.11279C21.6995 1.12245 18.8971 0.00298198 15.9742 0C15.8064 0 15.6456 0.06416 15.527 0.178365C15.4084 0.292571 15.3418 0.447467 15.3418 0.608978C15.3418 0.770489 15.4084 0.925385 15.527 1.03959C15.6456 1.1538 15.8064 1.21796 15.9742 1.21796C18.5616 1.22086 21.0422 2.21203 22.8717 3.97402C24.7013 5.736 25.7304 8.12492 25.7332 10.6167C25.7368 10.7761 25.8051 10.9278 25.9235 11.0393C26.0418 11.1508 26.2008 11.2132 26.3664 11.2132C26.5319 11.2132 26.6909 11.1508 26.8092 11.0393C26.9276 10.9278 26.9959 10.7761 26.9995 10.6167ZM9.92287 6.79467L9.10961 7.57755L3.42071 2.10138L4.23607 1.31733C4.30243 1.25389 4.39215 1.21829 4.48566 1.21829C4.57916 1.21829 4.66888 1.25389 4.73524 1.31733L9.92287 6.31511C9.98902 6.37882 10.0262 6.46523 10.0262 6.55532C10.0262 6.64542 9.98902 6.73182 9.92287 6.79553V6.79467ZM10.9569 15.4483C9.286 13.8392 7.94148 12.0917 7.17292 10.5306C7.0652 10.3149 7.0302 10.0722 7.0728 9.83639C7.1154 9.6006 7.23347 9.38353 7.4105 9.21555L8.21506 8.44075L2.52796 2.96227L1.6736 3.78444C1.5272 3.92029 1.41488 4.08648 1.34518 4.27039C1.27547 4.45431 1.25022 4.6511 1.27133 4.84582C2.17638 14.9644 11.4603 23.9044 21.9666 24.7757C22.169 24.7965 22.3736 24.7724 22.5649 24.7053C22.7561 24.6381 22.9288 24.5297 23.0697 24.3883L23.9237 23.5661L18.2345 18.0894L17.43 18.8644C17.2555 19.0351 17.0298 19.1489 16.7848 19.1897C16.5397 19.2306 16.2874 19.1964 16.0635 19.0921C14.1647 18.1564 12.4393 16.9253 10.9569 15.4483ZM20.443 16.4441L25.6306 21.4419C25.6634 21.4734 25.6894 21.5109 25.7071 21.552C25.7248 21.5932 25.7339 21.6374 25.7339 21.682C25.7339 21.7266 25.7248 21.7707 25.7071 21.8119C25.6894 21.8531 25.6634 21.8905 25.6306 21.922L24.8177 22.7052L19.1297 17.2273L19.9441 16.4441C20.0103 16.3804 20.1 16.3446 20.1936 16.3446C20.2871 16.3446 20.3769 16.3804 20.443 16.4441ZM10.818 5.45191L5.6292 0.456155C5.32551 0.164371 4.91404 0.000505071 4.48506 0.000505071C4.05607 0.000505071 3.6446 0.164371 3.34092 0.456155L0.778451 2.92269C0.502577 3.18489 0.290649 3.50285 0.157991 3.85358C0.0253335 4.20431 -0.0247398 4.57904 0.0113914 4.95069C0.965641 15.6321 10.7673 25.0698 21.8577 25.9899C21.9375 25.9965 22.017 26 22.0977 26C22.4451 26.0007 22.7892 25.9346 23.1097 25.8056C23.4303 25.6766 23.7209 25.4874 23.9645 25.2489L26.5267 22.7821C26.8298 22.4896 27 22.0933 27 21.6801C27 21.2669 26.8298 20.8706 26.5267 20.5781L21.337 15.5804C21.0333 15.2887 20.6219 15.1248 20.193 15.1248C19.7641 15.1248 19.3527 15.2887 19.049 15.5804L16.5663 17.9712C13.4867 16.5513 9.81038 13.0133 8.33535 10.0464L10.818 7.65555C11.1205 7.36284 11.2903 6.96669 11.2903 6.55373C11.2903 6.14078 11.1205 5.74462 10.818 5.45191Z" fill="black"/>
</svg>
