<svg width="155" height="208" viewBox="0 0 155 208" fill="none" xmlns="http://www.w3.org/2000/svg">
<path d="M19.5 22.4631C23.2892 14.2148 30.7037 9.63608 40.7108 5.21139C55.3089 -1.24324 66.8481 -1.55556 82 3.46313C94.5073 7.60586 98.4959 11.3298 107.211 21.2114C114.948 29.9847 123.711 46.2114 123.711 46.2114C123.711 46.2114 131.362 56.3665 134.711 63.7114C140.017 75.3511 136.074 84.2279 141.711 95.7114C144.813 102.031 149.056 104.191 151.711 110.711C156.718 123.009 152.438 131.453 151.711 144.711C150.828 160.817 157.026 170.234 151.711 185.463C148.315 195.192 148.205 198.999 138.5 202.463C128 206.211 111.834 206.4 96 206.211C75.0174 205.961 61.3621 209.933 40.7108 206.211C26.0758 203.574 12.2855 209.361 3.71076 197.211C-2.63046 188.226 1.18341 180.199 0.710759 169.211C-0.0797134 150.836 0.495188 140.32 3.71076 122.211C5.57374 111.72 8.40466 106.213 10.2108 95.7114C13.1279 78.7496 10.669 68.8006 12.7108 51.7114C14.1427 39.7266 15.7108 30.7114 19.5 22.4631Z" fill="#FEFEFE"/>
<path d="M138.41 192.363C137.14 192.583 136.23 192.683 135.71 191.333C138.85 172.573 140.41 153.703 140.39 134.733C140.11 126.083 136.73 120.213 130.26 117.123C133.42 123.193 133.35 128.833 129.34 134.453C137.97 134.483 127.94 145.123 124.08 140.563C123.41 140.273 120.29 140.183 121.31 140.963C122.39 141.213 123 142.043 123.15 143.453C128.71 143.323 129.08 145.673 124.25 150.513C128.03 162.263 128.59 175.743 125.21 187.793L123.57 188.403C122.37 192.893 120.85 193.843 119.03 191.243C121.22 179.433 123.28 167.263 120 155.543C117.19 157.143 110.94 159.963 107.74 159.913C101.85 159.823 104.79 155.953 107.74 153.673C105.73 155.163 103.66 155.993 101.18 156.163C98.76 161.923 96.04 157.683 95.24 153.533C96.02 152.903 96.57 152.153 96.9 151.263C99.58 150.773 101.54 148.433 102.23 145.823C94.65 149.103 87.2 152.633 79.87 156.413C77.73 156.643 60.92 150.643 58.04 149.413C54.89 148.073 49.59 145.513 47.41 142.893L47.7 141.173C44.98 137.523 48.33 135.363 49.35 140.403L50.73 139.563C59.31 144.813 68.76 148.643 79.09 151.063L97.21 142.653L98.63 143.673C99.82 143.003 101.06 142.383 102.36 141.803C102.56 141.133 102.7 141.223 102.79 141.973C103.69 141.223 104.24 140.543 102.94 139.753C101.78 139.053 101.61 139.113 100.52 139.613C98.26 140.643 97.44 140.203 95.17 138.573C90 134.863 88.32 129.203 89.53 123.173C89.98 122.283 90.08 121.433 89.85 120.613C87.53 120.653 87.01 119.813 88.27 118.093C81.64 112.293 84.4 103.833 87.53 97.0233L87.38 93.6333C81.65 100.823 74.73 105.683 64.98 103.373C66.41 110.123 58.94 112.413 53.6 113.753L52.21 112.683C50.65 113.753 49.17 111.373 51.32 110.363C50.32 109.343 50.81 108.493 52.78 107.813C49.73 103.243 49.5 100.033 52.1 98.1633C47.5 95.1633 43.39 91.8033 40.63 87.2433L39.02 86.6733C35.77 77.9133 35.88 83.7133 39.2 88.4333C38.92 95.3733 40.41 101.693 43.67 107.393L42.74 108.923C43.88 109.383 45.12 109.553 46.48 109.423C48.21 107.673 48.59 109.573 47.06 111.143L47.01 111.863L42.25 111.183L41.43 112.673C24.82 110.703 21.04 120.283 19.84 134.643C20.08 153.373 21.21 172.083 23.22 190.763C23 192.203 22.87 192.993 21.14 192.923L19.56 192.853L19.2 191.933L18.09 176.503L17.58 170.433L17.13 165.063L16.64 159.193L16 150.913L16.24 130.783L16.98 126.393L18.35 121.533C19.3 118.183 21.37 114.623 24.17 112.583L27.4 110.223L26.1 108.363C25.04 106.863 23.54 103.613 23.72 101.583L24.91 88.6433L25.54 83.3733L26.36 73.5833L26 63.9733L25.71 49.6533L26.53 40.6633C26.82 37.4633 27.72 34.0633 29.11 31.2433L32.12 25.1633L33.97 22.5233C34.54 21.7133 36.09 20.1033 36.95 19.5333L41.81 16.3233C42.95 15.5633 45.79 15.1433 47.11 14.8033C47.7 14.6533 49.03 13.8833 49.7 13.5433L53.57 11.6033L60.36 10.0933C65.64 8.91332 71.73 9.34332 76.5 11.7833L84.48 15.8633L87.45 18.0533L93.4 24.0833L96.15 27.4434L98.47 30.8833L101.45 36.2833L105.16 43.8733L108.9 52.1833L112.38 59.1733L114.31 62.4133L118 67.7833L120.25 70.8433L122.61 74.4133L124.81 79.6633C126.83 84.5033 125.27 89.4933 123.46 94.1133C122.44 96.7233 124.08 102.523 127.18 105.953C129.77 108.813 132.92 107.223 133.33 109.163C131.85 110.433 129.87 111.553 127.96 112.423C130.33 113.213 133.88 114.003 135.4 115.503L139.26 119.293C139.84 119.853 141.1 121.663 141.36 122.543L143.76 130.543L144.31 134.383L144.09 153.933L143.54 159.933L141.77 174.833L141.23 178.643L140.34 184.753L139.45 190.903C139.4 191.213 138.66 192.203 138.4 192.393L138.41 192.363Z" fill="#070606"/>
<path d="M47.7 141.163L49.7 142.873L53.06 145.393L58.59 148.013L61.51 149.003L69.32 151.653L72.72 152.863L74.86 153.643L78.57 154.983C79.33 155.253 81.24 154.323 82 153.913L85.39 152.073L88.85 150.193L93.78 147.803L99.14 145.503L102.65 143.993L104.36 143.423L103.78 145.893C103.05 149.003 100.35 152.553 96.57 152.763C96.32 151.903 96.81 153.593 96.92 153.983L97.95 156.903C98.06 157.213 98.84 158.063 98.95 157.753L99.52 156.143C100.39 153.653 102.42 155.233 104.99 153.623L108.2 151.613L110.36 150.253C109.88 149.723 111.07 151.033 111.24 151.203C110.69 152.143 109.45 154.113 108.67 154.863L105.36 158.023C105.02 158.163 106.92 158.573 107.48 158.433L109.82 157.853L114.79 156.563C116.4 156.143 118.28 154.683 120.05 153.273L121.48 154.993C121.83 155.413 122.06 156.923 122.11 157.473L122.38 160.853L123.22 164.573L123.08 174.763L122.41 180.073L121.66 184.533L121.02 188.373L120.4 192.063C120.05 192.123 121.65 191.853 121.87 191.813L122.63 189.083L123.55 188.393C125.9 188.413 124.82 193.283 122.63 193.013L107.52 192.933L58.1 192.963H53.57L38.82 192.913C38.24 192.543 38.31 192.303 39.01 192.193C38.96 190.083 40.24 190.263 41.44 191.733L45.47 192.133L46.3 190.633H56.6C71.41 182.723 87.13 180.723 102.78 187.983C110.67 190.843 106.3 187.323 102.61 185.003C95.32 180.433 85.96 179.423 77.48 178.873L54.79 178.473C35.6 176.133 35.57 159.993 42.64 145.793C40.5 145.183 43.33 139.783 45.05 140.273C46.4 137.793 47.28 138.083 47.69 141.163H47.7Z" fill="#2B2B2B"/>
<path d="M42.25 111.183L46.88 111.793C48.53 112.643 48.78 113.383 47.63 114.033C47.96 114.803 47.93 115.353 47.54 115.673C47.33 117.203 47.06 118.693 46.72 120.143C47.35 120.413 47.32 120.663 46.65 120.893C46.75 125.923 45.97 133.843 44.36 138.813C43.65 140.993 42.07 145.283 39.75 145.413C35.91 155.893 33.9 166.233 36.16 177.473L34.81 178.563L37.43 191.873L36.11 192.973H25.06L21.8 193.273L21.15 192.913L21.75 190.663L21.26 183.933L20.81 178.623L20.19 171.633L18.81 156.133L18.47 152.293L18.36 134.523L19.17 129.143L20.58 122.383C21.05 120.123 22.88 117.423 24.15 115.673L26.83 113.523L30.51 111.883C31.76 111.323 34.74 111.123 36.2 111.133L42.25 111.183Z" fill="#FBB56D"/>
<path d="M138.41 192.363C138.04 192.643 136.69 193.183 136.24 193.173L133.03 193.133L125.67 193.053L122.65 193.023L123.1 191.063L123.57 188.403L124.23 184.793L125.06 180.263L125.77 175.663L125.93 165.173L125.01 159.623L122.79 150.983C122.69 150.593 122.86 149.273 123.11 149.033L126.88 145.333L122.55 144.913C121.52 144.813 121.07 141.723 121.31 140.973C121.3 140.163 123.43 139.943 124.08 140.573L127.07 140.123C130.22 139.643 132.81 135.043 130.94 135.613L127.46 136.673L126.47 135.723L128.6 132.963L130.54 128.853C131.25 127.363 131.26 123.483 130.6 121.983L128.06 116.283L127.28 114.763L130.33 115.593C134.3 116.673 138.54 120.873 139.33 123.723L141.26 130.693L141.88 134.633L141.9 149.423L141.14 159.973L140.39 166.633L139.73 171.953L138.96 177.903L138.15 183.833L137.52 188.463L137.13 191.303C137.08 191.663 138.17 192.063 138.41 192.383V192.363Z" fill="#FBB56D"/>
<path d="M39.0201 192.204L38.83 192.924L37.59 192.954C37.43 193.464 37.19 193.454 36.88 192.974H36.1L35.61 189.254L35.26 183.964L35.04 181.694L34.79 178.584C35.67 178.044 36.45 177.934 36.56 178.934C36.9 179.494 40.24 191.004 39.84 191.524C39.63 191.804 39.33 192.024 39.01 192.214L39.0201 192.204Z" fill="#D08A55"/>
<path d="M19.5601 192.853C19.3401 192.843 19.2201 192.193 19.2001 191.933L19.5601 192.853Z" fill="#FBB56D"/>
<path d="M36.88 192.963L37.6 192.943L37.39 193.763L36.88 192.963Z" fill="#FBB56D"/>
<path d="M107.86 127.583C107.6 127.823 107.33 128.033 107.03 128.153C105.7 128.663 96.73 116.913 97.86 114.263L98.36 99.9333C96.7 101.213 95.29 102.743 94.15 104.533L92.39 104.383L91.19 106.143L89.44 108.903C89.26 109.193 88.48 109.483 88.26 109.523C88.19 108.683 88.02 106.763 88.22 106.073L89.25 102.543L90.66 99.6033L93.44 93.8232C94.62 91.3632 95.52 87.5933 95.31 85.8033L94.81 81.5433H96.82L97.98 84.6733L100 92.6733L100.96 92.8232L100.56 85.2233L99.72 80.3433L98.22 74.8533L96.51 69.0633L95.12 64.5232L93.68 59.8332C93.36 58.7932 92.38 56.7033 91.8 55.8733L89.51 52.6432L87.57 49.9033L85.92 50.2333C85.65 50.4333 84.74 50.9932 84.52 50.8932L80.88 49.1933L78.24 47.5732L74.55 45.1033L70.34 42.0033L64.79 36.2933L61.89 32.9833C61.97 33.7033 62.11 34.7432 62.27 35.0132L64.52 38.7533L66.46 41.2132L69.89 44.6533L74.55 49.3332C74.4 49.6132 72.66 50.4833 72.28 50.2933L68.54 48.3033L63.75 45.5333L61.05 43.6332C60.82 43.4732 60.53 42.5332 60.35 42.0232C60.2 41.6332 59.43 40.6533 59.13 40.4733C58.52 40.4333 57.21 40.3732 57.08 40.0832L55.61 36.9933L53.09 32.4632L51.7 29.0933L50.69 26.6633C50.78 26.6433 49.58 27.0233 49.3 27.1133L49.57 36.9833C49.59 37.8633 50.08 40.0133 50.38 40.7933L51.43 43.5633L54.12 49.0333C54.4 49.6133 55.49 50.6433 55.91 51.0533L57.3 53.8232L56.64 54.6833L54.29 54.3133C52.94 52.7733 51.37 51.7432 49.59 51.2132L46.13 47.3932C45.25 46.4232 43.84 42.1732 43.83 40.5732L43.76 28.6033C43.51 28.4233 42.84 27.9532 43.38 28.3332L41.74 34.0033L39.71 36.6033L37.38 40.9833C37.07 41.5733 36.41 43.0432 36.3 43.6332L35.72 46.8133L35.54 57.9833L34.96 71.9333C34.94 72.4633 34.37 73.8232 34.15 74.3232L33.66 70.5732L33.09 66.2933L32.19 59.4833L31.64 55.7132L32.34 45.1432L33.07 41.3133L33.83 37.7533L33.43 36.5533L32.3 38.9733L31.3 41.7132C30.11 45.0032 29.59 49.1033 30.03 52.6633L30.96 60.1733L31.78 64.7933L32.6 72.1733L32.84 77.8733L33.57 85.2533L34.32 92.6233L34.7 96.3232C34.81 97.3632 35.78 99.6233 36.42 100.683L40.82 107.983C40.97 108.233 39.57 108.903 39.26 108.853L36.18 108.363L33.18 103.343L32.05 100.413L31.25 96.2433V86.3832C30.98 86.2632 30.01 85.8533 30.5 86.0633L28.81 89.3232L26.71 93.4933C27.74 94.1833 26.72 93.4932 26.37 93.2632L27.87 81.2032L28.37 76.2132L28.47 64.8433L28.08 60.2933L28.03 47.3533L28.46 42.8633L29.25 37.4733L30.44 33.5132L31.75 29.9733L33.75 26.1833L36.4 22.9733L39.7 19.9532C40.47 19.2432 42.41 18.0533 43.36 17.7533L46.83 16.6633L50.06 15.5232L53.69 13.9433C54.38 13.6433 56.3 12.6833 57 12.6133L66 11.7333C67.14 11.6233 68.99 11.9233 70.09 12.1233L72.99 12.6633L74.71 13.5033L80.24 15.6933C81.39 16.1433 83.77 17.6532 84.68 18.4632L89.95 23.1833C91.77 24.8133 93.44 27.2933 94.85 29.3733L97.04 32.6233L99.01 35.8533L100.63 39.4233L102.77 44.1133L104.3 47.6133L105.65 50.8133L108.12 56.6432L109.51 59.6033L111.68 62.9033C111.99 63.3733 112.55 64.8632 112.54 65.4632C112.52 68.1532 113.88 70.5932 114.97 72.8832L116.72 76.5732L119.26 84.3033L120.03 88.7233L120.74 93.3633L121.44 97.8832C121.6 98.8932 121.74 101.053 122.12 101.863L123.58 104.923C123.94 105.683 125.4 107.233 126.07 107.653L129.28 109.663C129.78 110.063 130.46 110.623 129.53 109.863L127.19 110.293C126.26 110.463 123.98 110.523 123.44 109.743L121.81 107.403L120.48 104.833L117.75 98.8932C117.64 98.6432 116.51 97.7433 116.45 97.7833C116.56 99.1033 116.96 101.593 117.37 102.773L118.55 106.113C118.89 107.073 119.73 108.843 120.36 109.613L122.42 112.123L124.44 114.663C128.28 119.493 130.91 125.243 128.13 130.063L127.33 131.433C127.17 131.713 125.84 131.073 125.91 130.773L126.81 126.883C126.9 126.483 126.56 125.063 126.35 124.703L124.44 121.413C124.24 121.063 123.33 120.023 123 119.773L120.43 117.803L117.78 116.073L113.43 114.233C111.98 113.623 109.92 109.853 109.9 108.673L109.64 97.6133C108.68 98.9233 107.62 101.623 107.57 103.013L107.32 109.863C107.27 111.363 108.61 114.763 109.65 115.823L114.8 121.083C117.35 123.693 117.22 128.093 115.78 132.083C113.53 138.313 114.22 143.493 119.2 147.633C119.63 149.633 118.59 152.173 116.71 153.213L113.35 155.073C113.11 155.203 111.91 154.893 112.1 154.853C112.73 153.343 113.95 150.273 113.63 148.773L112.31 142.483L111.42 138.923L110.71 133.583L108.8 128.813C108.7 128.553 108.05 127.863 107.86 127.643V127.583Z" fill="#292929"/>
<path d="M65.2467 53.479L66.2667 53.929C67.1167 54.309 67.9367 51.719 70.7267 52.429L76.2967 53.849L81.0967 53.789L86.7067 55.059C86.9767 55.119 87.7567 56.139 87.9167 56.409L90.7167 60.939C92.0767 63.139 93.1467 67.999 92.8667 70.409L92.2067 76.009C91.8567 78.989 90.2367 82.329 88.6267 84.909L87.1667 87.259L84.4367 90.629L79.6267 95.509L76.5167 97.749L73.0267 99.509C72.0967 99.979 69.2667 100.379 68.2667 100.109L60.4167 97.989L56.0067 95.879L52.9067 94.179L50.3267 92.3889C48.0267 90.7889 45.9067 88.639 44.4167 86.309L43.2567 84.499C42.4567 83.229 42.3567 82.319 42.9467 81.789C55.7467 83.309 51.8467 70.499 42.3367 79.299C40.8967 79.839 38.7367 75.149 38.3467 73.549C37.9167 69.449 37.8867 65.4689 38.2567 61.5889C39.9767 57.9489 43.6067 56.139 49.1467 56.169C51.1367 56.999 60.3567 55.279 60.3567 54.559C60.3567 54.219 60.2467 53.8689 60.0967 53.5289L58.6667 51.729L55.4067 47.629L53.9667 44.559C53.9167 44.409 53.9667 44.0689 53.9867 43.8889C53.4067 41.8189 53.5967 41.0789 54.5667 41.6489C57.1367 45.5889 60.5967 48.679 64.9367 50.919L65.2367 53.479H65.2467Z" fill="#FBB26A"/>
<path d="M58.33 118.513L58.58 117.903C61.95 118.583 65.2601 119.133 68.5201 119.553C67.1501 114.583 73.86 118.053 76.11 119.743C76.33 123.183 77.67 124.553 80.14 123.853C82.44 120.263 91.08 117.013 89.51 123.163C87.88 130.623 91.54 138.493 99.36 140.443C101.57 136.983 104.88 139.293 102.78 141.963C102.68 141.913 102.45 141.773 102.35 141.793C101.01 142.283 99.77 142.913 98.62 143.663L97.19 144.273L93.58 145.883L90.01 147.563L83.95 150.413L79.5 152.763L76.0901 151.643L68.13 149.033L63.06 147.423L59.04 146.173L54.5 143.923L51.84 142.253L49.36 140.383C47.85 137.843 46.58 132.173 49.89 130.763L49.83 129.883C50.3 126.383 50.83 122.913 51.4 119.453C50.74 119.373 50.76 119.173 51.4 118.873L52.05 117.213C53.3 114.563 57.57 116.423 58.33 118.503V118.513Z" fill="#FCB56F"/>
<path d="M89.51 123.163L89.67 120.663L86.42 121.433L84.1001 121.983L81.07 125.333L77.62 125.403C77.07 125.413 75.65 124.193 75.57 123.663L75.1001 120.673L70.19 118.303C69.82 118.123 68.73 119.193 68.52 119.553C65.3 119.143 62.03 118.603 58.7 117.923L58.32 118.513L54.59 117.573L52.04 117.223C51.48 116.473 51.45 115.443 51.97 114.123C50.56 113.833 50.68 112.673 52.19 112.693L55.88 111.263L58.2 110.503L61.88 109.023C62.23 108.883 63.32 107.683 63.33 107.273L63.48 101.653L65.1601 101.893C70.0701 102.603 75.47 102.673 78.82 99.7833L82.08 96.9633L84.58 94.7632L87.23 91.3633C87.59 91.3133 88.95 91.0833 88.74 91.1133L89.04 96.1633C89.27 100.023 84.9201 102.363 85.8501 111.163C86.4201 116.513 92.66 118.483 90.31 119.173L88.1001 119.823C87.8401 119.763 88.99 119.993 89.82 120.163L90.4601 121.573L89.51 123.173V123.163Z" fill="#DB8F55"/>
<path d="M107.86 127.583C105.19 129.973 108.86 130.443 109.09 134.243L109.38 138.963L109.72 142.093C110.02 144.813 109.5 146.993 107.34 149.153L104.7 151.793C104.46 151.733 102.9 151.363 103.23 151.443L104.5 149.203C104.88 148.543 105.54 146.473 105.51 145.653L105.26 138.993C105.19 137.133 103.65 133.753 101.63 132.123L99.73 130.583C99.73 130.053 99.87 128.523 99.69 128.003L98.89 125.823C98.04 123.513 94.6001 126.163 95.7101 134.853L95.1601 134.913L93.55 132.663C93.3 132.303 92.5801 131.053 92.5201 130.653L91.98 126.643C91.74 124.883 92.4101 121.903 92.7801 119.903L93.86 114.063C94.02 113.213 95.75 111.083 95.43 110.293L93.2201 104.823C93.1901 104.743 92.8501 104.603 92.4001 104.383L94.7 101.323L97.9601 97.8934C98.2301 97.6034 99.9901 98.2435 99.9601 98.6835L99.57 104.503L99.37 114.223C99.34 115.773 100.64 118.873 101.6 120.073L104.59 123.813L106.38 125.873L107.87 127.583H107.86Z" fill="#141414"/>
<path d="M52.19 112.683L51.97 114.113L51.39 118.873V119.453C50.8 122.863 50.27 126.343 49.82 129.883L49.88 130.763H48.11C48.06 128.333 47.99 125.893 47.91 123.433C47.22 123.433 46.8 122.573 46.65 120.883L46.72 120.133C47.14 118.713 47.41 117.223 47.54 115.663L47.63 114.023C48.88 114.933 49.09 114.243 48.28 111.953C49.44 110.333 49.13 110.243 47.35 111.673C46.6 111.923 46.52 111.733 47.06 111.123C47.04 110.873 47.14 109.763 46.89 109.753L43.65 109.703C43.46 109.633 42.84 109.103 42.74 108.903C42.59 107.633 43.56 107.133 45.65 107.393C43.28 104.003 41.45 100.383 40.16 96.5134C39.56 94.1634 38.41 88.3034 40.62 87.2334C41.27 87.1134 42.89 87.7934 43.33 88.3234L45.74 91.2334C46.13 91.7034 47.05 92.9734 47.52 93.2534L50.93 95.2934L54.96 98.5334C57.16 100.303 60.45 99.3034 60.54 102.103L60.7 106.743L58.55 107.963L57.27 108.643C57.06 108.753 56.33 107.803 56.24 107.563L54.24 102.193C53.99 101.513 53.04 99.9834 52.49 99.3534C52 98.8034 51.21 101.203 51.56 101.853L53.19 104.893L54.2 107.363C54.32 107.643 54.32 108.893 54.04 108.993L52.51 109.573C52.14 109.713 51.52 110.493 50.95 111.293L52.2 112.673L52.19 112.683Z" fill="#131313"/>
<path d="M40.6199 87.2435L41.0899 93.2735C41.2399 95.2735 42.1999 98.6935 43.2199 100.424L45.7599 104.714L47.58 107.724L47.08 109.083L42.7199 108.914L40.14 103.604C39.68 102.644 38.4999 100.234 38.4399 99.0635L37.9699 90.0735C37.8299 87.3635 35.4299 86.3735 35.1599 83.2635L34.8099 79.3635L37.11 80.4635C38.81 81.2735 40.4599 85.4435 40.5999 87.2535L40.6199 87.2435Z" fill="#2B2B2B"/>
<path d="M43.55 84.4935L41.38 80.7034L39.72 77.0134C39.44 76.4034 37.89 75.2634 37.37 74.7834L37.51 71.8934L37.79 61.6735C37.94 60.9935 38.2 60.9834 38.56 61.5834L39.04 66.3735L39.41 71.4935C39.45 72.0635 40.08 73.5534 40.23 74.1434L40.87 76.6634C40.95 76.9834 40.92 78.4435 41.22 78.3035L42.59 77.6735L44.78 76.0535C45.35 75.6335 46.93 74.7035 47.76 74.4235C48.98 74.0135 51.98 75.6734 52.57 76.8334C53.99 79.6034 51.03 82.8634 48.72 83.0434L44.36 83.3735L43.09 82.6634L43.55 84.4834V84.4935Z" fill="#F88F61"/>
<path d="M124.07 140.564L121.3 140.964L120.14 141.654L120.3 145.624C119.85 145.374 119.08 144.964 118.92 144.744L117.39 142.484C116.85 141.684 116.26 139.083 116.53 138.083L118.41 131.214L119.22 128.614C119.67 127.174 119.58 123.984 118.83 122.744L116.02 118.083L117.13 117.344L120.2 120.474C121.61 121.904 122.32 126.754 121.5 128.984L119.51 134.424C118.9 136.094 119.19 138.944 120.36 140.184L123.87 139.614L124.08 140.573L124.07 140.564Z" fill="#212122"/>
<path d="M56.64 54.6534L55.32 52.3234L55.92 51.0234L58.18 53.2434C58.47 53.5234 59.39 54.1134 59.68 53.9434L60.4001 53.5234C60.5401 53.5134 61.75 53.6734 62.08 53.8734L65.01 55.6434C65.19 55.5834 63.86 56.0434 63.51 56.1934L56.43 56.8834L52.15 57.3734L48.28 57.7934L42.6 58.1534C41.54 58.2234 40.13 61.0934 38.55 61.5734L37.78 61.6634V60.1634C38.33 59.1334 39.38 58.1634 40.93 57.2734C38.98 53.5134 46.9701 53.9634 49.0201 54.9434C49.1901 55.0234 45.31 55.3134 46.56 53.4334C45.06 52.2434 44.67 51.2634 45.38 50.4934L46.03 51.1634L48.94 54.2334C49.13 54.4334 49.76 55.2334 50.03 55.2234L52.7 55.1334L56.08 55.6434L56.64 54.6434V54.6534Z" fill="#231A14"/>
<path d="M102.78 141.963L103.53 140.473L101.55 139.673L99.87 140.953C99.52 141.223 96.02 141.043 93.9 139.033L90.93 136.213L89.52 131.523C89.37 131.033 88.85 129.623 88.84 129.163L88.77 124.633C88.77 124.273 89.48 123.093 89.51 123.163L89.65 129.073C89.65 131.243 92.47 135.473 94.6 136.833L99.39 139.893C99.58 139.833 100.28 138.473 100.16 138.183L98.49 134.413L97.39 130.543L98.08 130.253L99.7 133.093L102.03 136.353C102.71 137.313 103.66 139.753 104.17 141.183L102.79 141.973L102.78 141.963Z" fill="#D8995D"/>
<path d="M34.1101 107.923C34.1901 107.843 33.0601 108.893 32.7101 109.223C31.4401 109.223 28.97 108.543 28.59 107.663C27.53 105.213 27.0601 101.773 27.4501 99.2534L28.28 93.9634C28.25 93.5934 28.9401 95.1334 29.0201 95.5334L30.03 100.863L32.06 104.813L34.12 107.933L34.1101 107.923Z" fill="#EBEBEB"/>
<path d="M49.88 130.773L49.36 135.343L49.34 140.393L48.43 139.683L47.77 137.833L47.7 141.173L46.34 139.963L45.06 140.283C44.72 140.163 44.41 140.013 44.18 139.783C43.61 139.193 46.62 125.363 47.02 123.633C47.05 123.503 47.43 123.463 47.9 123.443C48.12 123.583 49.02 124.813 49.02 125.363L49.06 129.253C49.06 129.613 49.72 130.543 49.87 130.783L49.88 130.773Z" fill="#1F1C19"/>
<path d="M65.53 53.4733C65.33 53.3833 64.97 52.8934 64.92 52.6834L64.41 50.6934L59.95 48.6134C59.53 48.4134 58.1 47.8433 57.87 47.4633L55.46 43.4134L54.58 41.9334L54.29 43.8734C54.23 43.8034 53.63 42.6434 53.52 42.2434L52.63 39.0733C53.18 38.7133 53.91 38.2334 53.03 38.8134L55.92 42.2233C57.06 43.5633 58.9 45.4834 60.33 46.5034L64.86 49.7434L65.98 50.5434L65.53 53.4533V53.4733Z" fill="#C2804E"/>
<path d="M117.1 73.6533C116.29 72.0733 117.06 71.7134 118.27 73.0434L119.72 75.0833L122.21 80.0133C122.94 81.4633 122.62 84.0734 122.78 86.7434L121.73 86.6834L119.17 78.5833L117.91 75.3533L117.11 73.6433L117.1 73.6533Z" fill="#D8D8D8"/>
<path d="M41.56 40.7932C41.71 42.0132 42.07 44.2832 42.57 45.5132L43.93 48.8432C44.13 49.3332 45.03 50.1432 45.38 50.5032L45.74 52.0832L46.56 53.4432L45.97 54.2532C43.92 53.4732 42.1 51.7332 40.51 49.0332C40.14 49.0832 40.23 56.0232 40.27 56.3932C40.31 56.7132 40.58 57.0032 40.92 57.2832L39.43 58.7832L37.77 60.1732L37.79 48.7332C37.79 46.2732 38.87 42.8132 39.91 40.7232C40.78 39.6432 41.38 39.2832 41.54 40.7932H41.56Z" fill="#D58851"/>
<path d="M92.01 115.654C91.13 115.484 90.28 115.313 90.37 115.333L89.51 112.494L91.63 108.573L92.01 115.654Z" fill="#C48B56"/>
<path d="M124.03 130.873L122.64 132.373L122.97 129.643L123.43 125.843L124.75 124.463L124.72 127.533L124.03 130.873Z" fill="#885D35"/>
<path d="M54.29 54.2933C53.78 54.1733 52.76 53.6633 52.29 53.2933L50.54 51.9434L49.59 51.1934H52.08C52.37 51.1934 52.82 52.2833 53 52.5233L54.29 54.2933Z" fill="#231A14"/>
<path d="M102.35 141.793C102.6 141.943 101.8 142.693 101.6 142.753L98.63 143.663C98.35 143.613 99.04 142.563 99.29 142.503L102.36 141.793H102.35Z" fill="#D8995D"/>
<path d="M118.27 73.0433L117.1 73.6533L115.61 71.5133C115.02 70.1933 115.54 69.9033 116.68 70.7933L118.27 73.0333V73.0433Z" fill="#A3A3A3"/>
<path d="M116.68 70.7933L115.61 71.5132L114.39 69.7733L115.66 69.3533L116.68 70.7933Z" fill="#424242"/>
<path d="M47.05 111.143C47.06 111.373 47.14 111.633 47.34 111.693C48.22 110.673 48.4 110.603 48.27 111.973L49.25 112.473C49.79 112.743 50.79 114.263 50.69 114.903L50.09 118.723L49.53 122.293C49.53 122.293 48.45 121.593 48.44 121.353L48.27 115.673C48.26 115.253 47.79 114.393 47.62 114.033C47.41 113.573 47.14 112.373 46.65 112.283L43.18 111.703L42.24 111.173L47.05 111.133V111.143Z" fill="#1F1C19"/>
<path d="M41.5601 40.7935L39.9301 40.7235L41.2301 38.1135L41.5601 40.7935Z" fill="#644B3E"/>
<path d="M55.71 47.6134C55.16 46.9134 54.51 45.3834 54.27 44.5434C54.4 44.3034 55.05 44.9834 55.12 45.1734L55.72 47.6234L55.71 47.6134Z" fill="#C2804E"/>
<path d="M45.4801 192.143L40.44 191.713C35.82 180.683 33.4401 166.843 36.7001 155.023C37.1701 153.313 39.79 144.873 41.69 145.063C42.03 145.093 42.35 145.413 42.65 145.813L41.84 149.813L40.5501 153.133L39.91 159.203C39.44 163.703 40.0301 167.113 42.5701 170.963C43.3801 172.193 45.7901 174.613 47.1401 175.163C49.4401 176.093 53.35 176.993 55.65 177.043L62.56 177.203L77.56 177.393L85.0801 177.983L88.11 178.413L94.92 180.033L100.1 181.783C101.01 182.093 102.89 183.333 103.65 183.913L107.22 186.643L110.31 189.373L111.46 190.983C107.74 190.963 103.77 189.953 100.43 188.823L91.8401 185.943L86.7001 185.113L81.9701 184.633C80.9501 184.533 78.5 184.883 77.44 185.143L73.11 186.183L66.5801 187.953L64.0901 188.903L61.3401 190.003L58.9701 190.943C58.6101 191.083 57.5601 191.863 57.1601 192.153H45.4801V192.143Z" fill="#121212"/>
<path d="M47.91 123.443L47.08 126.283L46.31 133.703L45.91 137.393C45.83 138.133 45.33 139.633 45.06 140.283L44.15 141.953L43.18 144.393L42.65 145.803C42.41 145.523 41.9 146.223 41.76 146.423L40.4 149.013L39.11 151.453C38.59 152.443 37.96 154.793 37.76 156.023L36.65 162.863L36.3 166.613L36.62 171.693L37.82 178.723L38.61 183.243C38.73 183.963 39.59 185.523 39.84 186.463L41.13 191.293L43.93 191.433C44.27 191.453 45.21 191.993 45.48 192.153L39.02 192.213L38.33 190.113L37.23 186.743L36.11 182.593L35.36 179.463L34.79 178.583L34.3 173.353L34.03 162.873C33.95 159.803 34.93 156.363 35.9 153.493L37.8 147.903C38.42 146.083 37.55 143.063 37.15 141.253L36.23 136.993L37.17 137.033C37.4 137.043 37.96 137.883 38.02 138.103L38.95 141.383L39.82 144.463L41.13 143.003L42.97 139.503L44.78 132.383L45.46 128.503L46.18 123.923L46.64 120.903L47.51 121.643L47.91 123.453V123.443Z" fill="#0C0605"/>
<path d="M46.72 120.153L46.87 116.473C46.96 116.303 47.47 115.453 47.55 115.673L47.62 119.383C47.49 119.553 46.85 120.383 46.73 120.153H46.72Z" fill="#1F1C19"/>
<path d="M110.42 68.1132L112.6 71.9832L112.12 72.8132L109.42 69.4032C107.92 67.5132 106 64.8732 105.24 62.4932L102.09 52.7232L101.59 48.0232C101.95 48.5532 102.37 49.1832 102.47 49.4932L103.38 52.4132L104.64 56.1832L107.24 62.0432L108.7 64.9932L110.42 68.1232V68.1132Z" fill="#080808"/>
<path d="M108.41 97.0134L107.95 92.8334L106.55 87.3934L105.22 83.6534L103.34 79.2834L104.08 78.0535L105.01 79.1635L107.77 84.0734C108.49 86.2034 109.49 89.3334 109.66 91.5134L109.98 95.5934L108.42 97.0234L108.41 97.0134Z" fill="#070606"/>
<path d="M84.24 73.5633L78.11 73.3033L76.54 71.4633C75.85 70.6533 76.44 68.2833 77.06 67.4333L78.71 65.1633L81.55 63.3333L86.67 65.1033C87.74 65.4733 87.77 69.4933 87.02 70.3433L84.23 73.5533L84.24 73.5633Z" fill="#FA9865"/>
<path d="M69.5 62.4631L68 60.9631L71.5 56.4631L76 55.4631L77 55.9631L77.5 57.9631L77 58.9631L76 60.9631C75.1667 61.4631 74.4 61.4631 74 61.4631C73.6 61.4631 74.5 62.4631 74 62.4631H69.5Z" fill="#EAE6DC"/>
<path d="M76.1524 60.9631C75.8274 61.6492 74.7899 62.4735 73.5399 62.463C71.6899 62.4524 70.4699 60.8482 70.0399 58.7691L68 60.9749L69.1 57.1649C69.35 56.2995 70.5392 55.1108 71.92 54.4631C73.801 53.5806 77.24 54.5265 77.24 54.5265C77.27 55.2019 77.58 55.7283 77.29 55.8457C77 55.9631 74.3703 55.8457 74.3703 55.8457C74.3703 55.8457 76.039 57.5404 76.2291 58.7691C76.3045 59.2567 76.4774 60.2771 76.1524 60.9631Z" fill="#211812"/>
<path d="M47.5 68.4631L46.59 70.0135C46.78 67.6535 46.32 66.8035 45.22 67.4735L44.0801 69.9035C42.4601 68.2035 44.5 63.9335 46.73 63.1335C48.83 62.3835 50.97 62.8935 52.45 64.4135C53.08 65.0535 53.7 67.0335 53.65 67.9235C53.6 68.8135 52.26 70.6835 51.34 70.6635C51.34 70.6635 49.2965 71.1349 48.3537 70.6635C47.3537 70.1635 47.5 68.4631 47.5 68.4631Z" fill="#190E09"/>
<path d="M59.67 85.6334L60.11 84.3334C61.17 84.5034 62.6801 84.8534 63.2601 84.7634L67.9101 84.0234C69.5401 83.7634 72.7101 81.8335 73.7701 80.5635L75.8201 78.0934C75.7601 78.0134 76.64 79.2035 76.86 79.5035C74.27 84.0435 67.22 86.8435 63.48 86.2535L59.6801 85.6534L59.67 85.6334Z" fill="#582D18"/>
<path d="M49.5 70.9631L44.8933 70.4331L45.2633 67.3932L45.8633 66.1132C46.0933 65.6232 48.0333 64.9832 48.0133 65.5332L47.5 67.4631C47.5 67.9631 48 69.4631 48 69.4631C48 69.4631 48.1913 70.1544 48.5 70.4631C48.8087 70.7719 49.5 70.9631 49.5 70.9631Z" fill="#EAE6DC"/>
<path d="M62.02 75.5431C62.1 76.0031 62.44 77.5131 62.04 77.4531C61.64 77.3931 60.17 77.0631 60.19 76.7531L60.43 73.5731C60.6 73.4431 61.61 72.6131 61.53 72.6831L62.02 75.5531V75.5431Z" fill="#774525"/>
<path d="M68.52 119.554C68.42 119.714 67.92 120.354 67.73 120.314L63.33 119.564L60.59 118.994L58.33 118.504L57.36 117.114L63.4 117.754L68.52 119.544V119.554Z" fill="#4E2A11"/>
<path d="M49.8199 129.893L49.9399 125.573L50.5099 123.153L50.5999 120.123C50.7199 119.973 51.27 119.283 51.39 119.463L51.2499 123.103L50.74 125.563L50.4799 129.163C50.3899 129.333 49.9599 130.093 49.8199 129.893Z" fill="#1F1C19"/>
<path d="M52.05 117.223C52.04 117.703 51.78 118.693 51.4 118.883L51.3 115.623C51.29 115.283 51.93 114.113 51.98 114.123L52.05 117.223Z" fill="#1F1C19"/>
<path d="M48.28 111.963L47.34 111.683L48.66 109.643L51.22 110.113L49.27 111.323L48.28 111.963Z" fill="#070606"/>
<path d="M46.56 53.4432L49.07 55.0032C49.47 54.6932 49.1001 54.9832 48.4601 55.4732L42.63 55.9432C42.19 55.9832 41.25 56.9632 40.93 57.2832L38.55 58.7432L39.1 54.6932L39.04 49.9332C39.03 49.0632 38.91 47.6632 39.01 47.0732L39.48 44.4032C39.97 43.1632 39.73 43.7832 39.48 44.4032L41.44 47.5132L43.25 50.1332L45.36 52.6432C45.55 52.8632 46.29 53.2632 46.55 53.4232L46.56 53.4432Z" fill="#EFAB67"/>
</svg>
