<svg width="38" height="38" viewBox="0 0 38 38" fill="none" xmlns="http://www.w3.org/2000/svg">
<path fill-rule="evenodd" clip-rule="evenodd" d="M25.8445 12.769C27.06 12.769 28.0454 13.7545 28.0454 14.9701C28.0454 16.1858 27.06 17.1712 25.8445 17.1712C24.629 17.1712 23.6435 16.1857 23.6435 14.9701C23.6435 13.7545 24.629 12.769 25.8445 12.769ZM1.48384 27.5964V24.8367C1.48384 24.6916 1.56887 24.5649 1.69393 24.5082L2.52096 24.0379C2.69437 23.9395 2.91614 23.9996 3.01449 24.1747C3.11287 24.3481 3.05284 24.5699 2.87777 24.6682L2.21081 25.0468V28.2667C2.22748 28.6336 1.97237 29.0471 1.54051 29.2973C0.978602 29.6208 0.329995 29.5474 0.089889 29.1322C-0.150217 28.717 0.111565 28.1167 0.671821 27.7932C0.940275 27.6398 1.22875 27.5747 1.48384 27.5964ZM27.2254 6.36236V3.60265C27.2254 3.45757 27.3104 3.33084 27.4355 3.27415L28.2625 2.80389C28.4359 2.70551 28.6577 2.76554 28.756 2.94063C28.8544 3.11405 28.7944 3.33583 28.6193 3.43419L27.9523 3.81272V7.0327C27.969 7.39955 27.7156 7.81308 27.282 8.06324C26.7201 8.38673 26.0715 8.31337 25.8314 7.89815C25.5913 7.48294 25.8531 6.88264 26.4133 6.55915C26.6818 6.40407 26.9719 6.34068 27.2254 6.36236ZM33.5834 24.6799V21.4466C33.5834 21.2815 33.7018 21.1431 33.8585 21.1131L37.5768 20.0426C37.7885 19.9892 37.9986 20.1526 37.9986 20.3711V24.2464C38.0187 24.5916 37.7819 24.9818 37.3734 25.2169C36.8498 25.5187 36.2429 25.4503 36.0194 25.0634C35.796 24.6766 36.0394 24.1163 36.563 23.8145C36.8131 23.6694 37.0832 23.6094 37.32 23.6294V20.8046L34.2619 21.7101V25.2919C34.2853 25.6371 34.0469 26.0306 33.6367 26.2674C33.1131 26.5692 32.5062 26.5008 32.2827 26.114C32.0593 25.7271 32.3028 25.1668 32.8263 24.865C33.0764 24.7199 33.3466 24.6599 33.5834 24.6799ZM8.97899 7.52434V4.29104C8.97899 4.12595 9.09738 3.98755 9.25411 3.95754L12.9724 2.887C13.1842 2.83364 13.3943 2.99705 13.3943 3.2155V7.09079C13.4143 7.43596 13.1775 7.82618 12.769 8.06126C12.2454 8.36308 11.6385 8.29472 11.4151 7.90785C11.1916 7.52099 11.4351 6.96068 11.9586 6.65888C12.2087 6.5138 12.4789 6.45377 12.7156 6.47378V3.64901L9.65757 4.55447V8.13628C9.68091 8.48145 9.44247 8.875 9.03231 9.1118C8.50873 9.41361 7.90183 9.34525 7.67837 8.95838C7.45494 8.57152 7.69838 8.01121 8.22193 7.70941C8.4737 7.56433 8.74226 7.50433 8.97899 7.52434ZM19.912 5.55999L20.3306 6.5338C20.5673 7.08409 20.9625 7.47427 21.5161 7.70273L22.4181 8.07626C22.4815 8.10294 22.5199 8.15963 22.5199 8.228C22.5199 8.29637 22.4815 8.35473 22.4198 8.38141L21.4461 8.79996C20.8958 9.03675 20.5057 9.43196 20.2772 9.98554L19.9037 10.8877C19.877 10.951 19.8203 10.9894 19.752 10.9894C19.6836 10.9894 19.6252 10.951 19.5986 10.8893L19.18 9.91554C18.9433 9.36524 18.5481 8.97507 17.9945 8.7466L17.0925 8.37308C17.0291 8.3464 16.9908 8.2897 16.9908 8.22133C16.9908 8.15296 17.0291 8.0946 17.0908 8.06792L18.0645 7.64937C18.6148 7.41259 19.005 7.01737 19.2334 6.46379L19.6069 5.56166C19.6336 5.49829 19.6903 5.45994 19.7586 5.45994C19.827 5.45827 19.8854 5.49662 19.912 5.55999ZM36.8595 0.223948L36.7111 1.48957C36.6277 2.20494 36.8045 2.8486 37.243 3.41887L37.9583 4.34935C38.0083 4.41438 38.0133 4.49776 37.9733 4.56946C37.9333 4.64116 37.8583 4.67785 37.7766 4.66951L36.511 4.5211C35.7957 4.43773 35.1521 4.61448 34.5819 5.05304L33.6514 5.76841C33.5864 5.81844 33.503 5.82344 33.4313 5.78342C33.3596 5.7434 33.323 5.66836 33.3313 5.58665L33.4797 4.32103C33.5631 3.60566 33.3863 2.962 32.9478 2.39173L32.2325 1.46125C32.1824 1.39622 32.1774 1.31284 32.2175 1.24114C32.2575 1.16944 32.3325 1.13275 32.4142 1.14109L33.6798 1.2895C34.3951 1.37287 35.0387 1.19612 35.6089 0.75756L36.5393 0.0421884C36.6044 -0.00783806 36.6877 -0.0128412 36.7594 0.0271804C36.8311 0.067202 36.8678 0.142239 36.8595 0.223948ZM2.13735 0.0638671L2.79433 0.895948C3.16449 1.3662 3.64804 1.63966 4.24162 1.71804L5.21037 1.84477C5.27707 1.85311 5.33042 1.8998 5.34877 1.96483C5.36711 2.02987 5.34543 2.09657 5.29208 2.13826L4.46005 2.79527C3.98982 3.16546 3.71638 3.64904 3.63801 4.24266L3.51129 5.21148C3.50295 5.27818 3.45626 5.33154 3.39123 5.34988C3.32621 5.36822 3.25951 5.34654 3.21782 5.29319L2.56085 4.4611C2.19068 3.99085 1.70714 3.71739 1.11355 3.63901L0.144804 3.51228C0.0781078 3.50394 0.0247508 3.45725 0.00640883 3.39222C-0.0119323 3.32719 0.0097439 3.26049 0.0630996 3.2188L0.895126 2.56178C1.36535 2.18993 1.63879 1.70635 1.71716 1.11272L1.84389 0.143912C1.85223 0.0772115 1.89892 0.0238512 1.96394 0.005508C2.02897 -0.0111669 2.09567 0.0105063 2.13735 0.0638671ZM8.56537 18.5633C7.43322 18.5633 7.20477 18.5066 6.21933 17.7345C5.41232 17.1009 4.84037 16.1987 4.86039 15.0482C4.87373 14.2594 4.24512 13.6091 3.45642 13.5958C2.66772 13.5824 2.01745 14.2111 2.00413 14.9998C1.96745 17.1693 3.00626 18.8401 4.45855 19.979C5.00044 20.4026 5.71577 20.8344 6.43775 21.1746C6.75956 21.3264 6.93798 21.6582 6.88296 22.01C6.78125 22.672 6.67287 23.3657 6.45444 23.9777C6.11596 24.9365 6.06093 25.9837 6.11763 26.9976C6.21433 28.7001 6.22767 30.0491 5.72245 31.7185C5.3723 32.8757 4.7587 34.0814 3.74492 35.3036C3.17967 35.9873 3.27636 36.9995 3.96001 37.5648C4.64367 38.1301 5.65578 38.0334 6.22102 37.3497C7.43154 35.8889 8.20522 34.4015 8.67877 32.9741C9.27902 31.1632 9.4291 29.4073 9.24568 27.5079C9.229 27.3444 9.32238 27.196 9.47745 27.1377C9.63085 27.0793 9.79926 27.131 9.8943 27.2644C10.9398 28.7302 11.8018 29.774 12.2937 31.5448C12.6505 32.8254 12.7906 34.3262 12.4955 36.0586C12.3487 36.9357 12.9407 37.7645 13.8177 37.9096C14.6948 38.0563 15.5235 37.4643 15.6685 36.5872C16.0153 34.5478 15.907 32.5468 15.3734 30.6676C14.9349 29.1251 14.2095 27.6678 13.2141 26.3386C12.7272 25.6883 12.5471 24.9512 12.6805 24.1491L12.9607 22.4683C13.0274 22.0681 13.2891 21.7579 13.6743 21.6278C14.6764 21.286 15.8286 20.6557 16.6139 20.0403C18.0662 18.9014 19.105 17.2306 19.0684 15.0612C19.055 14.2724 18.4047 13.6438 17.6161 13.6571C16.8274 13.6704 16.1988 14.3208 16.2121 15.1095C16.2321 16.2617 15.6602 17.1639 14.8532 17.7959C14.2579 18.2628 13.7427 18.5613 12.9507 18.5613C11.49 18.5629 10.0275 18.5633 8.56537 18.5633ZM10.1077 13.3989C11.3233 13.3989 12.3087 14.3844 12.3087 15.5999C12.3087 16.8155 11.3232 17.801 10.1077 17.801C8.89217 17.801 7.90677 16.8155 7.90677 15.5999C7.90677 14.3844 8.89221 13.3989 10.1077 13.3989ZM25.6794 28.435C25.7628 28.2582 25.9279 28.1498 26.123 28.1465C26.318 28.1415 26.4881 28.2432 26.5782 28.4166C27.3452 29.8857 27.9821 31.2364 29.0976 32.4904C30.1331 33.6543 31.5603 34.8666 33.5313 36.0238C34.2967 36.4741 35.2821 36.2189 35.7323 35.4535C36.1825 34.6881 35.9274 33.7026 35.1621 33.2524C33.9815 32.5588 32.641 31.5216 31.5371 30.2893C30.4133 29.032 29.3962 27.4178 29.2861 25.6952V21.253C29.2861 20.8478 29.4946 20.4993 29.8514 20.3058C30.7835 19.8039 31.8173 18.9935 32.4909 18.2581C33.7364 16.8958 34.4884 15.0782 34.0966 12.9439C33.9549 12.1685 33.2095 11.6549 32.4342 11.7966C31.6589 11.9383 31.1453 12.6837 31.287 13.4591C31.4954 14.593 31.0803 15.5752 30.3866 16.3322C29.633 17.156 28.6125 17.8697 27.6637 17.8697H24.9125C22.1746 17.8697 20.387 18.7018 18.6864 20.9013C17.9594 21.8417 17.3975 22.6972 16.7722 24.2163C16.4721 24.945 16.8206 25.7804 17.5509 26.0806C18.2795 26.3807 19.1149 26.0322 19.4151 25.3018C20.3955 22.919 21.4459 22.0318 22.4748 21.3248C22.5865 21.2481 22.7232 21.2398 22.8449 21.3031C22.965 21.3665 23.0367 21.4832 23.0367 21.62V25.9691C23.0367 26.3092 22.9816 26.6011 22.8583 26.9179C22.1596 28.7088 21.9028 30.7782 21.9228 32.6825C21.9379 34.1366 22.1179 35.559 22.4397 36.7963C22.6615 37.655 23.5385 38.1703 24.3972 37.9485C25.2559 37.7267 25.7712 36.8496 25.5494 35.9909C25.2493 34.8353 25.0809 33.8181 25.0075 32.9243C24.8658 31.2718 24.9574 29.9726 25.6794 28.435Z" fill="black"/>
</svg>
