<svg width="50" height="35" viewBox="0 0 50 35" fill="none" xmlns="http://www.w3.org/2000/svg">
<path d="M48.5142 2.7195C47.5638 2.04925 46.3623 1.91644 45.2563 2.33976C44.5445 -0.254125 40.8881 -0.8559 39.3756 1.37069C38.172 2.99136 38.8215 5.48978 40.6642 6.30532L38.9087 10.0322C37.0224 10.3082 35.0428 11.5657 33.4614 13.2922C31.5502 13.0245 29.6142 13.894 28.4895 15.4171C26.8771 14.6244 24.7626 14.7676 23.2934 15.7491H28.2571C28.8797 15.7491 29.4689 15.9234 29.967 16.2306C32.0463 13.6844 36.3375 15.0664 36.541 18.3555C36.5659 18.6626 36.7568 18.9365 37.0473 19.0527C37.7777 19.3681 38.4501 19.7582 39.0394 20.2148C39.3714 20.4721 39.8445 20.4472 40.1351 20.1484C43.9491 16.6103 49.0496 22.2857 45.1236 25.6933H30.5812C29.2594 29.248 26.5908 32.2115 23.2439 33.9438C23.5261 33.977 23.8166 33.9936 24.1072 33.9936H40.708C44.8251 33.9936 48.1782 30.6403 48.1782 26.5235C48.1782 26.0587 47.8047 25.6935 47.3481 25.6935C49.2468 22.8651 47.6864 18.5798 44.4513 17.6586C44.6235 15.6001 44.2894 13.6101 43.4117 12.1615L45.1714 8.42631C48.8236 10.0802 51.7411 5.10406 48.5165 2.71985L48.5142 2.7195ZM48.1925 5.8384C47.9539 6.83031 46.7835 7.37189 45.8767 6.9237C45.719 6.84899 45.5696 6.74109 45.4202 6.59375C45.0383 6.19118 44.3079 6.31984 44.0838 6.82824L42.21 10.8083C41.7742 10.4659 41.2492 10.219 40.7097 10.0986L42.5835 6.12272C42.8346 5.62677 42.4694 4.98143 41.9133 4.94196C40.662 4.86933 39.9793 3.313 40.7304 2.32523C41.4733 1.22129 43.3285 1.53668 43.6646 2.81911C43.9323 3.76953 45.0362 4.29035 45.9389 3.88986C47.1425 3.33164 48.566 4.56218 48.1883 5.8384L48.1925 5.8384Z" fill="black"/>
<path d="M15.7942 3.70972C15.2277 2.778 13.827 3.59767 14.3624 4.54806C14.8957 5.45693 15.1073 6.31189 14.9912 7.09009C14.7816 8.29364 13.9266 8.79167 13.5573 10.0368C13.0696 11.5288 13.3332 13.2967 14.3375 15.293C14.545 15.7059 15.0514 15.8657 15.4519 15.6603C15.8607 15.4549 16.0267 14.9548 15.8192 14.5459C14.7899 12.4148 14.6219 10.9705 15.7362 9.42251C16.9502 7.88901 16.9833 5.58358 15.7942 3.70972Z" fill="black"/>
<path d="M10.7305 6.9114C10.0271 6.08757 8.76543 7.15004 9.46474 7.98421C9.92126 8.52373 10.108 9.00104 10.0209 9.40775C9.81129 10.1153 8.94392 10.5428 8.61397 11.3625C8.05783 12.5412 8.33176 13.9024 9.42739 15.4069C10.0852 16.2826 11.3946 15.3135 10.7679 14.4296C9.81126 13.0662 9.70751 12.259 10.6621 11.3688C11.9362 10.2773 12.0773 8.34943 10.7305 6.9114Z" fill="black"/>
<path d="M20.6459 6.91143C19.9404 6.0876 18.6808 7.15007 19.3781 7.98217C19.8346 8.52169 20.0213 9.00107 19.9342 9.40571C19.7246 10.1133 18.8572 10.5408 18.5273 11.3605C17.9711 12.5392 18.2451 13.9004 19.3407 15.4049C19.9985 16.2805 21.3079 15.3115 20.6812 14.4275C19.7246 13.0642 19.6208 12.257 20.5754 11.3667C21.8495 10.2752 21.9906 8.34745 20.6439 6.90941L20.6459 6.91143Z" fill="black"/>
<path d="M29.9175 20.2522V19.0693C29.9175 18.1542 29.1725 17.4092 28.2574 17.4092H1.69595C0.780804 17.4092 0.0358628 18.1542 0.0358628 19.0693C-0.532711 27.0484 5.7301 34.0452 13.7936 34.0101H16.1592C23.7457 34.0101 29.9175 27.8386 29.9175 20.2522ZM10.7683 30.277C10.6023 30.7065 10.1084 30.914 9.69338 30.7459C7.07666 29.7208 4.9476 27.7681 3.69634 25.2467C3.22944 24.263 4.67997 23.5368 5.18214 24.5079C6.25081 26.6598 8.06862 28.3241 10.2994 29.1998C10.7268 29.3658 10.9364 29.8472 10.7704 30.2746L10.7683 30.277Z" fill="black"/>
</svg>
