<svg width="155" height="204" viewBox="0 0 155 204" fill="none" xmlns="http://www.w3.org/2000/svg">
<path d="M8.92658 23.4564C11.5199 16.5848 26.2379 3.10358 40.5 0.627091C51.3334 -1.25403 63.3929 1.29565 73.5 5.62715C87.5 11.627 87.094 15.8365 98.1657 23.4564C110.69 32.0757 119.885 35.9173 127.454 49.1101C132.578 58.0407 133.267 64.1973 135.234 74.3056C136.982 83.2877 133.705 89.6602 137.5 97.6271C141.169 105.331 151.672 105.949 153.997 114.16C156.142 121.734 154.212 126.448 153.997 134.317C153.507 152.273 153.997 154.127 151.5 176.127C150.353 186.233 150.381 192.733 142.099 198.627C134.216 204.237 116 203.627 104 203.627C80.7894 203.627 75.6126 201.658 52.402 201.658C38 201.658 23.1329 202.723 12.5 193.627C4.4188 186.714 6.62465 181.45 4.80785 170.965C2.89427 159.922 7 147.292 7 143.627C7 139.962 8.07854 125.2 7 114.16C5.64525 100.294 2.54888 93.2063 1.14676 79.3448C-0.0414977 67.5974 -0.689097 60.7736 1.14676 49.1101C2.77466 38.7678 6.33331 30.3279 8.92658 23.4564Z" fill="#FDFDFD"/>
<path d="M133.337 108.668C136.407 106.318 136.147 108.458 135.177 111.028L133.837 112.868C133.327 113.578 131.997 114.378 130.587 115.298L132.737 116.198L135.497 117.338L138.427 118.818C142.247 120.748 146.087 128.098 146.267 133.198L146.567 141.738L146.517 146.898L145.787 155.938L144.577 166.318L143.897 170.788L143.137 175.308L142.477 179.108L140.647 189.408L139.557 195.548L137.157 195.598L135.807 194.578C139.987 174.908 142.197 155.038 142.447 134.958C141.797 126.488 137.617 120.448 128.717 119.388C131.197 125.958 129.947 132.098 127.097 138.298L128.077 138.748C138.607 135.118 133.317 146.688 126.327 147.658C127.147 153.658 127.787 159.738 128.237 165.918L126.797 167.018C125.877 176.308 124.217 185.458 121.807 194.478L120.147 194.898L119.377 195.818L118.827 195.848C117.067 196.208 116.187 195.918 116.197 194.988L121.857 170.108C122.437 164.918 122.267 159.868 121.327 154.958C119.407 157.238 110.217 160.268 107.577 159.658C107.057 159.538 98.7169 155.448 98.0269 154.998C92.3969 151.388 93.6069 149.628 99.2269 147.478L100.257 144.308L82.7169 150.908C81.1169 151.428 79.4469 151.448 77.7869 151.218C74.1069 150.708 58.5169 143.678 54.8169 141.688C53.7769 141.128 47.7169 137.768 47.3169 137.188C46.8069 136.448 46.6469 136.038 47.2669 135.038C44.8669 132.278 48.3469 130.998 48.7869 134.138C48.9769 133.538 49.3369 133.158 49.9269 133.068C59.5669 138.378 70.2269 143.848 80.9869 145.978C83.3869 145.568 95.3369 140.928 97.8369 139.668C99.4869 138.838 99.7469 138.558 98.1669 137.408C91.5169 135.078 87.4769 127.078 90.2269 120.498C90.6169 119.568 91.3269 118.278 92.3469 118.418L93.0169 117.648C91.8769 117.678 92.1569 117.428 93.0869 116.788C92.0869 116.648 91.4769 117.098 90.9169 117.868C92.1069 119.368 89.1669 123.338 87.0969 121.558C86.4069 120.028 85.9069 118.648 85.5969 117.438C90.1669 107.358 89.7669 100.498 86.4869 90.098C82.0269 96.478 74.0469 97.828 66.7569 98.068C67.5969 101.378 67.0269 103.978 65.0469 105.878C61.3169 106.628 57.6769 107.268 54.1169 107.818L53.6169 109.368C51.6769 107.988 49.8369 106.528 48.0669 104.988L47.7669 105.948C34.7469 103.998 21.0469 102.288 19.4169 120.018C18.7869 143.518 19.7169 167.058 22.2069 190.648C21.5769 191.448 20.6369 191.668 19.3969 191.298C19.1569 191.128 18.3469 190.388 18.3169 190.068L17.6669 182.408L17.0169 174.778L16.3969 166.408L15.5669 153.668L14.8969 143.158L14.5469 134.918L15.1369 121.378L16.1969 114.978L17.8269 110.578C18.1169 109.778 17.8069 108.018 17.3269 107.368L15.0269 104.218L12.4269 98.7781C12.2069 98.3181 11.8369 96.548 11.8069 95.978L11.2769 87.6981L11.8069 81.548L11.8769 66.0181L11.2269 61.4681L10.4569 53.878C9.87687 48.158 9.53688 42.188 11.4269 36.798L13.4069 31.128C14.0069 29.418 15.4569 26.948 16.7569 25.688L21.2669 21.288L23.6869 19.678L27.5869 15.478C31.3869 12.398 35.7969 10.168 40.5869 9.03802C44.5769 8.09802 48.8969 7.19802 52.7969 7.84802L62.4669 9.47802C65.2469 9.94802 68.1669 11.1581 70.5669 12.5881L78.5969 17.3881L81.8469 20.0281L90.7569 28.478L93.0669 30.628L101.247 38.2681L104.457 40.978L111.557 48.168L113.427 50.7081L115.957 54.308C116.627 55.258 117.907 57.4881 118.237 58.6381L120.457 66.3281L120.827 71.2781C120.887 72.0181 121.537 73.7281 121.837 74.4581L123.407 78.248L124.397 82.508C124.977 84.988 124.717 88.1581 124.397 90.4581L123.597 96.008C123.187 98.818 122.807 102.718 124.197 105.158L125.647 107.698C127.047 110.158 131.657 110.008 133.307 108.658L133.337 108.668Z" fill="#060505"/>
<path d="M47.287 135.068C47.487 135.298 48.147 135.998 48.447 136.178L52.587 138.628L55.527 140.378L59.017 142.028L68.717 145.968L71.767 147.288L76.017 149.178C77.977 150.048 80.747 150.118 82.637 149.368L88.237 147.138L92.807 145.318L97.887 143.468L100.967 142.368L102.077 143.348L101.337 146.238C101.197 146.788 100.577 148.468 100.097 148.708L97.037 150.228L95.187 151.018L98.087 153.268C98.797 153.818 100.607 154.668 101.507 155.018L105.307 156.518C106.797 157.108 106.717 158.778 109.537 158.098L113.727 157.088L118.297 155.558C119.027 155.308 120.377 153.778 121.277 152.888L122.697 154.128L123.747 159.018L123.377 170.308L122.537 174.788L121.347 179.668L120.477 183.238L119.007 189.248L118.347 193.358C118.267 193.868 117.577 195.158 117.387 195.468L118.867 195.858C118.927 195.868 117.417 196.308 116.997 196.308L104.427 196.538L83.367 196.328L60.137 194.978L53.947 194.548L45.987 193.998C45.747 193.978 44.837 193.788 45.037 193.498L45.847 191.998L51.767 191.938C68.597 181.368 88.877 177.358 106.977 187.598C111.987 189.338 102.737 182.828 101.217 181.918C94.727 178.038 87.787 176.638 80.287 175.858L60.787 175.188C45.857 173.788 38.367 168.818 38.727 152.818C38.837 147.928 39.377 142.698 42.467 138.758C41.597 137.798 44.437 133.268 44.777 133.128C47.667 131.968 47.657 132.468 47.307 135.058L47.287 135.068Z" fill="#2B2B2B"/>
<path d="M48.097 105.008C50.977 105.668 51.6669 107.828 50.1669 111.498C49.2869 116.018 46.6169 129.598 44.9169 133.178C44.0169 135.058 42.0069 138.028 39.8869 137.638L40.2169 141.078C32.6269 157.408 35.0469 175.398 40.1669 192.048L39.007 193.358L36.687 193.278L33.6769 192.858L29.977 192.218L20.4469 191.658C20.1869 191.638 19.6069 191.398 19.4269 191.308L20.7769 191.128L20.1169 182.158L19.6469 175.428L19.067 167.178L18.3069 155.908L17.8069 148.388L17.4569 142.438L17.377 127.398L17.7469 121.908C18.1069 116.518 20.127 109.238 24.187 106.378C26.977 104.418 30.5869 103.008 33.7369 103.178L40.597 103.548L44.7469 104.348L48.1069 104.988L48.097 105.008Z" fill="#FCB66F"/>
<path d="M54.137 107.848C55.987 108.238 55.857 110.438 54.057 110.498L53.337 113.238L54.247 113.668C52.987 120.118 51.707 126.708 50.397 133.428L48.797 134.158L47.487 133.408L47.277 135.048L46.137 133.668C46.547 133.138 45.787 134.118 45.407 134.618L43.847 136.578V139.148L41.747 142.868L40.777 144.588L40.837 147.918L40.207 152.418L40.037 157.468C40.007 158.388 40.437 160.808 40.867 161.648L43.387 166.568C43.707 167.188 44.987 168.558 45.547 168.898L48.407 170.648L51.347 172.068L55.557 173.028L60.867 173.698L75.087 174.148L80.397 174.368L87.077 175.288L91.677 176.268L97.707 178.308L101.997 180.668L105.167 182.848L108.907 185.828L111.197 188.088C111.447 188.328 110.697 189.978 110.337 189.898L106.487 189.038L101.697 187.028L97.977 185.528L92.807 183.918L89.137 183.088L79.657 183.058L75.987 183.798L72.407 184.808L68.747 185.848L65.767 186.918L58.347 189.618C54.197 191.128 53.947 193.518 51.097 193.518H44.997L39.007 193.378L37.947 190.078L36.777 185.288L34.737 176.068L34.027 170.238V157.438L34.647 153.058L37.557 143.918C37.857 142.988 38.877 141.248 38.757 140.428L38.197 136.558L36.527 130.248L37.997 130.008L39.937 135.728L41.197 136.368C41.797 135.498 43.317 133.538 43.557 132.528L46.017 122.418L48.797 110.848L49.527 107.178C49.557 107.018 49.377 106.118 49.257 106.018L48.097 105.038L52.237 105.908L52.957 107.648C53.067 107.918 54.097 108.088 54.147 107.868L54.137 107.848Z" fill="#121212"/>
<path d="M137.167 195.618L134.127 195.288L126.417 195.308L123.107 195.668C122.317 195.168 122.347 194.268 123.197 192.968L126.797 167.018L126.397 159.498L124.817 149.838L124.327 146.858C124.277 146.548 125.727 146.308 126.037 146.188L129.297 144.898C129.917 144.658 131.357 143.248 131.587 142.638L133.057 138.778C130.967 139.738 128.027 140.558 126.427 140.288C126.017 140.218 125.507 138.438 125.647 138.038L128.137 131.088C128.957 128.808 128.797 121.618 126.347 118.728L127.177 117.508L130.087 118.168C132.007 118.608 135.367 119.168 136.647 120.468L140.827 124.678C141.797 125.648 142.987 128.438 143.177 129.728L143.947 134.878L143.887 148.398L143.157 156.588L142.447 162.648L140.837 173.828L140.227 177.618L139.327 182.798L138.677 186.568L138.027 190.398L137.167 195.618Z" fill="#FCB771"/>
<path d="M123.107 195.668L120.087 195.798C119.697 195.908 119.727 195.608 120.157 194.908L120.607 193.178L122.297 186.658L123.047 183.668L124.217 178.888L125.477 173.288L126.247 168.718L126.817 167.038L126.627 173.038L126.467 176.068L125.737 177.658C125.957 178.988 126.177 180.918 126.037 182.038L125.127 189.708L124.757 192.788C124.707 193.188 124.487 194.348 124.247 194.588L123.117 195.678L123.107 195.668Z" fill="#DE955A"/>
<path d="M120.087 195.808L119.377 195.838L120.157 194.908L120.087 195.808Z" fill="#2B2B2B"/>
<path d="M69.677 53.2181C70.117 51.1981 69.697 48.8881 68.407 46.2981C68.587 45.8781 69.507 44.0481 70.147 43.6681C71.237 43.0281 74.467 43.0581 75.507 43.7681L78.237 45.6281L81.777 48.7681L83.647 50.6581C86.437 54.4381 89.067 58.8081 89.597 63.5081L90.037 67.4081C90.447 71.0681 90.187 74.7581 88.747 78.0981L85.9169 84.6781C82.9469 88.4281 79.877 91.7381 75.097 93.0381L73.6969 93.0581C72.5169 93.1081 71.447 93.3581 70.467 93.7981L63.067 93.7781L58.507 93.2381L54.127 92.0981C52.337 91.6281 50.097 90.5781 48.567 89.5881L44.827 87.1881L42.657 85.5781C39.797 83.0781 37.817 80.2681 36.727 77.1581C34.177 77.2781 31.547 71.2581 32.827 69.1781C32.147 67.4181 32.217 66.3381 33.047 65.9381V65.2481C31.817 59.6981 36.437 56.3381 41.677 56.8281L43.557 56.0281L43.677 55.2881L49.707 54.2181C49.037 53.7981 49.507 53.1681 51.127 52.3181L54.827 50.9381C55.217 50.7881 56.377 49.8781 56.457 49.7881L51.177 48.6681C50.307 48.4881 48.337 47.4381 47.647 46.9381L45.027 45.0081L41.3869 41.7381C41.5769 41.0981 41.877 40.1081 41.627 40.9381L45.3869 43.0781L54.897 45.6981C55.347 45.8281 56.457 46.3981 56.717 46.7781L57.547 47.9481C57.717 48.1881 58.547 47.4981 58.807 47.3781L61.547 46.1481C61.817 46.2681 63.117 46.8181 62.827 46.6981C62.347 47.5081 61.527 48.8181 61.537 49.3681L61.627 53.5381L62.757 51.6881L63.677 53.3981C64.057 54.0981 65.957 55.5681 66.617 55.1481L69.677 53.2181Z" fill="#FBB269"/>
<path d="M59.3969 112.388C59.5469 112.028 59.6769 111.748 59.7369 111.768C62.7969 112.468 66.9469 113.738 69.8869 114.808C70.0469 114.868 70.1169 115.188 70.1569 115.578C70.2669 114.038 70.6169 112.458 72.7069 112.268C76.3569 111.928 79.9769 116.358 79.7969 119.958L82.4369 120.058C85.7769 117.888 86.2769 117.588 87.1369 121.588C87.6469 121.238 88.7069 120.408 89.1469 119.918L90.9569 117.908C91.5469 116.838 92.2769 116.478 93.1269 116.828L93.0569 117.688L92.3869 118.458L91.7169 120.818L91.0569 126.108C90.8469 127.808 92.3869 131.538 93.6669 132.708C96.4469 135.278 101.357 136.248 100.727 139.328C100.617 139.878 99.0169 140.888 98.4569 141.088L92.4269 143.278L86.3669 145.578L81.3969 147.468C80.5269 147.798 78.2769 147.448 77.3569 147.098L72.9369 145.398L68.0669 143.518L64.3269 142.018L57.5969 138.978L52.1869 136.108L48.8269 134.188L49.2969 130.238L52.6469 115.378L53.3669 113.268C53.5069 109.288 55.4369 108.438 59.1569 110.698L59.4169 112.408L59.3969 112.388Z" fill="#FCB670"/>
<path d="M87.1269 121.588L86.3669 120.788L85.9669 119.238C84.0169 121.718 82.0969 122.028 79.0469 121.328C77.6569 121.008 78.4669 117.558 77.5469 116.698L74.7869 114.138C72.8769 112.368 70.6369 115.718 70.1369 115.568C69.5069 114.478 63.3169 112.258 59.3869 112.378L57.1869 111.528L54.4569 110.478C54.4569 110.478 54.2469 110.998 53.9569 111.718L53.3369 113.238L53.7669 109.698L54.1369 107.838C54.2869 107.068 55.6269 106.138 56.4369 105.968L62.3669 104.788L64.7069 104.558C64.7669 104.628 65.6569 102.518 65.5969 101.878L65.1469 96.6481L70.3669 96.3681L74.3369 95.8581L80.8469 93.6281L83.7269 91.0281L86.1069 88.2781L87.4469 86.9481L88.5869 92.8681L90.4069 100.368C90.7469 102.378 91.2169 105.538 90.5569 107.368L88.0869 114.248C87.7469 115.198 87.0369 117.338 87.0369 118.288L87.1169 121.578L87.1269 121.588Z" fill="#D88D54"/>
<path d="M29.3771 81.558L28.857 85.628L28.047 89.298L27.7871 93.7181C27.7571 94.2481 29.2571 95.108 29.5371 95.128C30.8871 94.938 32.0271 96.1481 32.9771 98.7781L37.1471 98.978C33.6371 94.258 31.0471 89.388 31.0271 83.358C31.0271 83.178 32.3671 86.528 30.2171 85.668L29.6871 83.7181L31.0271 82.558C31.3071 82.318 32.5371 82.458 32.8171 82.688L34.3971 83.9681L35.1271 83.118L32.7871 79.118C32.6371 78.868 32.207 77.4481 32.267 77.5781C32.867 77.6281 33.447 77.698 33.447 77.678C33.447 77.628 33.787 76.978 33.947 76.858C35.307 76.118 36.1371 77.5181 35.0071 78.5281L34.917 79.748L36.4971 81.948L38.0971 84.158L37.637 86.258L40.3471 87.9681L45.3171 91.0881L47.547 92.188L50.357 92.948L53.7571 93.8981L56.6571 94.9581L58.7271 95.7181L62.0371 97.038C62.4871 97.218 62.9471 98.8881 62.7771 99.3981L61.517 103.278L55.6171 103.558C53.8771 103.638 54.9071 101.128 52.8771 98.788L50.7471 96.348C51.0571 96.158 50.4271 96.5581 49.5871 97.0881C49.5871 97.2181 49.867 98.258 50.047 98.508L51.5871 100.688L52.987 102.658L52.9671 103.688L48.4371 103.128L46.447 102.138L42.9671 101.648L39.1871 101.178L31.2071 101.108L30.1571 98.848L28.9271 96.058C28.9971 95.938 28.6171 96.598 28.1571 97.378L28.4871 98.2181L29.6871 101.148C29.7871 101.388 28.7071 101.838 28.4571 101.868C26.6071 100.888 24.7571 96.818 24.1571 94.558C23.5771 81.118 22.8471 69.138 17.3371 56.508C16.8971 54.498 15.867 46.438 17.167 45.258C21.277 41.508 21.5171 50.808 21.2871 53.298C24.7171 62.408 27.0171 71.768 28.2071 81.358L29.3771 81.5781V81.558Z" fill="#121112"/>
<path d="M106.687 124.538L102.907 121.608C103.287 122.838 104.287 124.948 105.117 125.668L107.667 127.848L109.217 132.298C109.767 133.868 109.807 137.508 109.397 139.108L108.397 142.998C107.687 145.768 105.177 148.328 102.737 149.818C102.427 149.798 101.237 149.698 101.637 149.728C102.427 148.488 103.587 146.678 103.767 145.688L104.487 141.628C104.627 140.838 104.887 138.768 104.737 137.998L103.847 133.368C103.727 132.718 103.517 131.148 103.247 130.688L101.137 127.108L99.517 124.368L97.927 126.358C97.327 127.108 96.757 129.318 96.677 130.298L96.477 132.658C94.037 131.048 92.947 126.868 93.297 125.318L94.207 121.268L95.767 116.468L97.647 110.878L98.927 107.878C99.107 107.458 99.877 106.028 99.877 105.588L100.047 98.7981L101.127 98.7081C102.247 100.618 102.547 103.098 102.037 106.138L103.507 107.428C103.347 111.488 103.647 115.428 104.407 119.268C106.617 121.198 107.387 122.968 106.707 124.558L106.687 124.538Z" fill="#171617"/>
<path d="M42.647 85.5781L41.4771 84.4881L37.677 80.9381C37.377 80.6581 36.857 79.7881 36.827 79.4381C35.747 78.5081 35.067 77.5581 36.717 77.1581L37.967 78.5581C38.197 78.8181 38.017 79.3981 37.937 79.9481L39.7271 81.7081L41.697 83.6481C41.717 84.0181 41.677 83.2781 41.657 82.7881C41.277 82.0681 40.7771 80.6781 41.1271 80.1481L42.717 77.6981C44.807 74.4781 49.107 73.7981 52.327 75.2981C53.167 75.6881 53.617 78.4481 53.057 79.1781L51.147 81.7181C50.817 82.1581 47.657 83.7881 47.277 83.8281L42.947 84.2381L42.657 85.5881L42.647 85.5781Z" fill="#F89562"/>
<path d="M29.5469 95.118L29.3269 90.018L30.1169 87.658L30.2269 85.6481L31.2669 83.568C30.5869 82.928 31.4169 83.708 31.5969 83.888L32.7069 87.258L34.7869 92.678L36.8869 95.848L39.1269 98.938C39.3469 99.248 38.6569 100.578 38.5169 100.488L33.1269 100.358C32.8169 100.358 31.7669 99.898 31.6269 99.638L30.5969 97.678L29.8969 96.0281L29.5469 95.118Z" fill="#2E2E2E"/>
<path d="M33.3569 58.8681C34.9169 59.0681 33.4169 61.5281 32.1769 61.3281C31.6969 63.1281 31.877 64.4181 33.037 65.9381L32.817 69.1781L31.9669 69.5581L29.8569 62.9981L29.157 60.0581L28.597 57.0281C26.987 52.9781 26.4769 48.9581 27.0769 44.9681L27.1169 44.1981C28.1569 44.5881 28.967 45.8481 29.537 47.9681C31.457 50.8881 34.0469 53.1981 37.3069 54.8981L36.977 55.9881C35.257 56.5081 34.0569 57.4681 33.3669 58.8781L33.3569 58.8681Z" fill="#F7AE69"/>
<path d="M17.777 103.608L15.457 99.1981C13.977 96.3781 13.567 90.948 14.157 86.998L15.187 80.168L15.807 76.0281L16.987 76.228L17.247 84.608L17.207 96.808L17.907 101.998L17.767 103.608H17.777Z" fill="#FDFDFD"/>
<path d="M111.117 148.848L108.787 150.688L104.977 151.548L107.487 148.498C108.327 147.478 109.597 144.888 109.977 143.608L112.287 135.758C112.197 135.628 112.777 136.438 112.957 136.678L114.057 140.428L113.987 147.428C113.987 147.798 112.877 149.418 113.167 148.878C112.327 148.788 111.357 148.658 111.117 148.848Z" fill="#2C2B2C"/>
<path d="M116.897 64.6981C117.037 65.0181 116.837 67.258 116.827 66.808L115.457 65.298L113.187 62.2581L109.987 57.4481L105.507 48.8781L105.327 46.978L109.717 51.658L111.937 54.5881L114.397 58.798L116.907 64.6981H116.897Z" fill="#FDFDFD"/>
<path d="M48.0769 53.9682C48.8169 53.4482 49.6269 53.2482 49.6969 54.2282L45.157 55.6582L43.5569 56.0382L43.0569 56.9282C40.6469 56.5682 38.3869 56.8882 36.2969 57.8782C35.1369 59.0082 34.1569 59.3382 33.3669 58.8782L33.787 57.1082L36.287 56.0582L35.4469 54.8682L32.1769 52.6582L29.937 50.2482C29.567 49.8582 28.8769 48.5582 28.7169 48.0182L27.817 44.9782C27.757 44.7682 27.1869 43.9882 27.1069 44.2082L27.3869 42.6582C27.3169 42.5282 27.9569 43.6782 28.1069 43.9582L29.7969 46.9882C30.9369 49.0282 34.597 52.4582 36.347 53.0582L39.8069 54.2582C41.1169 54.7182 44.1069 54.7282 45.4569 54.4782L48.0769 53.9782V53.9682Z" fill="#D08850"/>
<path d="M32.817 69.1781L33.9969 71.7781L35.1669 74.3581C35.6069 75.3281 36.2069 76.5881 36.7169 77.1581L36.8269 79.4381L35.007 78.5181L33.9469 76.8481C31.4669 74.9081 31.7169 73.2681 31.3669 71.3481L30.5569 66.8581L29.8569 62.9981C30.2169 62.8181 30.3869 63.2481 30.5869 63.7681L31.937 67.2681L32.817 69.1781Z" fill="#D28651"/>
<path d="M68.397 46.2981L70.277 46.6081L70.437 50.1781L70.607 54.0881L69.667 53.2281C69.577 49.4581 68.667 49.3281 66.577 48.1781C66.287 48.0181 65.817 46.7181 66.137 46.6681L68.387 46.3081L68.397 46.2981Z" fill="#EAE6DC"/>
<path d="M121.967 86.4281L120.627 86.7481L120.097 83.1581L119.627 79.9281L120.697 78.3181L121.067 80.6281L121.967 86.4281Z" fill="#FDFDFD"/>
<path d="M28.597 57.0281C28.277 56.9281 28.1069 56.8081 28.0769 56.7081L27.2069 53.7781L26.4869 50.8181L26.2369 45.7681L27.067 44.9681L27.2069 50.0081L28.037 53.1381L28.5869 57.0281H28.597Z" fill="#D08850"/>
<path d="M101.617 133.618C101.697 133.798 101.407 134.728 101.367 134.678C101.317 134.628 100.837 134.358 100.677 134.268L98.807 130.838C98.567 130.388 98.497 128.988 98.457 128.138C98.437 128.118 99.427 128.958 99.587 129.098L101.617 133.618Z" fill="#92795C"/>
<path d="M51.117 52.3281L49.6969 54.2281L48.0769 53.9681C47.9369 53.8081 48.597 53.2681 48.787 53.1981L51.117 52.3281Z" fill="#9A6F4A"/>
<path d="M73.687 93.0581C73.827 93.2981 73.067 93.5281 72.757 93.5581L70.457 93.7981C70.457 93.5881 71.147 93.0181 71.287 92.9081L73.687 93.0581Z" fill="#D88D54"/>
<path d="M75.0869 93.0381L76.0269 92.3281C77.0769 91.8781 79.6469 90.9581 80.4869 90.0881L84.4869 85.9781L85.9069 84.6781C85.6969 85.1681 84.9969 86.4181 84.5869 86.8181L80.5569 90.8181C80.1669 91.2081 78.6569 92.1281 78.1169 92.2681L75.0769 93.0381H75.0869Z" fill="#D88D54"/>
<path d="M29.327 90.0282L29.287 88.4381C29.417 88.2781 29.977 87.5781 30.117 87.6681L30.027 89.1981C29.927 89.3681 29.467 90.0682 29.327 90.0282Z" fill="#121112"/>
<path d="M93.117 116.818C92.427 117.008 91.347 117.458 90.947 117.898L91.917 116.098L93.117 116.808V116.818Z" fill="#2A2A2A"/>
<path d="M106.687 124.538L105.257 122.728L103.497 120.578C100.697 117.158 103.197 109.968 101.747 106.948L100.547 110.308C100.417 110.658 100.037 111.728 100.067 111.638C99.8571 111.268 99.3971 110.398 99.4671 110.128L100.557 105.808L100.627 100.428C100.627 100.088 100.217 99.0881 100.027 98.7781L98.647 96.5481L97.7171 103.698L95.797 108.338L94.7571 110.478C94.2071 111.628 92.5471 113.638 91.5971 114.398L89.9371 115.718L90.667 113.758L92.677 108.398C92.937 107.708 93.2871 105.838 93.3371 104.988L94.1171 92.8981L93.887 85.4981L93.167 82.2081C93.167 82.2081 94.1871 82.0381 94.4671 81.9981L96.707 85.4981L98.5071 88.2981C97.9071 88.5481 98.5671 88.2781 99.5271 87.8681L98.1271 80.5281L97.2171 76.7681L95.5971 72.2881L94.397 68.9581L93.647 66.8481L91.2771 58.5081L90.077 55.5181L87.357 50.8181L83.9971 46.4481L81.2871 43.3881L78.267 41.0881L73.387 38.2381C72.827 37.9081 71.567 37.5981 70.417 37.3581L72.7771 39.5381C72.9371 39.4481 71.937 40.0381 71.697 40.1881L67.5271 39.6881L63.8471 38.9781L57.417 36.9181L47.0671 32.1081L46.7471 33.1781L50.857 36.2981L54.5371 38.5481L59.107 40.6681L61.8171 41.7081L63.447 42.4781L60.0971 42.1381C59.4171 42.0681 56.907 44.3681 54.017 42.8381L50.637 41.0481L48.5271 39.8181L45.7471 38.1981L43.0971 37.0281L39.577 33.9281L35.427 29.8281L33.5271 27.6681L32.297 28.2981L34.7571 35.1081C35.2971 36.5981 36.4471 39.2081 37.5371 40.3681L43.767 46.9681C44.137 47.3681 45.4071 48.1881 45.8771 48.4481L48.167 49.7181L46.9071 50.4981C46.6371 50.6581 45.807 50.5981 45.337 50.6081L42.587 50.6681C41.837 50.6881 40.1971 50.7381 39.5571 50.5081L36.767 49.5081C36.137 49.2781 34.647 48.0081 34.197 47.4881L30.7571 43.5181C30.2071 42.8781 29.077 40.9481 28.857 40.1281L27.117 33.7181L26.897 29.8981C26.727 29.9681 25.4271 31.0481 25.5071 31.4181L26.2471 34.7581C27.1071 38.6481 22.8371 42.8281 24.1871 49.8881L24.9671 53.9681L25.887 57.2981L27.197 61.2681L28.9371 68.2681L29.447 76.3381L29.367 81.5281C29.067 81.2981 28.737 82.8081 28.607 83.3781C28.507 83.8381 27.0771 83.5581 27.0271 83.0681L26.117 75.0081L23.6871 65.5381L22.267 61.6781L20.667 57.2081L19.7771 53.4081L19.5071 46.5381C19.5271 45.7381 17.8971 45.7081 17.9371 46.4881L18.3171 53.2881C18.4771 56.1981 19.8471 59.4581 20.7771 62.2981L23.9771 72.0781L24.647 77.8581L25.2271 91.7181C25.2671 92.7181 25.6671 95.0781 26.2171 96.0181L27.8471 98.8181C28.2271 99.4681 28.5371 101.198 28.4371 101.818C27.6971 101.888 26.097 102.138 25.517 102.578L21.8771 105.318C20.2871 103.328 19.577 101.278 19.417 99.0281L19.107 94.5581L19.3171 89.1281L19.4671 83.6981L18.4671 74.7581L16.6271 72.9081L14.4771 75.2681C15.5171 76.0681 14.547 75.3281 14.237 75.0781L14.3471 68.8281L14.0271 61.6981L13.177 53.2781L12.7571 44.0581C12.6671 42.0581 13.3071 39.0481 13.8471 37.1781L14.927 33.4881L15.8471 31.3081L17.8071 27.9781C18.2971 27.1481 19.5371 25.2881 20.2771 24.6981L23.2571 22.3081L25.367 20.6481L28.7571 17.2681L31.677 14.8481C32.327 14.3081 34.157 13.3781 35.047 13.0881L40.267 11.3481L43.5271 10.4881L47.607 9.81808C48.877 9.60808 51.7371 9.68807 53.0971 9.86807L57.207 10.3981L61.8171 11.4581L67.987 13.7381L71.337 15.5281L75.337 18.3281L79.697 21.6081L82.737 24.4481L88.3771 30.1581L93.2571 35.0181L95.5671 37.2981L99.8171 42.6181L104.017 49.0381L106.347 54.0281L108.867 59.1481L110.837 62.5981L112.717 65.0181L114.887 68.0581L117.707 72.2581C118.317 73.1681 118.517 75.4681 118.347 76.7081L116.907 76.8281L114.697 73.6381L112.157 69.9781L110.867 70.0981L112.197 72.4481L115.587 78.4581L117.257 80.2381C118.137 81.1781 118.417 84.4881 118.577 85.9781L118.937 89.3081L120.347 99.4681L121.277 103.828L122.747 107.488L123.457 109.158L127.897 111.288C128.717 111.678 130.867 111.878 131.997 112.058C131.917 112.138 130.867 112.898 130.487 113.018L126.617 114.218C125.417 114.588 122.717 113.028 122.437 111.848C122.227 110.978 121.907 109.678 121.637 109.258L119.527 106.038C118.547 104.548 117.497 101.278 117.407 99.5681L116.977 90.9981C117.337 90.9981 116.377 90.9781 115.977 90.9781L115.837 93.6781V103.228C115.837 104.978 116.747 108.048 117.697 109.518L119.227 111.878L122.177 115.608L124.287 118.638C126.127 121.288 126.747 128.598 125.977 131.098L124.007 137.488C123.677 138.558 124.067 141.278 124.987 141.858C125.407 142.128 126.807 142.518 127.957 142.868C128.077 142.328 127.907 143.078 127.767 143.748L123.147 143.178C122.197 143.058 120.267 140.978 120.097 140.028C119.027 133.888 122.957 130.218 121.387 124.698C121.187 123.998 120.297 122.128 119.787 121.648L116.777 118.778C115.807 117.848 114.377 116.718 113.807 115.888L112.217 113.608C111.777 112.978 111.007 110.898 110.937 110.118L110.227 102.808C110.187 102.378 110.927 100.748 111.097 100.328C111.217 100.028 109.987 99.2881 109.887 99.5981L109.417 101.188C108.057 105.788 108.817 113.448 111.747 117.848C112.627 119.178 115.337 120.898 116.587 121.868C117.257 122.378 118.727 124.368 118.687 125.208L118.477 129.628L117.767 137.918C117.657 139.188 118.847 141.908 119.617 142.788L121.507 144.968C121.857 148.288 120.157 151.538 117.287 153.088L113.417 155.188C113.097 155.358 111.707 155.008 111.907 154.788L113.637 152.228C114.587 150.828 116.057 147.988 116.167 146.108L116.527 140.138C116.577 139.358 115.947 137.188 115.477 136.588L112.817 133.188L110.967 130.538L108.677 126.998L106.707 124.518L106.687 124.538Z" fill="#2A2A2A"/>
<path d="M108.367 88.768L108.937 94.628L107.717 95.818L105.457 86.578L101.517 77.308C101.557 76.978 101.547 75.4081 101.547 75.5881C102.297 76.2681 102.927 76.788 103.067 77.038L104.617 79.7781L106.337 82.8381C107.097 84.1881 108.217 87.258 108.367 88.788V88.768Z" fill="#080808"/>
<path d="M80.747 60.8882C78.407 61.7282 76.337 62.2682 74.377 61.9582C72.527 61.6682 71.377 58.2482 72.437 54.7982C75.047 51.2182 81.677 51.8382 82.377 54.0582C83.187 56.6482 82.637 58.5882 80.747 60.8882Z" fill="#FB9565"/>
<path d="M44.317 69.9781L43.357 70.2281C42.717 68.8481 41.967 68.0781 41.117 67.9281C40.807 68.4081 40.697 69.4481 40.757 70.0181L40.947 71.7581L39.547 71.2881L39.947 65.9981C40.117 63.7781 43.007 62.1381 47.037 63.1581C47.677 63.3181 49.097 64.8281 49.287 65.4581C50.187 68.3481 48.257 70.3981 47.797 70.3481L44.297 69.9581L44.317 69.9781Z" fill="#1C1614"/>
<path d="M67.227 80.048C66.157 80.708 63.527 81.208 62.077 81.418C62.077 81.178 62.047 80.028 62.047 80.038C63.597 79.648 66.267 78.758 67.387 77.938L71.047 75.248C72.307 74.318 73.997 72.1481 74.637 70.7781L75.577 68.748C75.577 68.748 76.607 70.1681 76.857 70.5181C76.207 72.0081 74.687 74.638 73.617 75.498L70.097 78.288L67.237 80.048H67.227Z" fill="#4C2615"/>
<path d="M43.557 56.0281C43.807 56.4481 43.157 58.2281 42.617 58.2381L38.887 58.3181C37.177 58.3581 34.477 59.8081 34.007 61.3981L33.037 65.2481C31.527 64.5881 31.897 62.7581 32.187 61.3281L33.367 58.8681L34.727 57.658C36.377 56.188 39.737 54.7481 41.767 55.4281L43.557 56.0281Z" fill="#311D11"/>
<path d="M62.117 70.9681C62.117 70.8481 62.037 71.9381 62.017 72.0581L59.817 71.9881C59.337 71.9781 58.857 70.9481 58.737 70.4681L58.057 67.7981L58.447 66.2081L59.887 69.7881C59.987 70.0281 61.047 70.5181 62.117 70.9681Z" fill="#642507"/>
<path d="M44.317 69.9781L43.9569 70.9181L42.5569 70.7081C42.2669 70.6681 41.437 69.9881 41.407 69.7081L41.1069 67.9381L42.407 65.9081L43.4569 68.2681L44.3069 69.9781H44.317Z" fill="#EAE6DC"/>
<path d="M33.027 65.2481V65.9381C32.417 65.9081 31.217 63.8281 31.507 63.0781L32.187 61.3281L32.357 63.7581C32.357 64.1281 32.927 65.1481 33.027 65.2481Z" fill="#D28651"/>
<path d="M70.147 115.578L61.667 113.158L59.397 112.388L59.507 110.968L62.837 111.978L70.187 114.208L70.147 115.578Z" fill="#713C1A"/>
</svg>
