<svg width="28" height="30" viewBox="0 0 28 30" fill="none" xmlns="http://www.w3.org/2000/svg">
<path fill-rule="evenodd" clip-rule="evenodd" d="M14.0003 6.39848e-06C15.6397 0.000144868 17.2284 0.543966 18.4955 1.53881C19.7627 2.53366 20.63 3.91798 20.9497 5.4559C21.2695 6.99382 21.0218 8.5902 20.2489 9.97303C19.476 11.3559 18.2257 12.4396 16.7111 13.0396C15.1964 13.6395 13.5112 13.7186 11.9424 13.2634C10.3736 12.8081 9.01843 11.8467 8.1077 10.5429C7.19696 9.23909 6.78704 7.67358 6.94779 6.11311C7.10853 4.55263 7.83 3.09374 8.98925 1.98501C9.6466 1.35468 10.4277 0.854824 11.2877 0.514171C12.1477 0.173517 13.0695 -0.00121879 14.0003 6.39848e-06ZM7.68864 14.5597H20.3121C22.3494 14.5655 24.3015 15.3422 25.742 16.7203C27.1825 18.0983 27.9943 19.9657 28 21.9143V27.9423C27.9998 28.4879 27.7732 29.0111 27.3699 29.3969C26.9667 29.7827 26.4198 29.9996 25.8494 30H22.3769V23.679C22.3769 23.5547 22.3253 23.4355 22.2334 23.3476C22.1415 23.2597 22.0169 23.2103 21.8869 23.2103C21.757 23.2103 21.6324 23.2597 21.5405 23.3476C21.4486 23.4355 21.3969 23.5547 21.3969 23.679V30H6.60375V23.679C6.60375 23.5547 6.55213 23.4355 6.46024 23.3476C6.36835 23.2597 6.24372 23.2103 6.11376 23.2103C5.98381 23.2103 5.85918 23.2597 5.76728 23.3476C5.67539 23.4355 5.62377 23.5547 5.62377 23.679V30H2.1513C1.58086 29.9998 1.03382 29.783 0.630428 29.3972C0.227031 29.0115 0.000277108 28.4883 0 27.9427V21.9143C0.00569989 19.9657 0.817463 18.0983 2.25796 16.7203C3.69845 15.3422 5.6506 14.5655 7.68794 14.5597H7.68864Z" fill="black"/>
</svg>
