<svg width="165" height="212" viewBox="0 0 165 212" fill="none" xmlns="http://www.w3.org/2000/svg">
<path d="M85.5 2.58399C78.5 0.0842462 74.8983 -0.186126 68 0.0837425C57.757 0.484458 49.7686 3.32077 43 8.08374C36 13.0095 32.8804 15.8449 29 22.5837C23.641 31.8905 21.957 36.2701 21.957 47.0095C21.957 58.53 22.892 65.0271 21.957 76.5095C21.0581 87.548 20.1039 93.7555 17.457 104.51C15.3022 113.264 12.8026 117.804 10.457 126.51C6.27213 142.041 4.14708 150.968 2.95696 167.01C2.14792 177.914 -3.27159 186.022 2.95696 195.01C9.04997 203.801 18.1791 202.046 28.457 205.01C49.5536 211.093 62.501 209.88 84.457 210.01C107.969 210.148 123.012 214.65 144.457 205.01C151.482 201.851 157.086 201.352 161.457 195.01C166.573 187.586 163.457 174.01 163.457 172.01C163.457 170.01 165.517 150.824 163.457 137.51C161.813 126.881 161.118 120.445 155.957 111.01C152.415 104.534 147.36 102.796 144.457 96.0095C141.73 89.6344 143.511 85.1321 141.457 78.5095C139.076 70.836 135.542 67.428 132.457 60.0095C128.355 50.1458 129.183 43.3263 123.957 34.0095C118.673 24.589 113.643 20.5985 105.957 13.0095C98.8584 6.0008 92.5 5.08374 85.5 2.58399Z" fill="#FEFEFE"/>
<path d="M148.99 194.396C148.15 194.606 146.45 194.866 145.93 194.246C148.81 176.676 150.26 158.996 150.28 141.206C149.47 131.106 145.88 120.996 134.07 120.736C136.21 127.556 134.45 133.296 131.67 139.416L132.16 139.896C142.44 133.686 138.19 148.496 130.07 147.896C131.68 151.676 132.8 155.716 133.43 160.016L132.16 161.236C132.82 170.136 132.62 187.196 128.82 195.306L127.15 195.766C125.65 196.606 123.55 197.036 123.08 194.666C125.64 189.726 130.64 159.956 126.46 157.306C122.91 159.396 111.12 164.896 110.89 158.156C107.15 158.756 97.08 156.986 101.99 152.306C104.3 152.036 105.96 150.906 105.85 148.416C105.85 148.416 99.6 151.106 87.1 156.486C76.06 154.206 65.58 150.206 55.65 144.496V142.796C53.46 141.866 51.14 139.236 54.8 139.566L55.88 138.416C60.24 141.016 64.63 143.476 69.31 145.526C71.44 146.466 84.12 151.446 85.54 151.446C86.56 151.446 103.89 144.526 104.38 143.636C104.69 143.076 103.9 141.476 103.41 140.986C96.06 136.886 92.73 131.806 95.7 123.306C94.2 125.616 92.94 126.046 91.92 124.606C90.43 123.496 89.9 122.106 90.31 120.436L95.2 106.586C95.34 105.706 95 96.1859 94.58 96.4759C87.24 101.566 83.5 103.726 73.78 101.676C74.26 105.166 73.9 108.126 72.72 110.546L61.95 112.516L60.7 111.206C60.34 112.546 59.47 112.966 58.09 112.456C56.64 117.556 55.41 113.166 54.9 110.306L53.74 111.546C46.29 108.816 33.49 106.406 28.91 115.076C21.99 128.166 21.17 153.426 20.88 168.386C20.74 175.866 20.94 183.326 21.28 190.806C20.77 192.206 18.69 192.026 17.64 191.156L17.32 185.386L17.02 179.316L17 167.336L17.3 159.066L19.41 134.766C19.94 128.696 21.71 123.086 23.87 117.306L26.37 112.436C26.62 111.946 27.69 110.636 28.11 110.306L30.96 108.076C32.03 107.106 32.17 106.736 31.11 105.686C28.03 102.926 27.35 96.2459 28.29 91.0259L29.78 82.6859L30.59 78.1259L31.11 73.6059L30.83 60.886L30.2 54.7459L29.92 48.6859L31.06 37.5559C31.64 31.8759 34.53 26.5059 38.04 22.0359L43.02 17.146C44.14 16.046 46.84 15.2259 48.4 14.4959L52.04 12.7859C54.62 11.5759 56.87 9.66596 59.63 9.08596L64.71 8.01596C67.63 7.39596 71.01 7.47592 73.89 8.04592L78.51 8.95596C80.97 9.43596 83.89 10.566 86.02 11.766L90.44 14.2559L93.04 16.0059L96.5 18.7959L100.1 22.3759L103.2 26.2359L105.43 29.1859L109.32 35.7859L112.15 41.2959L115.76 48.1059L117.7 51.4259L121.89 57.6759L124.92 61.4859L127.54 64.8159L131.99 71.016C136.06 76.696 138.11 85.3459 136.66 92.2259C135.59 97.2859 132.13 100.356 133.39 102.336L134.9 104.706C136.33 106.966 141.02 107.626 144.78 105.306C146.21 105.346 145.18 109.036 144.43 109.786L140.73 113.456C140 114.176 137.47 115.146 136.39 115.146L131.57 115.166C130.96 115.166 129.86 115.106 130.17 115.116C130.5 115.286 131.72 115.956 132.04 116.036L137.41 117.306L142.05 118.626L145.49 120.476C146.91 121.236 148.73 123.236 149.37 124.666L152.42 131.466L154.09 139.496L154.58 144.156L154.65 155.336L154.37 159.086L152.02 180.096L151.3 184.666L150.53 189.236L149.88 193.106C149.83 193.426 149.27 194.166 149.04 194.396H148.99Z" fill="#070505"/>
<path d="M55.65 142.796L57.44 143.746L62 146.176L64.43 147.346L68.84 149.116L74.13 151.246L76.7 152.546L86.27 155.226L88.43 154.326L92.32 152.836L96.59 151.066L99.74 149.606L105.34 146.996L108.25 146.236L106.9 150.866C106.72 151.496 105.3 152.956 104.68 153.126L101.95 153.856C101.97 153.696 101.9 154.396 101.85 154.956L105.3 156.326C106.7 156.886 109.87 156.766 111.27 156.326L114.09 155.416C114.19 155.486 115.16 156.236 115.09 156.186L112.48 158.106C112.09 158.396 112.26 160.186 112.76 160.106L117.79 159.326L120.62 158.526C124.73 157.366 126.46 154.106 127.34 155.706C127.75 156.456 128.59 158.196 128.7 158.956L129.54 164.976L129.11 174.616L128.59 178.656L127.56 183.436L125.23 192.356L124.34 195.756H127.15C127.8 196.006 127.79 196.286 127.14 196.586L124.2 196.846L117.27 197.456L106.06 198.166L100.66 198.376L89.53 198.466L82.82 198.276L69.19 197.726L57.55 197.186C57.35 197.116 56.14 196.696 56.49 196.546L57.31 195.046C62.05 195.416 65.77 195.096 69.81 192.426C85.82 184.516 99.54 186.006 115.33 192.846C107.72 185.676 98.45 181.716 88.02 180.926C80.44 180.966 72.87 180.726 65.33 180.226C46.48 179.476 40.08 163.696 47.43 147.756C45.71 147.246 48.75 141.076 49.53 140.556C49.74 140.416 50.14 140.556 50.59 140.756C52.01 139.516 53.7 140.186 55.66 142.766L55.65 142.796Z" fill="#2C2C2C"/>
<path d="M54.8701 110.286C55.4701 111.286 55.8701 113.336 54.9501 114.046C55.9801 117.776 49.5201 144.046 47.3001 144.686C46.2201 145.006 45.3701 145.166 44.7201 144.196C45.4301 146.896 44.9201 149.886 43.2101 153.176L41.4601 161.306L40.0101 161.976C39.6001 169.286 39.5401 176.656 39.8301 184.086C38.1401 187.546 36.4801 190.986 34.8501 194.396L32.1901 193.936L26.6501 193.476L20.4501 192.206L18.0701 192.086L17.6101 191.126L19.7701 191.296L19.3201 179.276L19.3501 168.316L19.5901 162.796L20.0501 152.366L20.4401 147.056L21.0401 140.216L21.7301 134.946L23.2301 126.576C23.9901 122.346 25.4401 118.106 27.5901 114.276C28.7401 112.236 33.1801 108.466 35.4901 108.116L40.0101 107.426C43.0501 106.956 46.1501 107.946 49.0601 108.726L54.8701 110.276V110.286Z" fill="#FCB671"/>
<path d="M148.99 194.396C148.82 194.566 148.17 194.886 147.89 194.906L138.39 195.626L133.18 196.076L127.65 196.416C127.57 194.776 128.55 194.266 130.02 194.276C132.04 183.166 132.75 172.156 132.16 161.236L131.36 157.496L129.98 150.996L128.58 149.196L128.55 146.586L132.4 146.056C134.31 145.796 137.64 141.576 136.65 139.126L132.46 141.316C132.07 141.516 130.39 140.806 130.25 140.356C130.11 139.906 130.15 138.686 130.34 138.246L132.37 133.666C134.25 129.426 133.49 124.106 132.11 119.236C132.59 119.176 134.24 119.056 134.64 119.126L138.53 119.906C143.48 120.896 147.99 125.476 149.4 129.996L150.45 133.356L151.25 138.066L151.76 141.096L151.58 158.236L151.02 164.276L150.55 168.926L150.04 174.046L149.26 180.656L147.81 189.596L147.15 194.176L148.97 194.386L148.99 194.396Z" fill="#FDB771"/>
<path d="M56.4901 196.566L50.8501 196.216L45.1601 195.696C44.6101 195.646 43.4301 195.496 43.3201 195.026L42.7701 192.606L42.2801 194.446C41.8501 194.676 40.7501 195.126 40.2201 195.116C39.5801 194.836 39.6101 194.556 40.2801 194.286C40.1501 193.146 41.1901 187.686 41.8101 187.506C42.3701 187.336 42.9601 187.726 43.3601 188.146C41.7801 180.076 40.5201 170.556 41.3001 162.226C41.5301 159.816 43.6601 149.636 44.9601 148.146C45.7501 147.246 46.1601 147.246 47.4101 147.766L46.8801 152.356L46.0501 155.416L46.0201 162.176C46.0101 165.796 49.1401 173.106 51.7101 174.426L54.7701 175.996L58.4901 177.476L65.5101 178.766L69.1901 179.156L88.1201 179.456L93.8801 180.296L97.5901 181.016L103.19 182.976L107.01 184.876L110.83 187.336L113.31 189.236L116.62 191.996L118.6 193.916C119.07 194.376 116.9 194.846 116.28 194.686L112.7 193.746L106.65 191.586L100.41 189.356L96.2201 188.446L88.7901 188.386L82.0401 189.706L70.3901 193.816L65.9801 195.996C65.5101 196.226 63.8501 196.576 63.2901 196.576L56.4801 196.556L56.4901 196.566Z" fill="#121212"/>
<path d="M39.6202 194.246C38.9002 195.056 36.7102 194.776 35.5302 194.386L34.8602 194.406L33.4102 193.226C33.0902 192.976 33.8902 191.876 34.1302 191.516L36.3002 188.236L38.0702 184.976C38.6102 183.986 39.2202 181.306 39.2302 179.996L39.3402 163.246C39.3402 163.076 40.2102 161.606 40.0202 162.006L41.0202 162.336C41.0402 169.786 41.5702 177.236 42.6102 184.676C41.9302 187.926 40.9402 191.126 39.6202 194.266V194.246Z" fill="#E0965A"/>
<path d="M127.65 196.416L127.13 196.596V195.766L127.89 192.926L129.83 185.176L131.25 179.036L132.25 174.726L132.16 161.236C132.24 161.316 133.11 162.196 133.11 162.416L132.83 175.976L132.62 180.316L132.49 182.376L132.04 188.216L131.59 193.606L131.42 195.666L129.22 195.886C128.86 195.926 127.74 196.356 127.66 196.426L127.65 196.416Z" fill="#D78D58"/>
<path d="M26.6602 193.486L23.4502 193.536C22.6902 193.546 20.9302 192.596 20.4602 192.216L22.9502 192.016C23.9202 192.016 26.0302 192.856 26.6602 193.486Z" fill="#F7DFBD"/>
<path d="M39.62 194.246C39.81 193.596 40.04 193.636 40.29 194.296L40.23 195.126L36.38 195.056C36.21 194.946 35.35 194.426 35.53 194.376L39.62 194.236V194.246Z" fill="#FCB671"/>
<path d="M30.9302 108.076L31.6902 106.836L31.0802 105.686L32.4702 106.936L30.9302 108.076Z" fill="#6E6F73"/>
<path d="M116.66 132.056L109.01 124.556L109.06 124.086C107.02 122.196 105.96 119.986 105.89 117.456C110.33 103.716 109.25 89.576 105.07 75.756L105.21 71.776L106.22 71.606L108.27 75.076L109.7 77.346L111.62 80.106C113.36 82.606 115.05 85.646 115.54 88.896L116.71 96.616C116.76 96.976 117.64 98.016 117.71 97.696L118.09 95.906L117.92 89.426C117.9 88.656 117.26 86.586 116.94 85.896L115.01 81.846L113.15 78.346L110.35 75.206C108.86 73.536 106.94 71.076 106.34 69.006L104.8 63.706L103.89 59.806L102.66 55.856L101 52.326C100.46 51.186 99.56 48.796 98.79 47.916L95.61 44.316L93.48 42.496C93.3 42.456 92.55 42.276 92.7 42.306L93.4 44.736C93.4 44.736 92.73 44.546 92.55 44.496L90.97 43.716L88.48 42.476L85.38 40.936C83.06 39.786 80.92 38.036 78.77 36.366L74.61 33.146L68.57 27.646C68.8 28.846 69.31 30.286 69.8 30.866L73.02 34.666L75.03 37.106L77.84 39.696L81.66 42.396L82.92 43.646C83.18 43.906 81.59 44.656 81.24 44.486L78.13 42.966L75.89 42.076C74.74 41.626 73.38 40.726 72.35 39.866L70.51 38.506L68.4 36.876L63.32 31.626L60.35 28.286C57.33 24.896 58.12 21.916 55.94 22.726L56.27 27.816L56.99 32.556C57.29 34.506 58.27 37.446 59.38 39.106L62.45 43.686L65.01 47.086C65.17 47.296 64.48 49.006 64.16 48.966C63.39 48.866 61.85 48.656 61.36 48.406L58.28 46.796C55.7 45.446 52.81 41.936 51.92 38.516L50.84 34.366L50.45 30.746L50.59 23.706C50.5 23.686 49.78 23.526 49.89 23.546L49.32 27.226C49 29.256 48.04 31.166 46.92 32.956L45.37 35.436C43.06 39.146 42.15 45.316 42.58 50.106L43.05 55.456L43.3 63.876L42.9 69.606L42.19 75.176L42.15 81.086L41.81 83.626C41.34 83.706 40.67 83.816 40.91 83.776L40.5 79.226L40.55 76.026L40.47 69.576L39.82 63.866L39.39 60.036L38.98 56.386L38.54 49.506L38.71 41.456C38.73 40.576 39.39 38.826 39.86 37.346C40.28 36.986 39.22 35.806 38.77 36.096L37.88 39.056C37.7 39.656 37.22 41.566 37.21 42.236L37.05 50.246C36.99 53.246 37.36 56.336 37.93 59.096L38.88 63.726L39.3 67.406L39.15 81.766L39.1 87.066L39.27 93.826C39.31 95.216 40.53 98.156 41.22 99.336L42.6 101.696L44.38 104.416C44.34 104.606 44.08 105.556 44.12 105.406L40.04 105.106C39.58 105.076 38.32 104.436 38.16 104.016L36.88 100.786C36.66 100.236 35.91 98.456 35.92 97.866L36.01 90.976L36.18 88.286L36.71 81.856C36.74 81.536 35.29 80.956 35.16 81.256L33.74 84.266L32.25 87.426L31.44 89.156C31.64 89.406 31.11 88.736 30.97 88.566L31.61 85.256L32.73 79.456L33.31 75.676C34.2 69.876 33.46 64.216 33.01 58.386L32.44 50.976L32.49 42.886L33.97 34.936L35.17 31.046L38.97 24.266C39.82 22.756 41.94 20.836 43.32 19.826L46.44 17.536C47 17.126 48.7 16.416 49.37 16.176L51.8 15.316L55.73 13.246L57.89 12.296L65.99 10.106C68.09 9.536 71.51 9.78603 73.68 10.136L78.22 10.866L80.15 11.446L82.68 12.296C85.28 13.176 87.83 14.476 90.05 16.136L93.41 18.646L98.19 23.066L99.85 24.966L101.5 27.216L103.35 29.796L106.78 35.296L111.77 44.706L114.02 49.086L117.03 54.256L119.29 57.346L122.51 61.746L124.4 64.216C124.94 64.926 121.95 68.256 123.69 71.026L126.22 75.046L127.44 79.746L128.25 85.626L128.9 92.486L129.94 98.346L130.99 102.016C131.31 103.116 132.62 105.126 133.46 106.046L134.99 107.736L140.06 109.366L141.31 110.456L138.65 112.326C137.91 112.846 135.92 113.316 134.99 113.216L132.89 112.986C131.73 112.856 129.6 111.216 128.81 110.276L125.14 105.886L124 106.946L124.92 109.376L128.18 116.656L130.29 120.756C131.53 123.166 132.13 128.116 131.08 130.606L128.99 135.576L127.82 138.796C127.53 139.586 128.84 141.906 129.61 142.286C130.96 142.946 134.86 142.646 133.05 143.546C132.8 143.676 131.83 144.116 131.55 144.086L126.79 143.636C125.12 143.476 123.13 138.856 124.65 135.116L126.03 131.716C126.93 129.506 126.9 125.876 125.8 124.446L123.5 121.466L119.54 117.226C118.93 116.576 118.12 114.196 118.11 113.166L117.99 103.066C118.37 101.886 116.69 102.076 116.48 102.986L115.41 109.746C115.07 111.896 115.9 115.996 117.07 117.896C118.42 120.066 119.92 121.646 121.57 123.326L123.53 125.326C123.91 125.716 123.32 127.636 123.15 128.246L121.33 134.636C120.78 136.576 121.8 141.066 123.26 142.636L125.86 145.446C127.27 146.966 125.5 153.216 122.47 154.886L118.46 157.086C118.42 156.946 118.33 155.616 118.44 155.326L120.45 150.126C121.69 146.926 121.36 141.326 119.72 138.036L117.67 133.926L116.73 132.056H116.66Z" fill="#292929"/>
<path d="M101.44 77.1158L100.82 78.8858L98.9001 83.0858L95.9501 88.2458L94.7001 89.9558L92.6201 92.5458C90.5401 95.1358 86.9001 97.5158 83.4701 98.0758C78.3401 98.9158 73.5001 97.4158 68.7301 95.9658L66.4801 95.2858L61.6901 92.9858L60.1501 91.7358L57.1701 89.3058L52.7401 85.0258C52.0601 84.3758 50.9301 82.5858 50.6201 81.8358L49.7101 79.6758L46.3001 73.7958C45.9301 72.7558 45.8801 59.1458 46.3301 58.4858C46.4301 58.3358 46.8701 58.4158 47.4001 58.5558C46.0101 57.1958 49.1001 52.4558 50.9901 53.8658L58.4101 52.6758C58.2101 51.2658 59.7201 51.0858 62.9201 52.1358C66.8701 52.2258 70.7401 51.5858 74.5301 50.2258C73.0801 48.8358 73.6201 48.3758 75.4501 49.1558L77.1701 47.7058C77.7101 47.2558 79.7301 47.3658 80.3901 47.6358L82.0601 48.3058C81.0701 48.8258 79.2301 49.6058 79.0201 50.2858L77.7201 54.5859L79.5201 54.5158C79.7801 55.3758 81.0201 57.4958 81.9901 57.7558C82.6801 57.9458 84.8801 56.9658 85.3001 56.3958C87.0101 54.1358 84.9401 52.2658 83.5901 50.1458L87.7301 48.5859C88.5701 48.2659 90.6901 48.0558 91.5101 48.3158L96.1101 49.7858C98.4801 53.7358 100.64 57.8358 101.44 62.3858L102.13 66.3058C102.41 67.9058 102.31 70.9158 102.08 72.6058L101.45 77.1258L101.44 77.1158Z" fill="#FBB168"/>
<path d="M67.1402 117.716C68.3702 116.646 72.8502 117.866 74.8402 118.466C78.5202 119.576 76.8602 120.366 74.9202 118.596C74.8102 118.496 74.9202 118.166 75.0802 117.766C75.8302 113.086 81.6602 116.366 83.8102 119.226C85.5602 124.436 87.3302 125.636 89.1102 122.806C90.5502 123.756 91.0102 123.606 90.3202 122.196C91.1402 122.136 91.6702 122.936 91.9102 124.596L92.8902 124.156L95.0702 121.736L97.9202 118.576C98.1502 118.316 98.2802 119.566 98.1802 119.926L96.3602 126.836C96.0202 128.106 96.2202 131.366 96.6002 132.626C97.2702 134.816 100.01 137.066 102.13 138.156C106.34 140.306 106.63 144.406 104.86 145.146L100.15 147.116L95.3202 149.136L90.5002 151.156C89.2702 151.676 86.4002 153.286 85.1802 152.876L80.2802 151.226L74.7402 149.166L68.7102 146.906L62.0902 143.776L59.2702 142.136L56.0102 140.136L54.8002 139.576L53.4302 138.556C54.7502 131.096 56.2002 123.656 57.7702 116.226L59.4302 115.586C59.8102 113.066 61.4502 112.596 64.3402 114.186C65.3702 115.106 66.3002 116.286 67.1302 117.726L67.1402 117.716Z" fill="#FDB771"/>
<path d="M91.91 124.596L91.16 123.576C91.06 123.536 90 123.116 90.6 123.356L88.63 125.366C88.01 125.996 85.59 126.116 85.21 125.366L83.59 122.166C83.4 121.786 82.96 120.466 82.66 120.166L80 117.586C79.51 117.116 77.46 116.906 76.8 117.136L75.07 117.756L74.84 118.456L67.86 116.976L67.13 117.706C65.24 117.896 65.29 115.246 61.38 114.876L60.38 113.956L59.43 115.566C57.21 114.826 58.45 110.886 60.67 111.176L69.22 109.766L72.4 109.236L72.15 101.746C72.14 101.416 71.36 99.7559 71.65 99.8059L74.87 100.296C79.44 100.996 85.65 100.956 88.7 98.9459L92.35 96.5359C93.02 96.0959 94.14 94.5559 94.82 93.6859C94.94 93.6459 95.76 93.3559 95.84 93.3359L96.12 96.7859L96.8 105.186C96.92 106.706 95.87 109.946 95.29 111.376L93.67 115.336L91.89 120.096C91.53 121.046 91.86 123.666 91.9 124.576L91.91 124.596Z" fill="#D88C54"/>
<path d="M109.05 124.086L107.02 121.936C107.85 121.526 107.21 121.846 106.45 122.216L107.3 124.146L109.18 126.566L112.31 130.306L114.67 133.106C114.87 133.346 115.75 134.136 115.76 134.416L115.78 138.206C113.73 139.156 113.51 136.876 113.46 135.186L111.18 132.766C108.05 134.006 106.7 128.216 106.92 128.516C107.47 129.226 107.72 130.386 106.82 130.666C106.62 130.766 106.2 130.026 106.1 129.836L105.81 127.676C104.64 127.456 103.45 128.646 103.12 129.916L102.31 133.066C102.1 133.866 102.79 135.666 103.08 136.446C99.25 134.926 97.79 130.486 98.79 126.236L99.66 122.536L100.4 120.666L102.19 116.836C103.49 114.056 102.65 112.716 104.09 110.826L105.26 109.226C105.78 109.326 106.18 109.396 106.2 109.346C107.71 104.396 106.39 95.5359 105.13 90.3959L101.12 105.746L99.42 106.036L98.67 99.0259L98.17 93.8459C98.11 93.2059 98.03 91.4859 98.25 90.8559L100.23 85.2359L101.35 85.0959L102.51 80.0759L103.42 77.0659L104.81 72.9259L105.19 71.8059L106.25 74.9159L107.87 79.9959L109.02 86.3759L109.76 96.0259L109.67 102.736L108.81 106.456L108.02 110.266L107.38 115.036C107.15 116.746 107.6 119.986 107.96 121.686L109.04 124.126L109.05 124.086Z" fill="#131415"/>
<path d="M53.5402 107.446C49.7102 105.086 47.3701 99.1259 46.2401 94.8159C45.5701 92.2559 44.2201 85.7759 46.6301 84.5659L49.6001 85.0359C50.0001 85.1059 50.5302 86.5259 50.8002 86.8259L53.2401 89.4759L56.1602 92.1159C57.5002 93.1559 59.9502 95.0059 61.4102 95.3659L65.1902 96.2959V97.3159L68.2602 99.4359L69.9702 104.356C70.1702 104.936 69.5802 106.746 69.0202 106.906L65.7801 107.846C64.2801 108.286 61.8802 109.016 60.4102 108.826L55.1102 108.116C54.7902 108.076 53.4202 107.456 53.5202 107.466L53.5402 107.446Z" fill="#121212"/>
<path d="M49.0201 37.596C49.1101 38.586 49.6001 40.6161 50.0701 41.5161L51.7501 44.736C52.4001 45.986 54.5901 47.9461 55.7701 48.6461L58.8001 50.4361C59.5101 50.8561 61.6201 51.3761 62.5101 51.3161L69.0901 50.8361L73.7601 50.216C73.9801 49.566 74.2301 49.576 74.5201 50.216C73.2801 51.656 72.5901 50.616 70.6401 51.656C70.1801 51.906 68.9301 53.1561 68.4101 53.1461L62.7701 52.976L60.2001 52.236C59.6101 52.576 58.1401 53.266 57.3901 53.366L54.1401 53.786L50.9801 53.866C50.9101 51.066 45.9001 56.6961 47.3901 58.5561C47.1801 59.0261 46.4801 60.3661 46.5201 60.8761L47.0001 67.486L47.8101 73.916C47.9401 74.906 48.6101 76.7661 49.0301 77.8861L49.7001 79.676L47.1701 75.9361L45.8801 74.776L45.0101 77.796L44.6601 75.8861L45.0401 71.3761L45.3401 64.5061V57.8261L44.6201 47.966L45.3701 42.986L47.4301 36.8861C48.0501 35.7061 48.5901 35.946 49.0301 37.606L49.0201 37.596Z" fill="#ECA868"/>
<path d="M105.27 109.216L105.55 106.756L105.9 103.416C105.35 103.606 104.41 103.946 104.54 103.896L103.19 107.486L101.47 110.386L99.4302 113.366L96.6802 116.266C96.2202 115.626 95.9502 115.226 95.9402 115.266C95.9402 115.306 96.4902 114.316 96.6402 114.096L99.4502 106.006L99.8202 104.966L101.91 97.2661L103.1 92.9161L103.91 87.1361L104.14 84.7161C104.59 85.3461 105.53 86.6361 105.74 87.2761L107.36 92.3161L108.15 98.4861L108.09 103.346L107.52 108.186L105.84 114.376C105.77 114.636 104.9 115.526 104.79 115.616L104.75 113.326L105.28 109.196L105.27 109.216Z" fill="#282828"/>
<path d="M46.63 84.5659L46.97 90.1559L47.68 94.4159L49.38 99.4059L51.25 102.846L53.54 107.446L50.46 106.586L46.39 105.446L44.49 100.446C43.99 99.1359 43.17 96.0959 43.14 94.6059L42.98 83.4059C42.98 82.7759 43.65 80.9559 43.79 80.6559L46.01 79.5459L46.47 80.7859C45.82 81.4159 45 83.0959 45.54 83.6059C45.77 83.8159 46.66 84.6159 46.62 84.5759L46.63 84.5659Z" fill="#2A2A2A"/>
<path d="M60.6802 111.196L59.9002 113.646L59.4402 115.586L58.3702 120.946L56.5902 129.866L55.6002 134.176L54.8002 139.556L54.3102 140.126C54.1402 140.316 54.5602 141.146 54.7202 141.326L55.6502 142.786C54.9402 142.646 53.4002 142.336 52.7202 141.976L50.5802 140.776L49.6902 140.216C52.5802 131.556 54.3302 122.826 54.9502 114.036L54.8702 110.276C55.1102 110.336 55.7102 110.796 55.7402 111.026L56.1602 114.346L56.6702 111.736C57.2302 108.886 58.3202 111.576 60.6802 111.186V111.196Z" fill="#1D1D1B"/>
<path d="M115.78 138.206L115.21 145.676C115.06 147.656 112.08 151.976 108.93 153.876C108.55 153.626 107.27 152.786 107.56 152.976L109.41 149.736C109.87 148.926 110.56 146.486 110.54 145.516L110.42 136.846C110.42 136.446 110.02 135.296 109.81 134.996C108.65 134.346 107.65 133.046 106.81 131.106L106.83 130.656L106.93 128.506C105.92 128.186 107.43 128.666 107.52 128.696L108.27 131.126L111.84 131.476L114.75 134.466C114.99 134.716 114.97 136.296 115.11 136.616L115.78 138.196V138.206Z" fill="#252525"/>
<path d="M126.83 71.2958C126.09 69.4458 126.73 69.2458 128.04 70.7458L129.84 73.1258C134.68 79.5558 134.32 85.8757 132.45 94.0357L131.24 94.1458L130.28 84.6557L127.86 73.4858C127.75 72.9658 127.09 71.7258 126.82 71.2958H126.83Z" fill="#EFEFEF"/>
<path d="M75.43 49.146L74.51 50.2159H73.75L72.62 49.296C69.38 47.516 65.69 44.956 64 42.226L61.3 37.866L61.4501 36.386L65.35 39.9059L67.14 41.256L70.32 43.336L73.69 44.6559C73.99 44.7659 74.38 45.6959 74.28 46.0259C74.05 46.7859 73.77 47.526 74 47.726L75.43 49.146Z" fill="#DE9C66"/>
<path d="M34 90.1857L33.72 94.7957C33.32 101.236 38.16 105.006 35.44 106.066L32.42 103.036C30.73 99.8557 31.19 94.8757 32.57 91.5557L32.7 90.3158C33.19 87.5258 34.75 87.2257 34.01 90.1757L34 90.1857Z" fill="#E2E1E1"/>
<path d="M115.86 152.636L112.89 153.816L113.86 152.376L117.19 146.296L117.92 143.486L119 143.896L118.44 150.256C118.37 151.026 116.55 152.356 115.86 152.626V152.636Z" fill="#2C2C2C"/>
<path d="M107.46 137.136L106.93 139.036L104.07 134.006C103.9 133.696 104.52 132.396 104.69 132.086C104.83 131.826 105.37 133.086 105.51 133.346L107.46 137.126V137.136Z" fill="#E1BE8A"/>
<path d="M32.4101 103.046C32.0601 102.696 31.0401 101.706 31.0501 101.216L31.1001 94.7359C31.1001 94.2859 31.6701 92.7159 31.8301 92.2959L32.5701 91.5659L31.9901 94.7759L31.7601 99.8959C31.7301 100.596 32.2401 102.396 32.4101 103.046Z" fill="#292929"/>
<path d="M128.04 70.7459L126.83 71.2959L125.77 69.5759C125.58 69.2659 125.63 68.3959 125.64 67.3259L126.72 68.5959L128.05 70.7359L128.04 70.7459Z" fill="#878787"/>
<path d="M66.4802 95.2861L63.8102 94.7361C63.1302 94.5961 62.0802 93.5261 61.6902 92.9861L63.5402 93.5161L65.6602 94.5361L66.4802 95.2861Z" fill="#121212"/>
<path d="M34.0002 90.1857L33.7202 88.4257L32.6902 90.3257C32.7202 90.0057 32.7902 89.1258 32.8902 88.8358L33.5702 86.8557L34.8402 88.5957C35.0702 88.9057 34.1102 89.8757 34.0002 90.1857Z" fill="#292929"/>
<path d="M49.0202 37.5959L47.4202 36.876C47.5702 36.416 48.3202 35.646 48.8002 35.116L49.0202 37.5959Z" fill="#7F6D61"/>
<path d="M109.8 134.996L108.65 135.736L107.48 132.806L106.8 131.106L108.28 132.816L109.8 134.996Z" fill="#131415"/>
<path d="M100.82 78.886L101.44 77.116L101.32 78.2859C101.3 78.5259 101.03 78.686 100.82 78.876V78.886Z" fill="#131415"/>
<path d="M116.66 132.056L115.19 131.026L109.7 125.606C109.53 125.436 108.99 124.736 109.01 124.566L110.37 125.566L115.9 131.006C116.12 131.216 116.57 131.866 116.66 132.056Z" fill="#131415"/>
<path d="M50.5801 140.776L49.4501 142.516L49.4301 144.616L47.4201 147.786C46.8601 148.456 45.3901 149.646 45.1301 150.566L43.9401 154.766L43.1901 158.326L42.4101 163.766L42.4901 170.206L42.8601 176.406L43.7201 182.286L44.3301 186.216L45.1301 191.346L46.0801 194.306C46.3401 194.136 44.9801 195.026 44.6101 195.266L43.3501 191.466L42.1001 188.256L41.5001 190.576L40.7601 193.456C40.7101 193.656 40.2701 194.356 40.2801 194.306L39.6101 194.256L41.1101 184.516C41.2201 183.926 41.0601 182.126 40.9401 181.566L40.1001 177.676L40.0101 161.986L40.8901 157.496L42.1201 152.856L43.6501 148.346C44.0901 147.066 43.6501 143.876 43.3001 142.546L42.0601 137.736C41.9701 137.406 41.6301 136.066 41.9301 136.116L43.4501 136.366L45.3201 142.486C45.4901 143.046 45.8901 144.386 45.8501 144.206L47.4901 141.606C48.5401 139.936 49.8201 137.516 50.2801 135.656L51.5101 130.716L52.3201 126.996L53.7401 120.206L54.5401 116.406L54.9601 114.066C55.0901 113.906 55.8201 114.716 55.9501 114.866L55.6101 118.526L55.1001 120.816L53.7701 127.726L53.2401 130.236L52.0101 135.106L50.5801 140.796V140.776Z" fill="#0C0704"/>
<path d="M128.16 103.486L128.47 105.296L127.13 103.356C124.38 99.3758 124.22 97.5658 124.57 92.2258C125.2 91.8658 125.57 91.6559 125.38 91.7659L126.05 94.6058L128.15 103.486H128.16Z" fill="#070707"/>
<path d="M114.21 125.796L112.53 125.626L111.06 119.416L111.34 114.526L112.71 113.146L112.61 118.016C112.57 120.206 113.41 122.696 114.22 125.806L114.21 125.796Z" fill="#0E0E0E"/>
<path d="M88.9502 80.2559L88.0902 81.1959C88.0902 81.3159 88.1902 81.6059 88.1202 81.6959C87.6002 82.3959 87.0702 82.6859 86.5402 82.5659C84.3902 82.4559 84.5402 80.7259 86.6002 80.2659C86.1302 79.7459 85.4402 80.0559 84.8702 80.3359L85.1502 81.2959C81.5602 83.2759 77.9302 84.7759 74.2502 85.8159C75.3802 86.7659 74.8902 86.9859 72.7702 86.4759L70.1602 85.2459L66.4402 83.1859C65.9702 82.9259 66.2702 80.8659 66.6502 80.7459L72.9202 78.8959L81.8602 74.9059L85.9802 72.9859L89.1602 71.4659C89.8302 71.1459 90.6302 73.5759 90.4302 74.3259L88.9202 80.2559H88.9502Z" fill="#170C09"/>
<path d="M96.3102 65.4159L92.7502 67.4759C90.4402 67.2259 88.4402 66.2559 86.8202 64.1059C86.2802 63.3859 87.1502 61.4359 87.7502 60.6659C91.9502 55.2359 98.7302 59.0959 98.6402 60.1059L98.2802 64.1359C98.2402 64.5459 96.5302 65.3159 96.3102 65.4259V65.4159Z" fill="#FA8F60"/>
<path d="M58.6502 80.196L52.0202 81.116L51.9602 75.176C51.9602 74.746 52.9402 73.1461 52.9702 73.2061L56.4502 71.6461C59.4602 70.2961 62.7802 74.096 62.5102 74.746L61.5802 77.0161L60.6602 79.246L58.6502 80.196Z" fill="#FC9665"/>
<path d="M57.1501 67.1558C56.2101 67.3958 55.3801 66.9058 54.6601 65.6858L53.5801 65.8558C52.9901 65.7358 52.2201 65.5858 52.2701 65.3658L53.1401 61.7158C53.5901 59.8458 57.3201 57.9658 61.3801 60.4258C62.0301 60.8258 62.8601 63.1258 62.6601 63.8558C62.4301 64.6958 60.9901 66.4859 60.6101 66.7559L57.1501 67.1558Z" fill="#1A130D"/>
<path d="M50.97 53.8559C50.34 54.2259 48.89 55.0859 48.6 55.7459L47.38 58.5459L46.01 58.2559C46.1 57.4059 46.6 55.3159 47.24 54.6959L50.02 51.9459C51.72 50.2659 57.28 49.5158 58.51 52.2858L53.09 52.8759C52.55 52.9359 51.41 53.5959 50.97 53.8559Z" fill="#271609"/>
<path d="M72.79 86.466L73.91 86.186C74.03 86.146 74.24 85.916 74.27 85.806C76.18 84.696 78.48 84.266 81.17 84.526L84.91 81.9561L86.54 82.566L88.12 81.696L87.1 83.1461L84 86.026C81.73 88.136 77.07 88.4661 74.49 87.2661L72.78 86.476L72.79 86.466Z" fill="#6E2F1E"/>
<path d="M57.1501 67.156L53.7701 67.626L53.5801 65.866L54.6701 61.906L56.5301 61.986C56.5101 63.276 56.4301 64.616 56.5801 65.156L57.1601 67.156H57.1501Z" fill="#EAE6DC"/>
<path d="M72.1801 72.266L70.8101 71.4659L71.0401 69.116L74.0801 71.676L72.1801 72.266Z" fill="#73360B"/>
<path d="M77.8201 70.226L76.4201 70.206L76.3201 68.786L77.9801 68.686C78.2701 68.666 77.9801 70.016 77.8301 70.216L77.8201 70.226Z" fill="#AE692D"/>
<path d="M52.42 66.6257L52.88 67.1757L52.42 67.5557L52.04 67.1757L52.42 66.6257Z" fill="#DAC0A0"/>
<path d="M88.0901 81.1859L88.9501 80.2458C88.8701 80.5558 88.3601 81.1659 88.0901 81.1859Z" fill="#6E2F1E"/>
<path d="M75.0801 117.766L77.1601 119.656L68.4001 117.956L67.1401 117.716L66.0901 115.876C66.0901 115.876 68.1201 116.146 68.6501 116.286L72.7801 117.406L75.0901 117.776L75.0801 117.766Z" fill="#532B11"/>
<path d="M84.88 80.326C85.44 79.996 86.09 79.786 86.61 80.256L86.55 82.556L84.4 84.306C83.82 84.776 82.46 85.486 81.53 85.956L77.05 86.176L74.28 85.806C74.38 85.526 74.67 84.456 74.93 84.336L79.47 82.276L84.9 80.326H84.88Z" fill="#A2444A"/>
<path d="M75.7701 82.0559C74.8501 82.4059 72.5301 82.5859 71.2901 82.6459C71.2601 82.3559 71.1401 81.0659 71.1401 81.2359L74.4501 80.1559L81.1301 77.1959L85.7601 75.1359C86.9501 74.6059 85.9101 77.7759 84.5701 78.3859L80.4801 80.2758L75.7601 82.0559H75.7701Z" fill="#DBDADA"/>
<path d="M86.6002 80.256C86.2302 80.256 85.2502 80.196 84.8702 80.326C84.8302 80.076 85.7402 79.786 86.1802 79.646C86.4302 79.566 86.4702 79.866 86.6002 80.256Z" fill="#6E2F1E"/>
<path d="M87.4286 52.3337L86 54.5837C86 54.5837 85.2651 52.3337 83.5 50.0837L87.5 48.5837L88 49.3337L87.4286 52.3337Z" fill="#EAE6DC"/>
</svg>
