<svg width="27" height="30" viewBox="0 0 27 30" fill="none" xmlns="http://www.w3.org/2000/svg">
<path fill-rule="evenodd" clip-rule="evenodd" d="M13.4998 1.406C14.5955 1.40587 15.6666 1.72864 16.5777 2.33349C17.4888 2.93835 18.199 3.79812 18.6184 4.80407C19.0378 5.81003 19.1476 6.91699 18.9339 7.98496C18.7202 9.05294 18.1926 10.034 17.4179 10.804C16.6432 11.574 15.6561 12.0984 14.5815 12.3108C13.5069 12.5233 12.393 12.4143 11.3807 11.9977C10.3684 11.581 9.50317 10.8754 8.89443 9.97001C8.28569 9.06464 7.96077 8.00022 7.96077 6.91134C7.96237 5.45183 8.54644 4.05255 9.58485 3.02047C10.6233 1.98838 12.0312 1.40777 13.4998 1.406ZM13.4998 13.822C14.8753 13.8221 16.2198 13.4168 17.3635 12.6574C18.5072 11.8981 19.3985 10.8187 19.9249 9.55588C20.4513 8.29305 20.5891 6.90345 20.3207 5.56282C20.0524 4.22218 19.3901 2.99073 18.4175 2.02419C17.4449 1.05765 16.2058 0.399432 14.8568 0.13278C13.5078 -0.133872 12.1095 0.00301687 10.8388 0.526135C9.56804 1.04925 8.48195 1.93511 7.71783 3.07167C6.95372 4.20822 6.54592 5.54444 6.54598 6.91134C6.54802 8.74354 7.28132 10.5001 8.58497 11.7957C9.88863 13.0912 11.6562 13.82 13.4998 13.822ZM1.41512 21.8027C1.41672 20.1931 2.06074 18.6499 3.20587 17.5116C4.35101 16.3733 5.90374 15.7329 7.52339 15.731H19.4763C21.0959 15.7329 22.6487 16.3733 23.7938 17.5116C24.9389 18.6499 25.5829 20.1931 25.5845 21.8027V27.7333C25.5843 27.9613 25.4931 28.1799 25.3309 28.3412C25.1688 28.5024 24.9489 28.5932 24.7195 28.5937H21.6756V23.5383C21.6777 23.4447 21.6609 23.3516 21.6262 23.2645C21.5916 23.1774 21.5398 23.0981 21.4739 23.0311C21.408 22.9642 21.3293 22.911 21.2424 22.8747C21.1556 22.8384 21.0623 22.8197 20.968 22.8197C20.8738 22.8197 20.7805 22.8384 20.6937 22.8747C20.6068 22.911 20.5281 22.9642 20.4622 23.0311C20.3963 23.0981 20.3445 23.1774 20.3099 23.2645C20.2752 23.3516 20.2584 23.4447 20.2605 23.5383V28.594H6.73918V23.5383C6.74123 23.4447 6.72445 23.3516 6.68981 23.2645C6.65518 23.1774 6.60339 23.0981 6.53748 23.0311C6.47157 22.9642 6.39288 22.911 6.30601 22.8747C6.21915 22.8384 6.12586 22.8197 6.03162 22.8197C5.93739 22.8197 5.8441 22.8384 5.75723 22.8747C5.67037 22.911 5.59167 22.9642 5.52577 23.0311C5.45986 23.0981 5.40807 23.1774 5.37343 23.2645C5.3388 23.3516 5.32201 23.4447 5.32406 23.5383V28.594H2.27982C2.05042 28.5935 1.83059 28.5026 1.6685 28.3413C1.50641 28.1799 1.4153 27.9613 1.41512 27.7333V21.8027ZM2.27982 30H24.7192C25.3239 29.9995 25.9037 29.7605 26.3314 29.3355C26.759 28.9106 26.9995 28.3343 27 27.7333V21.8027C26.998 19.8203 26.2047 17.9197 24.7942 16.5179C23.3838 15.1161 21.4714 14.3275 19.4766 14.3253H7.52339C5.52863 14.3275 3.61621 15.1161 2.20576 16.5179C0.795316 17.9197 0.00204194 19.8203 0 21.8027V27.7333C0.000443817 28.3342 0.240749 28.9103 0.668174 29.3353C1.0956 29.7602 1.67522 29.9993 2.27982 30Z" fill="black"/>
</svg>
