<svg width="165" height="178" viewBox="0 0 165 178" fill="none" xmlns="http://www.w3.org/2000/svg">
<path d="M107.493 172.229C105.972 174.741 103.013 174.57 100.33 173.734C98.4772 173.153 96.6297 171.178 95.2856 168.859C82.7795 169.667 70.7546 168.024 58.6854 164.859C52.1474 163.143 46.2235 160.576 40.648 156.747C37.4786 158.136 34.2759 158.938 30.8742 158.838C25.9348 158.495 22.1349 155.076 21.7532 150.129L22.1017 148.9C22.771 146.565 23.7998 150.837 26.499 150.992C27.727 151.064 30.0777 150.051 29.4361 148.591C27.821 144.905 23.6172 143.046 20.5474 141.292C16.1722 146.294 7.69831 143.793 3.72134 137.69C-7.05906 121.15 9.17516 100.079 7.56003 72.1132C6.94053 61.4171 7.17838 51.5566 10.569 41.3807C15.2374 27.359 25.0554 15.8606 38.4355 9.53036C41.9368 8.14147 45.1615 7.03479 49.0168 6.86325C54.5038 2.85153 60.8647 0.948033 67.834 0.256357C84.5937 -1.41473 100.452 5.18662 112.278 17.0613C120.79 25.6104 126.227 35.7421 131.665 46.405C140.614 63.9681 167.507 89.3941 164.393 110.023C163.619 115.141 159.907 119.037 155.034 119.457C163.359 129.517 166.207 145.193 156.207 152.79C153.668 154.716 150.178 154.135 147.755 154.395C142.81 158.418 135.957 163.37 128.794 160.775C126.847 162.69 125.365 165.041 126.095 168.251C126.36 169.413 128.031 170.957 129.115 171.095C130.304 171.244 132.417 170.652 133.429 170.121L134.425 169.595C135.918 168.81 133.468 176.401 124.17 177.082C116.542 177.641 109.661 174.553 105.922 167.83L102.41 168.068C102.946 170.934 104.368 171.709 107.488 172.235L107.493 172.229ZM10.7405 70.9789L10.5856 84.1484L10.6078 96.9527C10.6244 107.455 11.1885 121.648 15.3093 129.677C20.658 140.102 28.2303 138.979 32.2737 146.848C32.8102 147.888 32.5889 150.97 31.7924 151.805C30.913 152.729 28.6949 153.349 26.9969 154.03C31.09 156.99 37.1799 154.362 41.107 152.447L43.4744 149.061C48.0432 142.52 44.2875 134.491 38.2585 129.705L41.9865 130.574L34.9895 121.449C31.621 117.061 29.7735 112.125 28.3354 106.465C27.821 104.434 28.7281 101.783 27.2015 99.57C26.5654 103.698 26.5709 108.457 27.4117 112.197L28.5124 113.514C28.789 113.841 28.0367 114.698 27.4393 114.77C23.219 107.992 23.5896 100.278 26.1229 93.0295C28.269 85.6258 29.3476 78.6039 29.7016 70.9567C30.1773 60.6314 32.2847 50.6215 36.7318 41.7293L36.7539 40.9435L38.1976 39.1175C39.9344 36.9207 40.3659 34.9066 40.8858 32.3889C41.4057 29.8712 42.4733 27.0657 44.0054 24.7085C42.3793 33.4292 41.8759 41.519 44.2488 50.0681C45.001 47.6998 44.5917 45.3979 44.7355 42.7363L45.2942 32.1731C46.5111 39.8756 48.1151 47.7109 53.0048 54.2071L56.1465 57.5493L58.2871 59.3477L59.056 59.1927L59.0062 60.0615C59.0283 59.652 65.1624 62.3468 69.6649 61.0409C65.9424 58.086 63.0053 55.1533 60.4222 51.6451C55.8147 43.5387 52.1585 34.403 53.2039 24.6698C58.1765 37.878 67.198 47.805 79.3556 53.1392L83.4709 54.683L85.0031 55.2529C90.5509 56.2932 96.5468 56.5477 102.615 56.7082L109.7 56.8908C107.46 53.9471 105.535 52.5858 103.173 50.9147L89.3451 41.1372C83.5539 37.048 79.1676 31.8189 74.6928 26.3962L72.1982 23.3694C76.0148 24.3986 76.7726 27.7629 79.151 29.6886L91.9945 40.0859L96.0379 42.7806L108.102 50.4665C110.358 52.857 112.228 55.3415 112.87 58.4457L120.74 66.613C125.674 73.5353 126.1 81.4094 124.69 89.5712C123.926 93.9813 124.363 98.8562 124.668 103.089L124.646 103.521L126.858 116.48C127.555 123.01 126.51 130.557 123.86 136.815C121.592 142.183 117.931 144.867 113.771 148.336C107.571 153.515 105.889 163.199 111.122 168.915C114.85 172.987 120.641 174.039 125.995 172.993C114.927 161.849 134.187 154.948 138.606 141.32C140.498 135.487 139.751 129.45 138.579 123.53C137.406 117.609 134.458 112.479 134.331 105.933L140.387 121.405C144.73 132.499 143.529 150.466 134.635 157.344C138.357 158.058 145.183 152.093 146.992 149.177C152.186 140.799 151.505 130.684 148.972 121.621C147.938 117.919 146.488 115.833 144.237 112.983C139.425 106.896 135.525 99.7803 135.277 91.6904L140.045 100.915L140.155 101.479C142.412 105.319 144.989 109.265 147.899 112.596C150.034 115.041 152.258 116.447 155.831 115.628C158.475 115.025 161.063 112.629 161.699 109.508C159.692 110.836 158.436 111.589 156.931 112.015C153.159 110.665 150.93 107.494 149.033 104.284L148.701 102.995L147.606 98.5519L147.478 97.993L143.369 86.3784L142.063 83.1137L135.559 65.8826C133.755 58.6228 130.149 52.204 126.841 45.1877C120.834 32.4276 113.163 20.9292 101.564 12.867C89.1626 4.24595 74.6486 1.16383 59.9963 5.13682C56.3512 6.1273 52.6508 8.73908 49.6307 10.4268C48.3972 10.4932 45.9635 10.3438 44.6692 10.792C31.3223 15.3902 21.4269 25.4002 15.6467 38.199C10.923 48.6626 10.1763 59.7184 10.7405 70.9457V70.9789ZM58.1322 40.6281C60.7319 47.3125 64.7034 53.6648 70.7269 57.9532C73.7248 60.4765 77.6133 60.1279 80.1632 57.0347L74.7813 54.5225C68.1383 51.4238 62.3913 46.809 58.9675 40.5009L58.6135 39.9862C58.4475 39.7926 57.7727 39.372 57.8446 39.6266L58.1322 40.6281ZM33.0314 70.4034L32.9429 70.9457C32.5392 78.7921 31.195 86.3064 29.0821 94.341L39.8736 112.131C43.9833 118.904 49.9847 123.524 57.5072 126.114C66.3074 129.135 75.2902 131.055 84.7375 131.005C91.1649 130.972 104.595 117.52 109.822 110.847C120.121 97.7053 117.035 86.7436 115.541 71.9196C115.082 67.3324 113.793 63.3539 109.125 61.0575C101.564 57.339 92.2877 62.0092 81.9775 57.7264C80.7661 59.7073 79.3391 60.8251 77.4972 61.0685C74.1286 63.9459 69.8364 64.6265 65.5662 64.1507C57.3634 64.0455 50.571 59.0655 47.916 51.5843L46.2013 48.7733L47.1582 52.2317C48.5079 57.09 51.2901 62.0922 55.9419 65.0858L61.0527 67.0557L56.7052 68.1236C53.3532 68.9481 50.9914 65.8494 48.3917 64.9309C42.8052 58.9548 40.4212 51.2523 40.0008 42.4929C35.2826 51.2246 34.11 60.9634 33.0259 70.4145L33.0314 70.4034ZM138.966 66.0597C144.138 77.9067 148.38 89.9696 152.346 102.486C153.104 104.882 155.029 108.064 157.485 108.269C159.719 108.457 160.134 104.849 159.813 103.006C158.441 95.1046 155.001 88.2155 150.559 81.6528L139.729 65.6502L137.417 62.5128L138.966 66.0652V66.0597ZM119.607 77.7352L120.414 88.5696C124.137 87.3965 122.046 79.9652 120.392 74.2713C120.221 73.6903 119.728 72.7883 119.28 71.9749L119.607 77.7407V77.7352ZM119.208 116.026C118.633 125.118 115.724 133.385 110.347 140.888C104.55 148.989 97.6309 153.471 96.8123 165.777C97.8134 167.332 98.5767 168.516 100.269 170.348C99.0911 163.747 100.485 158.589 104.96 154.019L112.858 145.94L120.093 138.758C124.585 132.566 126.593 123.956 125.21 116.508L122.975 107.815L121.913 91.8122C121.825 91.6572 120.652 91.3529 120.635 91.5798L120.514 93.1181C120.32 95.6358 119.966 97.7938 119.225 100.107L117.532 105.38L119.009 107.156L119.197 116.021L119.208 116.026ZM19.0318 140.108C15.3425 136.577 12.682 132.809 10.9009 128.338C8.26802 120.437 7.72043 112.551 7.75915 104.041C4.58974 115.661 1.01102 132.245 11.0724 139.139C13.6278 140.888 16.5594 141.574 19.0318 140.113V140.108ZM38.7729 116.22L30.7359 103.98L34.5138 115.888L38.7729 116.22ZM114.02 110.393L110.292 115.318L109.031 115.75L108.948 116.945L105.231 120.564C103.826 121.931 104.246 123.762 104.584 125.909L106.083 135.443C106.193 136.146 107.797 137.147 108.406 136.943C109.014 136.738 110.049 135.808 110.32 135.216L113.373 128.493C115.973 122.772 116.52 116.978 116.647 110.952L116.736 106.979L114.523 110.006L114.534 110.178L114.512 111.174L114.031 110.393H114.02ZM54.8799 144.108L57.651 143.505C63.6856 142.188 71.3906 141.469 70.7158 136.389L70.3453 133.578C70.1904 132.389 59.233 130.718 51.7658 127.398L45.5044 123.104C44.2267 122.229 42.5562 120.508 41.6049 119.579L37.7496 119.656L42.866 127.53C43.4744 128.466 43.8395 129.943 43.9667 131.044C47.2357 134.541 50.4051 140.534 50.1783 145.392C50.3608 145.669 51.7658 145.342 51.6607 144.944C50.8531 141.807 51.8598 137.219 49.0278 134.165C48.6793 133.789 49.0555 132.853 49.4261 132.881C51.2016 133.025 54.5535 139.422 53.2371 144.258L54.3101 144.324L54.2493 143.81C54.2161 144.413 54.2548 143.699 54.288 143.129L54.8909 144.103L54.8799 144.108ZM153.386 125.018C155.504 134.259 154.758 143.605 149.437 151.944C161.395 147.218 159.1 135.57 154.088 124.742L153.596 123.674C153.491 123.441 153.098 122.971 152.96 123.17C152.783 123.419 152.418 123.939 152.589 124.133L153.386 125.018ZM58.2595 150.173L61.4897 162.02C72.2259 164.494 83.1445 165.844 94.2789 165.611C93.7258 159.287 96.331 153.958 99.4617 149.116L107.41 139.444L105.668 139.411C103.538 139.372 101.967 129.816 101.674 124.382C91.1261 133.695 86.7675 136.201 72.2314 133.036C73.5146 137.49 73.6474 141.784 70.3784 145.448L70.2567 143.356L57.3191 146.659L58.265 150.179L58.2595 150.173ZM58.0769 161.179L54.4927 146.82C51.6275 146.327 51.0025 154.467 46.7876 153.875L44.4756 153.548C44.0718 153.493 43.5353 154.622 43.5961 155.031C47.8552 157.35 52.7724 159.724 58.0769 161.174V161.179ZM45.781 151.689L47.5343 149.919C47.7943 149.653 47.562 149.138 47.0199 148.336L45.781 151.689ZM136.195 151.933L137.827 150.621C138.192 150.328 137.904 149.432 137.428 148.496L136.195 151.933ZM135.293 152.409C135.066 152.868 134.64 154.074 134.873 153.886L135.835 153.111C135.99 152.99 135.382 152.226 135.293 152.409ZM131.366 157.034L132.234 157.328L134.906 154.417L134.425 153.963L131.366 157.034ZM104.584 158.789C103.583 160.587 102.792 162.85 102.1 165.252L105.214 165.329L104.855 159.558L105.347 159.209C105.469 159.076 105.336 158.335 105.187 158.423L104.589 158.789H104.584Z" fill="#020202"/>
<path d="M109.125 61.052C108.71 64.2835 113.4 67.7861 114.435 74.4871L115.541 71.9141C117.034 86.7381 120.115 97.6998 109.822 110.842C104.595 117.515 91.1648 130.967 84.7375 131C75.2901 131.05 66.3074 129.13 57.5071 126.108C49.9846 123.524 43.9832 118.904 39.8735 112.125L29.082 94.3354C31.195 86.3009 32.5391 78.7866 32.9429 70.9402L35.9961 69.6343C39.8458 67.6533 43.3527 66.5688 48.0597 66.6463L48.3916 64.9143C50.9913 65.8384 53.3587 68.9316 56.7051 68.1071L61.0527 67.0391L55.9418 65.0692C51.29 62.0757 48.5078 57.0735 47.1582 52.2151L47.9104 51.5732C50.5654 59.0544 57.3633 64.04 65.5606 64.1396C69.8308 64.6155 74.1285 63.9349 77.4915 61.0575C79.3279 60.814 80.755 59.6963 81.9718 57.7153C92.2821 61.9982 101.558 57.328 109.119 61.0464L109.125 61.052ZM96.0544 63.9072C100.596 63.3317 103.228 65.4621 105.552 69.3466L107.095 63.708L104.938 63.5254C104.501 63.4867 104.357 62.0812 103.975 61.9041L99.1685 60.6647C92.5697 58.9604 83.598 64.87 84.0959 72.3678L86.1812 68.9371C86.3471 72.7219 87.0053 75.8705 89.9037 78.2443C92.448 80.3249 96.4914 79.7604 98.8753 77.5305C102.554 74.0887 100.739 67.1996 96.06 63.9072H96.0544ZM85.3459 63.5476C85.5063 63.2875 84.1235 63.3539 83.9576 63.7578L83.2385 65.5285L85.3459 63.5531V63.5476ZM41.3006 81.8797L41.9201 82.8647C40.8138 87.6511 43.8892 93.4058 48.7069 93.8706C51.2236 94.1141 53.8676 92.3379 55.0513 90.9269C56.5502 89.1451 56.0911 86.3341 55.7759 83.9769L55.3112 80.4909C53.06 77.5305 48.5742 76.0973 44.7465 76.8167C41.1568 77.4917 38.0593 79.849 35.703 83.4291C35.8191 85.4267 34.7571 87.1144 32.5999 87.9278L37.7993 91.1703C36.9973 87.3689 38.3303 84.1152 41.2895 81.8797H41.3006ZM78.4927 95.6026C78.7029 95.9069 79.3832 96.6871 79.61 96.4492L80.3069 95.7243C80.943 95.0603 78.2936 95.3204 78.4927 95.6026ZM72.4028 96.9417C72.0101 96.997 73.1329 97.5504 73.5533 97.578C73.863 97.6002 74.5268 96.9694 74.2226 96.8864C73.9183 96.8034 73.2546 96.82 72.4083 96.9362L72.4028 96.9417ZM69.9801 111.688C78.3102 113.619 86.076 110.808 91.0431 104.102L90.8053 102.525C90.7721 102.293 90.0419 102.558 89.9202 102.757L89.3561 103.704C84.5273 108.451 77.5413 111.223 70.7877 110.056L69.2223 109.785C68.9015 109.729 68.7688 110.764 69.0287 110.958L69.9746 111.688H69.9801ZM85.1966 114.483L78.5757 115.811C80.4452 117.454 83.6146 117.543 85.1966 114.483Z" fill="#FDFDFD"/>
<path d="M135.548 65.9213L134.408 67.1331L134.154 65.1355C134.115 64.8478 133.38 64.6873 133.313 64.9806L132.412 68.7544L124.861 50.8427C123.921 50.1843 123.661 49.5977 123.113 48.8175L119.175 43.1734L117.92 44.59L112.576 37.7728L111.846 38.1933C117.571 45.6137 121.825 54.2292 124.789 63.1601L125.78 64.9308L126.537 67.4928L126.288 68.4279C126.272 68.6437 125.713 68.9647 125.597 68.782L124.994 67.8026L123.008 64.632C120.691 60.9191 118.733 57.5935 115.679 54.6055L110.126 49.1772L101.248 43.439L99.6223 44.6619C99.6831 43.2288 99.5836 42.4707 98.6433 41.8952C97.7029 41.3197 96.4197 41.8067 96.0214 42.8082L91.9781 40.1134L79.1345 29.7162C76.7561 27.7905 75.9983 24.4262 72.1817 23.397L74.6763 26.4238C79.1456 31.8465 83.5374 37.0756 89.3286 41.1648L103.157 50.9423L104.291 52.7573L90.5731 48.7788C88.6759 48.2254 86.8008 46.6263 85.5729 45.3978L82.0108 45.6026C77.8126 43.0572 73.7858 40.1577 70.5666 36.1405L66.4846 31.0553L66.0255 31.4703C71.8167 40.3292 79.66 48.076 89.8873 51.2135C91.1152 51.5897 92.7469 52.6466 93.8311 53.377L93.4052 53.8363L82.3427 49.2878C81.9278 49.1163 80.2574 49.2712 80.3127 49.6807C80.368 50.0902 80.5893 50.9589 80.8216 51.3297L81.6126 52.6024C81.784 52.879 81.0539 53.4213 80.7275 53.3715L79.3447 53.1668C67.187 47.8326 58.1711 37.9112 53.193 24.6974C52.1476 34.4306 55.8037 43.5663 60.4113 51.6728L62.3638 55.1145C60.815 55.4631 58.8072 56.2599 57.3635 57.1176L56.1356 57.5769L52.9939 54.2347C48.1042 47.7385 46.5002 39.9032 45.2833 32.2007L44.7246 42.764C44.5864 45.4255 44.9901 47.7274 44.2379 50.0957C41.8705 41.5466 42.3739 33.4567 43.9945 24.7361C42.4624 27.0933 41.4114 29.8379 40.8749 32.4165C40.0618 32.6267 38.3582 33.7888 37.9876 34.5247L34.254 41.945L30.1719 51.2301L27.6829 59.829C26.8974 62.5459 26.1507 65.0415 28.3521 67.36C28.9274 67.9908 26.5324 69.2801 25.9129 69.85C23.7114 74.653 25.6418 80.0591 21.7533 85.4321L20.8186 80.8062L20.7577 76.5399L20.8628 72.0357L21.4934 73.4135C21.5874 73.6127 21.7312 73.5906 21.7423 73.3693L21.864 71.2887C21.8916 70.8017 20.4922 70.9235 20.094 70.9788C19.7068 64.7205 19.8838 58.6946 20.5365 52.0435C19.0983 56.7303 17.9534 61.6771 18.0419 66.5133L17.4445 74.8135C17.439 75.2617 16.034 75.721 15.3648 75.7597L14.7508 86.2123C14.5959 88.8517 14.4687 91.469 12.6157 93.2342L13.0472 88.8905C13.0472 88.8905 12.6545 82.6045 12.8149 82.7207L11.3657 81.7358V72.2349C11.3601 71.925 10.9453 70.6911 10.7462 70.9899C10.182 59.7626 10.9287 48.7068 15.6524 38.2431C21.4326 25.4499 31.3224 15.4344 44.6748 10.8362C45.9692 10.388 48.4029 10.5374 49.6364 10.471C52.6565 8.78326 56.3569 6.17149 60.002 5.18101C74.6542 1.20802 89.1682 4.29014 101.569 12.9112C113.168 20.9734 120.835 32.4718 126.847 45.2319C130.149 52.2482 133.761 58.6725 135.564 65.9268L135.548 65.9213ZM92.8023 17.9355C84.4224 10.9911 72.8842 6.50904 61.5175 9.11528L68.3597 9.58561C77.2207 10.1998 85.0917 13.9349 92.2491 18.4169L92.8023 17.93V17.9355ZM34.4808 25.129L33.5073 24.6033C29.829 29.943 25.3763 35.6258 23.9437 42.4596C27.4174 36.4448 30.1553 30.9003 34.4863 25.1234L34.4808 25.129ZM66.1306 30.6458C65.3064 29.8047 64.9137 29.932 65.7212 30.9999L66.1306 30.6458ZM111.21 36.6329L110.895 36.9483L111.703 37.8447L112.173 37.4021L111.21 36.6274V36.6329ZM21.6483 50.7653C21.6483 50.4277 21.3717 50.1511 21.0343 50.1511C20.6969 50.1511 20.4203 50.4277 20.4203 50.7653C20.4203 51.1028 20.6969 51.3795 21.0343 51.3795C21.3717 51.3795 21.6483 51.1028 21.6483 50.7653Z" fill="#242424"/>
<path d="M135.548 65.9214L142.052 83.1525L141.743 86.2844C140.133 84.6022 139.375 83.6616 139.027 82.1067C137.898 79.5779 136.87 77.4088 134.862 74.8247C134.546 81.6363 135.747 88.7025 139.735 94.1308L141.925 97.1133C146.262 92.0336 139.917 89.1562 143.358 86.4117L147.468 98.0263C146.76 98.0097 147.075 98.2255 147.595 98.5852L148.69 103.029C147.755 103.217 146.417 102.829 146.234 102.221C146.123 101.689 146.101 101.07 145.863 101.031L144.879 100.859C144.525 100.799 144.337 102.398 144.597 102.663L149.619 107.815L149.022 104.323C150.919 107.533 153.148 110.703 156.92 112.053C156.163 113.359 154.548 113.924 152.695 113.376L148.48 110.997C148.209 110.847 148.535 112.33 148.778 112.197C149.066 112.042 148.264 112.48 147.888 112.629C144.978 109.298 142.401 105.358 140.144 101.512L140.764 101.131C140.924 101.009 140.692 100.184 140.564 100.334L140.034 100.948L135.266 91.7237C135.514 99.808 139.414 106.93 144.226 113.016C146.483 115.866 147.927 117.952 148.961 121.654C151.5 130.723 152.175 140.838 146.981 149.21C145.172 152.126 138.346 158.086 134.624 157.378C143.518 150.5 144.718 132.527 140.376 121.438L134.32 105.967C134.447 112.513 137.384 117.587 138.568 123.563C139.751 129.539 140.487 135.521 138.595 141.353C134.176 154.982 114.916 161.882 125.984 173.026C120.63 174.066 114.839 173.026 111.111 168.948C105.878 163.226 107.56 153.549 113.76 148.369C117.92 144.894 121.581 142.211 123.849 136.849C126.499 130.59 127.544 123.043 126.847 116.513C126.537 113.597 129.026 112.546 128.158 112.264L126.366 111.683L128.263 104.218L129.441 98.718L130.437 92.9964C131.344 87.7895 132.815 82.3225 131.737 76.6729C129.508 65.0195 124.435 54.2072 117.92 44.6067L119.175 43.1902L123.113 48.8343C123.661 49.6145 123.915 50.201 124.861 50.8595L132.411 68.7712L133.313 64.9974C133.385 64.7041 134.121 64.8646 134.154 65.1523L134.408 67.1499L135.548 65.938V65.9214ZM129.441 64.8812V65.2408L129.436 65.6116V65.9712L129.447 65.6116V65.2408V64.8812H129.441ZM134.972 73.2587C134.425 72.3679 133.96 71.7371 133.905 71.9695L133.523 73.6405C133.684 74.537 134.729 74.2216 134.972 73.2587ZM139.165 79.0578C139.27 79.4174 139.945 80.6569 140.006 80.3249L140.271 78.9526C140.31 78.7368 139.104 78.853 139.165 79.0578ZM116.255 157.566L121.991 146.422C114.324 152.779 111.088 167.426 119.463 171.881C116.061 167.128 114.905 162.972 116.249 157.56L116.255 157.566Z" fill="#202020"/>
<path d="M99.4562 149.111C96.3255 153.952 93.7203 159.281 94.2734 165.606C83.1445 165.844 72.2258 164.488 61.4841 162.015L58.2539 150.168C58.1654 149.968 58.8513 148.613 59.2772 148.673L61.1578 148.934L74.3775 151.18L79.0791 151.59C77.6243 150.71 76.3798 150.278 74.8864 150.057L75.4782 149.238C73.4704 146.206 73.5146 141.757 76.2802 139.023L85.4842 139.173C93.6926 139.305 99.7272 129.257 100.081 134.729L100.734 144.778C100.131 145.287 99.08 146.172 98.9749 146.759C98.8698 147.345 99.1907 148.358 99.4507 149.105L99.4562 149.111ZM79.8866 151.601C81.9166 156.166 88.8085 154.777 91.9945 153.089C92.7855 149.42 87.8572 156.852 79.8866 151.601Z" fill="#FDFDFD"/>
<path d="M36.7483 40.9656L35.974 41.2423C35.7859 41.3087 35.7693 41.4249 35.9518 41.4913L36.7262 41.7514C32.2791 50.6436 30.1717 60.6535 29.696 70.9789C29.342 78.626 28.2634 85.6535 26.1173 93.0516C23.5785 100.3 23.2134 108.008 27.4337 114.792C28.0256 114.715 28.7834 113.863 28.5068 113.536L27.4061 112.219C26.5653 108.479 26.5598 103.72 27.1959 99.5921C28.7225 101.8 27.8154 104.456 28.3298 106.487C29.7679 112.147 31.6153 117.078 34.9839 121.471L41.9809 130.596L38.2529 129.727C44.2875 134.508 48.0432 142.542 43.4688 149.083L41.1015 152.469C37.1743 154.389 31.0844 157.018 26.9912 154.052C28.6893 153.371 30.9074 152.752 31.7868 151.828C32.5833 150.986 32.8046 147.91 32.268 146.87C28.2247 138.996 20.6524 140.119 15.3037 129.699L16.0338 129.589L16.6644 129.218C17.5494 128.698 18.9543 130.114 19.6457 131.299L21.0396 133.678C21.4268 134.342 24.3916 134.154 24.1537 133.401L20.9677 125.732L22.8262 126.025L24.032 125.682C24.4247 126.374 25.8573 127.071 26.4437 127.281L27.6107 128.786C28.186 130.601 30.3598 132.82 31.6762 134.729C34.8677 137.8 35.8744 141.613 36.7926 145.94C38.5349 135.803 29.696 129.08 26.1339 119.712L25.8684 118.085C27.4835 119.662 30.2049 122.03 32.268 122.672C32.8101 122.772 32.8986 120.674 32.3621 120.519L29.8896 119.817C26.9083 118.97 26.0177 114.787 23.8661 111.727L24.3805 116.425L23.6227 116.397L22.4999 111.854L21.8582 109.265L23.418 109.525C24.9723 109.785 20.1435 102.735 20.3316 96.5155L20.8128 80.8228L21.7476 85.4487C25.6361 80.0758 23.7057 74.6696 25.9071 69.8666C26.5266 69.2967 28.9216 68.0074 28.3464 67.3766C26.1449 65.0636 26.8917 62.5681 27.6771 59.8456L30.1662 51.2467L34.2482 41.9616L37.9818 34.5413C38.3524 33.7999 40.056 32.6434 40.8691 32.4331C40.3492 34.9508 39.9122 36.965 38.181 39.1617L36.7373 40.9878L36.7483 40.9656ZM35.88 133.894C39.3093 140.163 40.7972 146.211 37.3181 152.375C42.1469 151.65 41.9699 137.098 35.88 133.894Z" fill="#191919"/>
<path d="M21.2222 118.074C21.5043 120.331 23.0143 123.851 24.0321 125.655L22.8263 125.998L20.9678 125.704L24.1538 133.374C24.3916 134.126 21.4269 134.32 21.0397 133.65L19.6458 131.271C18.9544 130.087 17.5495 128.67 16.6645 129.19L16.6479 129.594L16.5207 130.524C16.3049 130.048 16.0892 129.561 16.0339 129.561L15.3038 129.672C11.183 121.643 10.6188 107.45 10.6022 96.9472L10.5801 84.1429L10.735 70.9734C10.9396 70.6745 11.3489 71.9085 11.3489 72.2184V81.7192L12.8037 82.7042C12.6377 82.5935 13.0304 88.8961 13.036 88.8739L12.6045 93.2177C14.4575 91.4525 14.5847 88.8407 14.7396 86.1958L15.3535 75.7432C16.0228 75.6989 17.4278 75.2451 17.4333 74.7969L18.0307 66.4968L18.357 84.2314L18.003 99.2325C17.9477 101.485 19.513 104.417 19.7785 106.559L21.2167 118.074H21.2222Z" fill="#1E1E1E"/>
<path d="M122.981 107.815L125.215 116.508C126.598 123.956 124.59 132.566 120.099 138.758L112.864 145.94L104.965 154.019C100.496 158.589 99.1023 163.746 100.275 170.348C98.5823 168.516 97.819 167.332 96.8179 165.777C97.6365 153.471 104.551 148.983 110.353 140.888C115.729 133.385 118.639 125.118 119.214 116.026C122.665 114.178 122.184 110.753 122.101 106.459L122.494 107.123L122.986 107.82L122.981 107.815Z" fill="#1D1D1D"/>
<path d="M54.3047 144.33L53.2316 144.263C54.5481 139.422 51.1961 133.031 49.4206 132.887C49.05 132.859 48.6739 133.794 49.0223 134.171C51.8543 137.225 50.8477 141.818 51.6552 144.95C51.7603 145.348 50.3498 145.675 50.1728 145.398C50.4052 140.539 47.2358 134.547 43.9613 131.05C43.8285 129.949 43.4635 128.466 42.8605 127.536L37.7441 119.662L41.5994 119.584C42.5563 120.52 44.2267 122.241 45.4989 123.109L51.7603 127.403C59.2275 130.723 70.1849 132.394 70.3398 133.584L70.7104 136.395C71.3852 141.475 63.6802 142.188 57.6456 143.511L54.8744 144.114L54.2992 144.33H54.3047ZM54.2438 143.815C54.2106 144.418 54.2494 143.705 54.2826 143.135L54.2438 143.815Z" fill="#0C0C0C"/>
<path d="M99.4562 149.111C99.1963 148.358 98.881 147.351 98.9805 146.765C99.0801 146.178 100.131 145.293 100.739 144.784L100.087 134.735C99.7328 129.262 93.6982 139.311 85.4898 139.178L76.2858 139.029C73.5202 141.757 73.4759 146.211 75.4838 149.244L74.8919 150.063L74.3775 151.186L61.1578 148.939L59.2772 148.679C58.8569 148.618 58.171 149.969 58.2539 150.173L57.3081 146.654L70.2457 143.351L70.3674 145.442C73.6363 141.785 73.5036 137.491 72.2203 133.031C86.7509 136.196 91.1096 133.689 101.663 124.376C101.956 129.81 103.527 139.366 105.657 139.405L107.399 139.438L99.4507 149.111H99.4562Z" fill="#EEEEEE"/>
<path d="M126.543 67.4929C128.042 72.5449 129.939 77.9787 129.308 83.7279C128.971 86.8211 127.909 91.1925 128.08 93.9149C128.169 94.5623 130.569 93.5221 130.431 92.9853L129.436 98.7069L128.257 104.207L126.36 111.672L128.152 112.253C129.021 112.535 126.532 113.586 126.841 116.502L124.629 103.543L125.763 105.895L125.829 99.1772H124.834L124.651 103.111C124.347 98.8784 123.91 94.0035 124.673 89.5933C126.089 81.4316 125.663 73.5575 120.724 66.6352L112.853 58.4679C112.211 55.3637 110.342 52.8791 108.085 50.4887L96.0212 42.8028C96.4195 41.8013 97.7027 41.3088 98.643 41.8898C99.5834 42.4708 99.6774 43.2233 99.6221 44.6565L101.248 43.4336L110.126 49.1718L115.679 54.6C118.733 57.5825 120.685 60.9137 123.008 64.6266L124.994 67.7972L125.597 68.7766C125.713 68.9592 126.272 68.6383 126.288 68.4225L126.537 67.4874L126.543 67.4929ZM101.237 44.9553L100.961 45.232L101.237 45.5584L101.514 45.232L101.237 44.9553Z" fill="#191919"/>
<path d="M114.518 110.006L116.73 106.979L116.642 110.952C116.509 116.978 115.962 122.766 113.367 128.493L110.314 135.216C110.043 135.814 109.009 136.738 108.4 136.943C107.792 137.147 106.188 136.14 106.077 135.443L104.578 125.909C104.241 123.762 103.82 121.931 105.225 120.564L108.942 116.945L109.025 115.75L110.286 115.318L114.015 110.393L114.512 110L114.518 110.006Z" fill="#0B0B0B"/>
<path d="M48.3917 64.9198C44.3152 63.4756 39.6191 65.5451 36.2285 68.1071L33.0259 70.3979C34.11 60.9469 35.2826 51.208 40.0008 42.4763C40.4212 51.2357 42.8051 58.9382 48.3917 64.9143V64.9198Z" fill="#FBFBFB"/>
<path d="M19.0318 140.108C16.5594 141.574 13.6223 140.882 11.0724 139.134C1.01654 132.245 4.58973 115.656 7.75914 104.035C7.72042 112.546 8.26801 120.436 10.9009 128.333C12.6819 132.804 15.337 136.572 19.0318 140.102V140.108Z" fill="#FAFAFA"/>
<path d="M103.157 50.9367C105.519 52.6078 107.449 53.969 109.684 56.9128L102.598 56.7302C96.5303 56.5753 90.5344 56.3152 84.9865 55.2749C85.1469 54.2402 85.0308 54.3176 84.7598 54.373L83.4544 54.6994L79.3391 53.1556L80.7219 53.3604C81.0427 53.4102 81.7784 52.8679 81.6069 52.5912L80.816 51.3185C80.5837 50.9478 80.3624 50.079 80.3071 49.6696C80.2518 49.2601 81.9222 49.1107 82.3371 49.2767L93.3996 53.8252L93.8255 53.3659C92.7413 52.6355 91.1151 51.5786 89.8817 51.2023C89.6328 48.1092 86.7455 48.4688 82.0052 45.5915L85.5673 45.3867C86.7952 46.6151 88.6704 48.2143 90.5676 48.7676L104.285 52.7461L103.151 50.9312L103.157 50.9367Z" fill="#151515"/>
<path d="M58.0769 161.179C52.7724 159.729 47.8551 157.356 43.5961 155.037C43.5352 154.628 44.0718 153.499 44.4755 153.554L46.7876 153.881C51.0024 154.473 51.6274 146.327 54.4926 146.825L58.0769 161.185V161.179Z" fill="#F9F9F9"/>
<path d="M58.1323 40.6281L58.9731 40.5063C62.3914 46.8144 68.1383 51.4293 74.7869 54.528L80.1688 57.0402C77.6189 60.1334 73.7304 60.482 70.7325 57.9587C64.709 53.6648 60.7375 47.318 58.1379 40.6336L58.1323 40.6281Z" fill="#F9F9F9"/>
<path d="M142.047 83.1523L143.352 86.417C139.912 89.1616 146.262 92.0335 141.92 97.1187L139.729 94.1362C135.736 88.7079 134.535 81.6417 134.856 74.8301C136.859 77.4142 137.893 79.5833 139.021 82.112C139.37 83.6669 140.127 84.6076 141.737 86.2898L142.047 83.1579V83.1523Z" fill="#242424"/>
<path d="M122.981 107.815L122.488 107.118L122.096 106.454C122.179 110.747 122.66 114.173 119.208 116.021L119.02 107.156L117.543 105.38L119.236 100.107C119.977 97.7938 120.331 95.6357 120.525 93.118L120.647 91.5798C120.663 91.3529 121.83 91.6572 121.924 91.8121L122.986 107.815H122.981Z" fill="#101010"/>
<path d="M59.0449 59.2148C58.9011 59.1816 58.3314 59.0543 58.2761 59.3697L56.1355 57.5714L57.3634 57.1121C58.8071 56.26 60.8149 55.4576 62.3637 55.109L60.4111 51.6672C62.9942 55.1754 65.9313 58.1081 69.6539 61.063C65.1514 62.3688 59.0173 59.6741 58.9951 60.0836L59.0449 59.2148Z" fill="#161616"/>
<path d="M147.888 112.623C148.264 112.474 149.066 112.037 148.778 112.192C148.53 112.325 148.209 110.842 148.48 110.991L152.695 113.37C154.548 113.918 156.157 113.354 156.92 112.048C158.419 111.622 159.681 110.869 161.688 109.541C161.052 112.662 158.469 115.058 155.82 115.661C152.247 116.475 150.029 115.069 147.888 112.629V112.623Z" fill="#151515"/>
<path d="M38.773 116.22L34.5139 115.888L30.7361 103.98L38.773 116.22Z" fill="#EFEFEF"/>
<path d="M48.3916 64.9199L48.0598 66.6518C43.3582 66.5743 39.8458 67.6589 35.9961 69.6399L32.9429 70.9457L33.0314 70.4035L36.2339 68.1126C39.6246 65.5507 44.3206 63.4812 48.3972 64.9254L48.3916 64.9199Z" fill="#131313"/>
<path d="M115.541 71.9141L114.435 74.4871C113.401 67.7862 108.71 64.278 109.125 61.052C113.793 63.3484 115.082 67.3269 115.541 71.9141Z" fill="#E9E9E9"/>
<path d="M119.607 77.7351C119.535 76.7889 119.916 74.8522 120.392 74.2712C122.04 79.9651 124.137 87.3965 120.414 88.5696L119.607 77.7351Z" fill="#EDEDED"/>
<path d="M148.69 103.028L149.022 104.318L149.619 107.809L144.597 102.658C144.337 102.392 144.525 100.793 144.879 100.854L145.863 101.025C146.101 101.064 146.123 101.684 146.234 102.215C146.417 102.824 147.755 103.211 148.69 103.023V103.028Z" fill="#242424"/>
<path d="M104.855 159.558L105.214 165.329L102.1 165.252C102.792 162.85 103.582 160.587 104.584 158.789L104.855 159.558Z" fill="#D7D7D7"/>
<path d="M124.629 103.543L124.651 103.111L124.834 99.1716L125.829 99.1772L125.763 105.895L124.629 103.543Z" fill="#202020"/>
<path d="M120.392 74.2711C119.916 74.8521 119.535 76.7888 119.607 77.735L119.28 71.9692C119.728 72.7882 120.221 73.6846 120.392 74.2656V74.2711Z" fill="#C0C0C0"/>
<path d="M131.366 157.034L134.419 153.963L134.9 154.423L132.229 157.328L131.366 157.034Z" fill="#494949"/>
<path d="M136.195 151.933L137.428 148.497C137.904 149.437 138.192 150.334 137.827 150.621L136.195 151.933Z" fill="#272727"/>
<path d="M139.729 65.6446L138.966 66.0596L137.417 62.5127L139.729 65.6446Z" fill="#AEAEAE"/>
<path d="M45.781 151.689L47.02 148.336C47.5621 149.138 47.7944 149.653 47.5344 149.918L45.781 151.689Z" fill="#919191"/>
<path d="M47.9161 51.5732L47.1583 52.2206L46.2014 48.7622L47.9161 51.5732Z" fill="#828282"/>
<path d="M154.094 124.742L153.386 125.018L152.589 124.133C152.418 123.939 152.789 123.419 152.96 123.17C153.104 122.971 153.491 123.441 153.596 123.674L154.088 124.742H154.094Z" fill="#B1B1B1"/>
<path d="M135.293 152.408C135.382 152.226 135.99 152.989 135.835 153.111L134.873 153.886C134.635 154.074 135.066 152.868 135.293 152.408Z" fill="#4E4E4E"/>
<path d="M58.9675 40.5065L58.1267 40.6282L57.8391 39.6267C57.7672 39.3777 58.442 39.7927 58.6079 39.9863L58.9619 40.501L58.9675 40.5065Z" fill="#BABABA"/>
<path d="M84.9865 55.2751L83.4543 54.7052L84.7597 54.3787C85.0308 54.3178 85.1469 54.2459 84.9865 55.2806V55.2751Z" fill="#242424"/>
<path d="M36.7485 40.9656L36.7264 41.7513L35.952 41.4912C35.7695 41.4304 35.7861 41.3142 35.9742 41.2422L36.7485 40.9656Z" fill="#242424"/>
<path d="M140.144 101.507L140.033 100.942L140.564 100.328C140.692 100.179 140.924 101.003 140.764 101.125L140.144 101.507Z" fill="#242424"/>
<path d="M104.855 159.558L104.584 158.789L105.181 158.423C105.33 158.329 105.463 159.076 105.342 159.209L104.849 159.558H104.855Z" fill="#8E8E8E"/>
<path d="M59.0449 59.2148L58.2761 59.3698C58.3314 59.0544 58.9011 59.1816 59.0449 59.2148Z" fill="#242424"/>
<path d="M147.595 98.5852C147.075 98.231 146.754 98.0152 147.467 98.0263L147.595 98.5852Z" fill="#242424"/>
<path d="M96.0545 63.9071C100.734 67.1995 102.548 74.0886 98.8699 77.5304C96.4914 79.7604 92.4426 80.3248 89.8982 78.2442C86.9998 75.8704 86.3416 72.7219 86.1757 68.937L84.0904 72.3677C83.5926 64.87 92.5643 58.9603 99.1631 60.6646L103.97 61.904C104.351 62.0811 104.495 63.4866 104.932 63.5253L107.089 63.7079L105.546 69.3465C103.223 65.462 100.59 63.3372 96.049 63.9071H96.0545Z" fill="#070707"/>
<path d="M41.9201 82.8647L42.7498 80.7786L41.2951 81.8797C38.3359 84.1207 37.0028 87.3744 37.8049 91.1703L32.6055 87.9277C34.7627 87.1143 35.8247 85.4211 35.7085 83.4291C38.0648 79.8489 41.1623 77.4917 44.7521 76.8166C48.5742 76.0973 53.0656 77.5304 55.3168 80.4908L55.7814 83.9769C56.0967 86.3341 56.5558 89.1451 55.0568 90.9268C53.8731 92.3378 51.2237 94.1141 48.7125 93.8706C43.8892 93.4058 40.8194 87.6511 41.9256 82.8647H41.9201ZM44.1603 83.7721V85.3215C44.1547 85.5152 44.5972 85.0061 44.7964 84.7737C44.9236 84.6243 44.9568 84.5523 44.8572 84.3642C44.7632 84.1982 44.1658 83.5785 44.1658 83.7721H44.1603Z" fill="#080808"/>
<path d="M69.9803 111.688L69.0345 110.958C68.78 110.759 68.9128 109.729 69.228 109.785L70.7934 110.056C77.547 111.223 84.5275 108.451 89.3618 103.703L89.926 102.757C90.0421 102.558 90.7723 102.292 90.811 102.525L91.0488 104.102C86.0818 110.808 78.3159 113.619 69.9858 111.688H69.9803Z" fill="#0B0B0B"/>
<path d="M85.1966 114.482C83.6202 117.542 80.4508 117.454 78.5757 115.81L85.1966 114.482Z" fill="#272727"/>
<path d="M85.3459 63.5474L83.2385 65.5229L83.9576 63.7522C84.1235 63.3482 85.5063 63.2818 85.3459 63.5419V63.5474Z" fill="#686868"/>
<path d="M72.4029 96.9418C73.2547 96.82 73.9185 96.809 74.2172 96.892C74.5159 96.975 73.8632 97.6058 73.5479 97.5836C73.133 97.556 72.0047 97.0026 72.3974 96.9473L72.4029 96.9418Z" fill="#303030"/>
<path d="M78.4929 95.6027C78.2938 95.3205 80.9432 95.0659 80.3071 95.7244L79.6102 96.4493C79.3834 96.6872 78.7031 95.907 78.4929 95.6027Z" fill="#191919"/>
<path d="M41.9203 82.8647L41.3008 81.8797L42.75 80.7786L41.9203 82.8647Z" fill="#8B8B8B"/>
<path d="M117.914 44.5901C124.43 54.1905 129.502 65.0028 131.731 76.6562C132.815 82.3058 131.338 87.7728 130.431 92.9798C130.57 93.5165 128.163 94.5568 128.08 93.9094C127.909 91.1869 128.971 86.8155 129.308 83.7224C129.939 77.9732 128.042 72.5393 126.543 67.4873L125.785 64.9254L124.795 63.1547C121.83 54.2182 117.571 45.6082 111.852 38.1879C111.802 38.1271 111.741 37.9223 111.708 37.8448L110.9 36.9484L110.491 36.4947L110.779 36.2844L111.216 36.633L112.178 37.4077L112.582 37.7729L117.925 44.5901H117.914Z" fill="#020202"/>
<path d="M20.0828 70.9677L20.7521 76.5288L20.8129 80.7951L20.3317 96.4878C20.1437 102.707 24.9724 109.757 23.4182 109.497L21.8584 109.237L22.5 111.826L21.2278 118.074L19.7897 106.559C19.5242 104.412 17.9588 101.484 18.0141 99.2324L18.3681 84.2313L18.0418 66.4967C17.9533 61.6605 19.0982 56.7137 20.5364 52.0269C19.8837 58.6835 19.7067 64.7039 20.0939 70.9622L20.0828 70.9677Z" fill="#020202"/>
<path d="M82.0108 45.5972C86.7511 48.4745 89.6384 48.1204 89.8873 51.208C79.66 48.0706 71.8167 40.3238 66.0255 31.4648L65.7212 31C64.9137 29.9321 65.3009 29.8048 66.1306 30.6459L66.4845 31.0498L70.5666 36.135C73.7913 40.1523 77.8181 43.0463 82.0108 45.5972Z" fill="#070707"/>
<path d="M34.4805 25.129C30.1496 30.9059 27.4171 36.4504 23.938 42.4652C25.3706 35.6314 29.8232 29.9431 33.5015 24.6089L34.475 25.1346L34.4805 25.129Z" fill="#101010"/>
<path d="M20.7464 76.5289L20.0771 70.9679C20.4754 70.907 21.8748 70.7908 21.8471 71.2777L21.7255 73.3583C21.7144 73.5852 21.5706 73.6018 21.4765 73.4026L20.846 72.0247L20.7409 76.5289H20.7464Z" fill="#191919"/>
<path d="M21.0341 51.3795C21.3732 51.3795 21.6481 51.1045 21.6481 50.7653C21.6481 50.4261 21.3732 50.1511 21.0341 50.1511C20.695 50.1511 20.4202 50.4261 20.4202 50.7653C20.4202 51.1045 20.695 51.3795 21.0341 51.3795Z" fill="#020202"/>
<path d="M92.249 18.417C85.0915 13.935 77.215 10.1999 68.3595 9.58571L61.5173 9.11538C72.8841 6.50914 84.4222 10.9912 92.8021 17.9356L93.1948 18.4834L92.7744 18.8265L92.2434 18.417H92.249Z" fill="#050505"/>
<path d="M116.255 157.566C114.911 162.972 116.061 167.133 119.468 171.886C111.094 167.432 114.33 152.779 121.996 146.427L116.26 157.571L116.255 157.566Z" fill="#020202"/>
<path d="M134.972 73.2587C134.729 74.2215 133.684 74.537 133.523 73.6405L133.905 71.9695C133.96 71.7371 134.425 72.3623 134.972 73.2587Z" fill="#242424"/>
<path d="M139.165 79.0576C139.104 78.8529 140.31 78.7367 140.271 78.9525L140.006 80.3248C139.945 80.6512 139.27 79.4173 139.165 79.0576Z" fill="#242424"/>
<path d="M129.441 64.8811L129.447 65.2408V65.617L129.441 65.9767L129.436 65.617V65.2408L129.441 64.8811Z" fill="#242424"/>
<path d="M79.8867 151.601C87.8573 156.852 92.7856 149.42 91.9946 153.089C88.8086 154.777 81.9167 156.166 79.8867 151.601Z" fill="#282828"/>
<path d="M74.3774 151.186L74.8918 150.062C76.3853 150.289 77.6243 150.721 79.0845 151.595L74.383 151.186H74.3774Z" fill="#B9B9B9"/>
<path d="M26.1284 119.689L24.8119 119.905L27.6108 128.759L26.4437 127.254C25.8574 127.043 24.4192 126.346 24.032 125.654C23.0143 123.851 21.5043 120.331 21.2222 118.074L22.4943 111.826L23.6172 116.369L24.375 116.397L23.8606 111.699C26.0122 114.754 26.9027 118.937 29.8841 119.789L32.3565 120.492C32.8931 120.647 32.8101 122.744 32.2625 122.644C30.1938 122.002 27.478 119.634 25.8629 118.057L26.1284 119.684V119.689Z" fill="#0F0F0F"/>
<path d="M26.1284 119.689C29.6905 129.052 38.5349 135.781 36.7871 145.918C35.8689 141.585 34.8677 137.773 31.6707 134.707C30.3598 132.798 28.1805 130.579 27.6052 128.764L24.8064 119.911L26.1228 119.695L26.1284 119.689Z" fill="#020202"/>
<path d="M35.8801 133.894C41.97 137.098 42.147 151.651 37.3182 152.375C40.7974 146.211 39.3095 140.163 35.8801 133.894Z" fill="#060606"/>
<path d="M101.237 44.9553L101.514 45.232L101.237 45.5585L100.961 45.232L101.237 44.9553Z" fill="#242424"/>
<path d="M44.1602 83.7722C44.1602 83.5785 44.7631 84.1928 44.8516 84.3643C44.9512 84.5469 44.918 84.6188 44.7908 84.7738C44.5917 85.0117 44.1492 85.5208 44.1492 85.3216V83.7722H44.1602Z" fill="#B6B6B6"/>
</svg>
