<svg width="39" height="37" viewBox="0 0 39 37" fill="none" xmlns="http://www.w3.org/2000/svg">
<path d="M18.0307 15.365C20.2075 15.3632 21.9703 13.6028 21.972 11.4327C21.7875 6.22777 14.2723 6.22955 14.0897 11.4327C14.0914 13.6028 15.8556 15.3632 18.0307 15.365ZM18.0307 8.88942C19.4297 8.90157 20.5573 10.037 20.5573 11.4328C20.5573 12.8287 19.4298 13.9641 18.0307 13.9763C16.6318 13.9641 15.5042 12.8287 15.5042 11.4328C15.5042 10.037 16.6317 8.9016 18.0307 8.88942Z" fill="black"/>
<path d="M18.0308 21.1721C15.8557 21.1739 14.0912 22.9343 14.0895 25.1044C14.274 30.3093 21.7892 30.3075 21.9718 25.1044C21.9701 22.9343 20.2076 21.1739 18.0308 21.1721ZM18.0308 27.6477C16.6318 27.6355 15.5042 26.5001 15.5042 25.1043C15.5042 23.7084 16.6317 22.573 18.0308 22.5608C19.4298 22.573 20.5573 23.7084 20.5573 25.1043C20.5573 26.5001 19.4298 27.6355 18.0308 27.6477Z" fill="black"/>
<path d="M10.9226 14.3352C8.74757 14.3387 6.98312 16.0973 6.98138 18.2692C7.16583 23.4741 14.6811 23.4724 14.8637 18.2692H14.8654C14.862 16.0974 13.0995 14.3387 10.9226 14.3352ZM10.9226 20.8125C9.52364 20.8003 8.39606 19.6649 8.39606 18.2691C8.39606 16.8733 9.52359 15.7378 10.9226 15.7239C12.3216 15.7378 13.4492 16.8732 13.4492 18.2691C13.4492 19.6649 12.3217 20.8003 10.9226 20.8125Z" fill="black"/>
<path d="M15.8921 18.2885C15.906 19.4569 16.8596 20.3979 18.0307 20.3979C19.2017 20.3979 20.1553 19.4569 20.1692 18.2885C20.1553 17.1184 19.2017 16.1774 18.0307 16.1774C16.8596 16.1774 15.9061 17.1184 15.8921 18.2885ZM18.7772 18.2885C18.7719 18.6948 18.4396 19.0212 18.0307 19.0212C17.6235 19.0212 17.2911 18.6948 17.2842 18.2885C17.2911 17.8806 17.6235 17.5542 18.0307 17.5542C18.4396 17.5542 18.7719 17.8806 18.7772 18.2885Z" fill="black"/>
<path d="M38.29 17.9743L38.9721 12.2801C38.9947 12.0822 38.9321 11.886 38.7998 11.7384C38.6676 11.5891 38.4797 11.5041 38.2813 11.5023H38.2012V11.0683V11.07C38.196 7.79745 35.6747 5.07892 32.405 4.82025C32.5111 4.13274 32.1301 3.46087 31.4828 3.19874L28.0148 1.90883C27.6564 1.78209 27.2614 1.96438 27.1274 2.32029C26.9951 2.67619 27.1726 3.07375 27.5276 3.21091L31.0129 4.5234V4.82027C29.252 4.95916 27.632 5.83067 26.5481 7.22303C23.3621 4.76992 19.2712 3.80636 15.3213 4.57721C11.3731 5.34978 7.94862 7.78205 5.92492 11.2528C3.90122 14.725 3.47665 18.8968 4.75733 22.7043H0.696036C0.511591 22.7043 0.334104 22.7772 0.203586 22.9074C0.0730678 23.0376 0 23.2147 0 23.3988V31.5654C0 31.7495 0.0730812 31.9266 0.203586 32.0568C0.334091 32.187 0.511578 32.2599 0.696036 32.2599C0.81262 32.2286 18.6345 32.3068 18.7267 32.2391C21.5438 32.1019 24.253 31.1158 26.4977 29.4127L26.6891 31.0116C26.7743 31.7217 27.3799 32.2564 28.0968 32.2582H35.3234C36.0403 32.2564 36.6441 31.7217 36.7311 31.0116C37.1174 27.8259 37.9022 21.1903 38.2902 17.9752L38.29 17.9743ZM36.0854 24.5575C33.2195 25.3283 30.1987 25.3283 27.3331 24.5575L26.6405 18.8263C28.2988 19.2343 29.9989 19.4426 31.7076 19.4461C33.4163 19.4426 35.1199 19.236 36.7782 18.8281L36.0854 24.5575ZM36.9571 17.3472C33.5223 18.2882 29.8958 18.2882 26.4613 17.3455L25.9219 12.8908H37.4966L36.9571 17.3472ZM25.464 20.7847V20.7865C24.794 20.8698 24.1154 20.684 23.5829 20.2674C23.0505 19.8524 22.7042 19.2413 22.6242 18.5712C22.5441 17.9011 22.7356 17.2257 23.1549 16.6979C23.576 16.1684 24.1902 15.8282 24.8619 15.7518L25.464 20.7847ZM31.013 6.2083V8.41839C31.0199 8.79859 31.3297 9.10416 31.709 9.10416C32.0901 9.10416 32.3998 8.79861 32.405 8.41839V6.2083C34.9055 6.46351 36.8056 8.56247 36.8091 11.0696V11.5037L26.6104 11.5019V11.0679V11.0696C26.6122 8.5627 28.5143 6.46385 31.013 6.2083ZM7.85292 30.8696L7.85466 29.3123C7.85466 28.9287 7.54319 28.6179 7.15864 28.6179C6.77408 28.6179 6.46261 28.9287 6.46261 29.3123V30.8679L4.43544 30.8696V26.1319C4.43022 25.7534 4.11875 25.4478 3.73942 25.4478C3.35834 25.4478 3.0486 25.7534 3.04339 26.1319V30.8679L1.39209 30.8696V24.0918H5.30372C6.65224 27.0554 8.99961 29.4527 11.937 30.8696L7.85292 30.8696ZM18.6012 30.8557C14.4721 31.0502 10.5118 29.2134 7.99898 25.9406C5.48462 22.668 4.73986 18.3731 6.00139 14.4477C7.26292 10.5207 10.3741 7.46152 14.3274 6.25841C18.2791 5.05356 22.5719 5.8591 25.817 8.41294C25.3681 9.37996 25.1627 10.439 25.2184 11.5015C25.0061 11.4824 24.7973 11.557 24.6477 11.7081C24.498 11.8591 24.4249 12.0674 24.4458 12.2793L24.6947 14.3626L24.6964 14.3609C23.6523 14.4772 22.6988 15.0032 22.0463 15.8244C21.3938 16.6439 21.0962 17.6907 21.2215 18.7307C21.345 19.7706 21.881 20.7168 22.7092 21.3609C23.5358 22.005 24.5885 22.2932 25.629 22.1595L26.3007 27.7706C24.1587 29.6404 21.4446 30.7273 18.6012 30.8557ZM28.0948 30.8679L27.5102 26.0381H27.5119C30.2699 26.7048 33.1478 26.7048 35.906 26.0381L35.3231 30.8679H28.0948Z" fill="black"/>
<path d="M2.72493 4.09032C3.23302 4.16671 3.71152 4.38025 4.10655 4.7101C4.47544 5.34899 4.68948 6.06601 4.72948 6.80383C4.79386 7.07814 5.05835 7.25521 5.33677 7.20835C5.61517 7.16321 5.80832 6.908 5.77874 6.62848C6.14763 4.53475 6.18069 4.50173 7.76761 4.08679V4.08853C8.01122 4.03992 8.18696 3.82985 8.19044 3.58333C8.19392 3.3368 8.02514 3.11977 7.78327 3.06595C7.29429 2.95484 6.82973 2.75519 6.41385 2.47568C6.12326 1.81075 5.90229 1.11631 5.75262 0.406263C5.69868 0.168414 5.48813 1.34424e-05 5.24453 1.34424e-05C5.00092 -0.001723 4.78866 0.164942 4.73124 0.401053C4.68078 1.11808 4.46327 1.81425 4.09611 2.4323C3.67675 2.73612 3.19999 2.95314 2.69364 3.06599C2.45873 3.13022 2.29691 3.34724 2.30387 3.5903C2.31083 3.83509 2.4848 4.0417 2.72493 4.09032ZM4.83563 3.16846C5.02356 2.97054 5.17494 2.7379 5.27934 2.48268C5.35939 2.73268 5.48293 2.96703 5.64302 3.17539C5.8031 3.31949 5.97885 3.44449 6.16852 3.54518C5.97015 3.65976 5.78745 3.79692 5.6256 3.95837C5.46203 4.12851 5.32805 4.32643 5.23235 4.54171C5.1349 4.33164 5.0044 4.13893 4.84432 3.97229C4.67901 3.80909 4.49108 3.66847 4.28923 3.55215C4.48586 3.44625 4.66857 3.31776 4.83563 3.16846Z" fill="black"/>
<path d="M26.4334 33.4983L25.7199 33.4966L26.2245 32.9931C26.4212 32.79 26.4177 32.4654 26.2176 32.264C26.0157 32.0643 25.6903 32.0609 25.485 32.257L24.9874 32.7536L24.9891 32.0505C24.9908 31.764 24.7577 31.5296 24.4688 31.5296C24.18 31.5279 23.9468 31.7605 23.945 32.0487L23.9433 32.7605C23.6197 32.4602 23.1881 31.7987 22.7009 32.2571C22.245 32.7432 22.8958 33.1651 23.1986 33.4897L22.4938 33.488C22.2067 33.488 21.9718 33.7206 21.9718 34.0088C21.9718 34.297 22.205 34.5297 22.4938 34.5297L23.2073 34.5314L22.7027 35.0349H22.7009C22.5565 35.1859 22.513 35.4081 22.593 35.6008C22.6731 35.7935 22.861 35.9203 23.0716 35.9237C23.3743 35.9654 23.738 35.4394 23.9398 35.2744L23.9381 35.9776H23.9364C23.9364 36.264 24.1695 36.4984 24.4566 36.4984C24.7455 36.5001 24.9804 36.2675 24.9804 35.9793L24.9822 35.2692C25.184 35.4324 25.5511 35.9654 25.8539 35.9237H25.8556C26.0645 35.9203 26.2524 35.7935 26.3324 35.6008C26.4125 35.4081 26.369 35.1859 26.2245 35.0349L25.7269 34.5383L26.4333 34.5401H26.4316C26.7169 34.5331 26.9431 34.3022 26.9449 34.0192C26.9449 33.7362 26.717 33.5035 26.4334 33.4983Z" fill="black"/>
</svg>
