<svg width="38" height="33" viewBox="0 0 38 33" fill="none" xmlns="http://www.w3.org/2000/svg">
<path d="M36.3554 20.827C36.5539 19.7698 36.6555 18.6845 36.6555 17.593C36.6555 16.1418 36.4773 14.6968 36.1242 13.2972C34.1523 5.4681 27.1116 0 19.0003 0C10.889 0 3.84684 5.46691 1.8764 13.2972C1.52327 14.6954 1.34516 16.1404 1.34516 17.593C1.34516 18.6845 1.44672 19.7697 1.64516 20.8285C0.47326 21.182 -0.229872 22.395 0.0685729 23.5923L1.44672 29.1354C1.59516 29.7348 1.97017 30.2409 2.50142 30.5585C2.86705 30.7781 3.27799 30.8917 3.6952 30.8917C3.8827 30.8917 4.0702 30.8684 4.25769 30.8232L5.48895 30.5196L5.72489 31.4663C5.85458 31.991 6.1827 32.4332 6.64678 32.7119C6.96554 32.9019 7.32492 33 7.689 33C7.85307 33 8.01713 32.9798 8.18121 32.9393L9.86876 32.5235L12.45 31.8867C13.9188 31.5239 14.8173 30.0384 14.4532 28.5748L11.8328 18.0352C11.6563 17.3268 11.2141 16.7288 10.5859 16.352C9.9578 15.9752 9.22183 15.8646 8.50934 16.039L5.92805 16.6759L5.07804 16.8861C5.12491 15.9534 5.26398 15.0301 5.49524 14.1316H6.04681C6.52026 14.1316 6.94683 13.8311 7.10619 13.3827C8.88746 8.37656 13.6671 5.01351 19 5.01351C24.3329 5.01351 29.1126 8.37676 30.8938 13.3811C31.0532 13.8295 31.4782 14.1316 31.9532 14.1316H32.5048C32.736 15.03 32.8751 15.9518 32.922 16.886L32.0719 16.6758L29.4907 16.039C28.7797 15.863 28.0422 15.9736 27.4141 16.352C26.7859 16.7288 26.3437 17.3267 26.1672 18.0352L23.5468 28.5748C23.1827 30.0384 24.0812 31.5238 25.55 31.8866L28.1312 32.5235L29.8204 32.9408C29.9829 32.9813 30.1469 33 30.3079 33C31.2188 33 32.0485 32.3834 32.2767 31.4647L32.5126 30.518L33.7439 30.8216C33.9298 30.8683 34.1189 30.8901 34.3064 30.8901C34.7236 30.8901 35.1329 30.778 35.5001 30.5569C36.0298 30.2408 36.4048 29.7348 36.5533 29.1353L37.9314 23.5923C38.2299 22.3949 37.5267 21.1819 36.3548 20.8269L36.3554 20.827ZM35.1289 20.0002C35.1039 20.1668 35.0757 20.3319 35.0461 20.4969L35.007 20.4876L35.0086 20.4813L35.1289 20.0002ZM2.9939 20.4876L2.95484 20.4969C2.92515 20.3319 2.89703 20.1653 2.87203 19.9987L2.9939 20.4876ZM3.93144 29.5184C3.41267 29.6461 2.8861 29.33 2.75642 28.8115L1.37828 23.2685C1.25015 22.7516 1.56734 22.2253 2.08609 22.0976L3.31735 21.794L5.16426 29.2148L3.93144 29.5184ZM7.85651 31.636C7.67994 31.6796 7.49713 31.6516 7.34242 31.5582C7.18617 31.4648 7.07679 31.3168 7.03304 31.1409L6.63616 29.5433L4.4658 20.8174L4.2908 20.1121L4.06892 19.2199C4.04548 19.1218 4.04391 19.0252 4.0611 18.9349C4.07517 18.8555 4.10329 18.7777 4.14548 18.706C4.16892 18.6671 4.19548 18.6329 4.22517 18.6002C4.22986 18.5939 4.23611 18.5893 4.24236 18.5846C4.26579 18.5597 4.29236 18.5363 4.31892 18.5161C4.34392 18.4974 4.37205 18.4818 4.40174 18.4663C4.41111 18.46 4.41892 18.4522 4.4283 18.4476C4.46736 18.4289 4.51111 18.4133 4.55487 18.4009C4.55955 18.4009 4.56268 18.3993 4.56737 18.3977L5.59706 18.1424L8.88776 31.3806L7.85651 31.636ZM8.83465 17.344C9.19559 17.2552 9.57058 17.3113 9.88935 17.5028C10.2081 17.6943 10.4331 17.9979 10.5222 18.3591L13.1441 28.8987C13.3285 29.643 12.8722 30.3966 12.1269 30.5819L10.1987 31.0568L6.90645 17.8203L8.83465 17.344ZM3.71096 17.3066C3.4172 17.4747 3.17031 17.7145 2.99062 18.0119C2.86093 18.2268 2.775 18.4588 2.73281 18.697C2.70781 18.3311 2.69531 17.9621 2.69531 17.5931C2.69531 16.4269 2.82031 15.2653 3.06563 14.1333L4.10628 14.1317C3.86409 15.1703 3.73127 16.2322 3.71096 17.3066ZM19.0004 3.6698C13.1487 3.6698 7.90023 7.32735 5.88779 12.788H3.41899C5.51435 6.00684 11.8019 1.34353 19.0005 1.34353C26.199 1.34353 32.4867 6.00684 34.5819 12.788H32.1131C30.1006 7.32743 24.8521 3.6698 19.0004 3.6698ZM34.9351 14.1317C35.182 15.2636 35.3054 16.4252 35.3054 17.5915C35.3054 17.9605 35.2929 18.3295 35.2679 18.697C35.2257 18.4587 35.1398 18.2267 35.0101 18.0118C34.8304 17.7144 34.5835 17.4746 34.2898 17.3065C34.2695 16.2321 34.1366 15.1686 33.8945 14.1317H34.9351ZM24.8569 28.8989L27.4789 18.3593C27.5679 17.9981 27.7929 17.6944 28.1117 17.5029C28.4304 17.3114 28.8054 17.2554 29.1664 17.3441L31.093 17.8206L27.8023 31.0571L25.8741 30.5807C25.1288 30.397 24.6726 29.6416 24.8569 28.8989ZM30.6586 31.5584C30.5039 31.6518 30.3196 31.6798 30.1445 31.6362L29.1117 31.3809L30.7571 24.762L32.404 18.1431L33.4337 18.3969C33.4384 18.4 33.4415 18.4016 33.4462 18.4031C33.4915 18.414 33.5337 18.4312 33.5727 18.4498C33.5821 18.4545 33.5899 18.4607 33.5993 18.4654C33.6274 18.481 33.6571 18.4966 33.6821 18.5168C33.7102 18.537 33.7352 18.5604 33.7587 18.5853C33.7649 18.5915 33.7712 18.5962 33.7759 18.6009C33.8056 18.6336 33.8321 18.6678 33.8556 18.7068C33.8978 18.7768 33.9243 18.8531 33.9399 18.931C33.9571 19.0228 33.9571 19.1209 33.9321 19.219L33.6915 20.1906L33.5352 20.8166V20.8181L32.4509 25.1809L30.968 31.1413C30.9243 31.3172 30.8149 31.4649 30.6586 31.5584ZM36.6227 23.2685L35.2446 28.8116C35.1821 29.0623 35.0258 29.274 34.8039 29.4079C34.5821 29.5403 34.3211 29.5808 34.0696 29.5185L32.8367 29.2133L34.6837 21.7924L35.9149 22.0976C36.1665 22.1599 36.379 22.3156 36.5118 22.5367C36.6462 22.7578 36.6852 23.0178 36.6227 23.2685Z" fill="black"/>
</svg>
