<svg width="45" height="23" viewBox="0 0 45 23" fill="none" xmlns="http://www.w3.org/2000/svg">
<path d="M11.131 22.9989L10.8098 22.2909L9.77 21.2917H7.78513V20.5007L9.21111 19.7097V18.2551L10.6389 17.1304L12.2358 17.6726L13.8326 18.8378L12.7166 16.7157L11.196 15.8418V14.7171L10.6389 13.6773L10.9397 11.4549L10.9453 11.4491L13.6246 13.9011L13.6524 13.8702L13.8957 15.2168L15.5092 15.9248L18.2999 18.6295L19.1168 21.0564L20.2959 21.3747L20.7099 20.2809L22.3216 20.8905L23.3001 22.999H24.507L23.9147 21.8319L23.1089 18.3189L24.0187 14.5107L23.1089 12.9732L24.3492 12.2903L26.6646 14.3449L27.5744 15.9518L27.2439 13.6793L24.845 9.84989L25.0529 8.18502H26.0036L27.5744 9.79394L27.1622 8.18502L25.8792 6.79988L25.259 4.46943L25.3407 2.74861L25.467 2.11389L32.1586 10.7817L31.9804 12.9694L33.0647 13.8433L34.0896 17.6534V21.1683L37.1829 22.999H38.3081V21.9978L37.3148 20.169L36.1989 18.9209L35.1442 16.5075L36.3214 15.759L37.2535 16.9859L37.0047 14.5938L36.3214 13.5945L36.2991 12.9173L43.6148 22.9991H45L36.1637 10.8224L32.7844 9.74396L25.2647 0L20.7955 5.58512L18.9908 6.1909L13.5654 12.2368L10.7877 9.69418L6.32222 16.348L6.05671 16.6663L4.66229 17.1872L0 23L11.131 22.9989Z" fill="black"/>
</svg>
