<svg width="39" height="22" viewBox="0 0 39 22" fill="none" xmlns="http://www.w3.org/2000/svg">
<path fill-rule="evenodd" clip-rule="evenodd" d="M3.04816 13.0472V7.74882L8.25989 9.37423V9.37686L19.6773 12.9391L31.0948 9.37686V9.37423L38.5636 7.04594C38.689 7.00876 38.7993 6.93147 38.878 6.82559C38.9566 6.71972 38.9994 6.59091 39 6.45837C39.0006 6.32583 38.9589 6.19664 38.8812 6.09005C38.8035 5.98347 38.6939 5.90518 38.5688 5.86686L19.8585 0.0276982C19.7415 -0.00923273 19.6162 -0.00923273 19.4992 0.0276982L0.793273 5.86335C0.667647 5.9005 0.557241 5.97785 0.478531 6.08384C0.399822 6.18984 0.35703 6.31879 0.356543 6.45147C0.356055 6.58414 0.397898 6.71342 0.475827 6.82C0.553755 6.92659 0.663591 7.00476 0.78894 7.04287L1.82886 7.36795V13.0472C1.42346 13.1442 1.0485 13.3427 0.738244 13.6244C0.506481 13.8285 0.320635 14.0806 0.193272 14.3638C0.0659098 14.6469 0 14.9545 0 15.2657C0 15.5769 0.0659098 15.8844 0.193272 16.1676C0.320635 16.4507 0.506481 16.7029 0.738244 16.9069C1.04866 17.1886 1.42378 17.3869 1.82929 17.4837V19.812C1.82712 19.8945 1.84128 19.9766 1.87093 20.0535C1.90058 20.1304 1.94512 20.2005 2.00193 20.2596C2.05874 20.3188 2.12665 20.3658 2.20168 20.3979C2.2767 20.43 2.3573 20.4466 2.43873 20.4466C2.52016 20.4466 2.60076 20.43 2.67578 20.3979C2.7508 20.3658 2.81872 20.3188 2.87553 20.2596C2.93233 20.2005 2.97687 20.1304 3.00653 20.0535C3.03618 19.9766 3.05033 19.8945 3.04816 19.812V17.4837C3.45353 17.3868 3.82848 17.1885 4.13878 16.9069C4.37048 16.7028 4.55627 16.4507 4.68359 16.1675C4.81091 15.8844 4.8768 15.5768 4.8768 15.2657C4.8768 14.9545 4.81091 14.6469 4.68359 14.3638C4.55627 14.0807 4.37048 13.8285 4.13878 13.6244C3.82852 13.3427 3.45356 13.1442 3.04816 13.0472ZM31.0948 10.6658V18.6944C31.0949 18.8004 31.068 18.9047 31.0167 18.997C30.9654 19.0894 30.8914 19.1667 30.8019 19.2216C29.3283 20.1903 27.6951 20.8828 25.9801 21.2661C23.9154 21.7635 21.7995 22.0098 19.6773 21.9997C17.555 22.01 15.4391 21.7642 13.3741 21.2674C11.6461 20.8818 10.0017 20.1809 8.52117 19.1987C8.44097 19.1421 8.37546 19.0667 8.33019 18.9789C8.28493 18.8911 8.26125 18.7935 8.26119 18.6944V10.6658L9.48006 11.0458L19.4971 14.1718C19.6146 14.2087 19.7405 14.2087 19.858 14.1718L29.8785 11.0449L31.0948 10.6658Z" fill="black"/>
</svg>
