<svg width="149" height="199" viewBox="0 0 149 199" fill="none" xmlns="http://www.w3.org/2000/svg">
<path d="M98.3075 4.86412C91.4568 2.56052 87.6674 0.245447 80.4445 0.0266624C72.3082 -0.219788 67.4551 1.23061 60.1675 4.86412C55.203 7.33933 52.2628 8.93351 48.5806 13.0878C43.6484 18.6524 43.3697 23.4994 40.8561 30.5027C38.2091 37.8774 37.7949 42.3465 35.5454 49.8525C33.4362 56.8903 32.4494 60.918 29.752 67.7511C26.9911 74.745 25.683 78.8913 21.5446 85.166C18.5899 89.6461 15.8307 91.3426 12.8545 95.8084C9.43598 100.938 7.82665 104.082 5.61272 109.837C1.88881 119.518 1.73225 125.628 0.784889 135.959C-0.163887 146.306 -0.355017 152.238 0.784889 162.565C2.37361 176.959 0.00189972 191.023 8.5 194.5C19.412 198.964 24.9922 198.801 39.6436 198.373L40 198.363C50.2203 198.064 66.9265 198.363 74.651 198.363C82.3756 198.363 99.1051 199.359 114.722 198.363C125.319 197.686 135.5 199 140.5 194.5C144.096 191.263 144.777 188.507 146.103 183.85C148.657 174.882 149 164.984 149 160.147C149 155.309 147.685 146.514 146.103 137.894C144.739 130.458 143.606 126.359 141.758 119.028C139.215 108.939 136.796 103.542 134.516 93.3897C132.291 83.4817 131.305 77.8433 130.171 67.7511C129.073 57.9729 130.539 52.2664 128.723 42.5963C126.462 30.5574 127.242 21.2237 118.102 13.0878C111.846 7.51909 106.241 7.53179 98.3075 4.86412Z" fill="#FDFDFD"/>
<path d="M34.8601 133.468L35.3601 133.048C41.6 137.808 53.08 145.828 60.82 146.918C67.57 146.038 74.19 144.458 80.7 142.188C86.03 144.168 79.02 153.318 74.6 152.388C78.78 160.738 85.17 158.198 91.69 154.198C96.76 155.908 90.8 163.588 87.55 164.978C91.05 166.368 94.9 166.078 99.09 164.088C99.08 166.088 103.76 163.298 104.36 162.758C106.03 161.248 107.25 157.418 107.89 155.288C109.64 153.588 110.29 154.198 111.24 156.048C112.71 166.708 112.96 177.548 111.98 188.578C113.73 188.738 114.85 189.378 115.32 190.518C115.94 190.818 115.9 191.088 115.23 191.308L94.95 191.518L67.23 191.428L58.21 191.248L52.23 191.038L40.88 190.528L35.82 190.498L34.96 189.848C35.1 188.238 36.77 187.618 39.96 187.998C55.21 176.888 75.48 178.388 91.98 186.438C86.1 180.648 79.18 176.798 70.8601 176.178C59.6201 175.728 48.47 174.568 37.42 172.698C19.08 166.868 23.45 153.658 29.21 140.428C29.45 138.828 31.56 131.938 33.47 132.328C34.11 132.458 34.5401 132.948 34.8601 133.488V133.468Z" fill="#2C2C2C"/>
<path d="M133.83 190.588L132.37 189.688L134.48 157.398C134.84 145.858 134.98 125.798 124.25 118.538C121.96 116.988 118.88 119.888 118.1 121.778C117.32 123.668 122.23 128.018 124.64 127.078C130.38 131.078 119.39 135.128 116.79 132.188C113.55 131.058 114.04 132.808 118.25 137.428C120.88 138.428 120.43 143.468 116.71 143.278C116.57 141.668 111.25 139.358 110.92 139.728C110.31 140.398 111.34 147.628 112.31 148.748C115.42 162.088 116.91 175.638 116.77 189.398L115.31 190.508H110.42L110.67 180.768L110.84 174.038L110.95 171.168L111.21 166.308C111.29 164.798 111.26 162.548 111.01 161.198L109.93 155.508C110 155.458 109.01 156.108 108.72 156.298L106.84 161.138C106.43 162.188 104.57 164.088 103.65 164.688L100.42 166.768C100 167.038 98.56 167.308 98.07 167.398L98.93 164.888L95.34 166.238C87.76 169.078 82.73 163.978 84.66 163.938C86.32 163.908 90.1 162.768 90.79 161.198L92.45 157.408C92.58 157.108 92.54 155.878 92.52 155.318C92.52 155.318 91.34 155.958 91.03 156.088L84.8 158.738C82.1 159.888 77.17 158.698 75.44 156.268L72.54 152.168L71.78 151.098C71.62 150.868 72.07 150.068 72.32 150.128L75.5 150.888C76.26 151.068 78.28 150.258 78.7 149.638L80.86 146.478C81.21 145.968 81.38 143.908 81.28 143.358C80.81 143.358 78.98 143.738 78.36 143.948L72.81 145.848L68.55 146.878L61.96 148.138C60.59 148.398 57.73 147.148 56.52 146.628L53.34 145.268L50.1 143.858L43.84 140.498L39.36 137.528L36.8 135.468L34.83 133.518C31.42 132.408 36.46 129.328 36.29 132.828C36.53 132.258 36.92 131.908 37.5 131.838C44.71 137.228 52.75 141.988 61.5 144.398C65.98 143.648 70.4 142.598 74.77 141.248L75.97 142.498C77.34 140.578 78.14 140.358 78.39 141.828C78.98 140.788 79.83 139.658 80.96 138.418C80.54 136.958 80.68 136.158 81.39 136.018C81.17 133.318 81.28 130.548 81.73 127.688C78.86 126.538 79.19 125.568 80.95 123.558C85.5 118.378 86.9 126.018 84.72 130.038C85.52 134.178 85.41 137.838 84.66 141.918L86.1 142.588C85.74 145.388 84.77 148.068 83.21 150.598C87.7 150.658 86.67 154.748 82.77 155.428C96.05 152.138 95.6 140.818 94.26 129.448L95.69 128.398C97.88 125.198 101.03 129.778 98.85 131.718L99.44 137.348C101.79 137.758 100.9 143.248 100.43 145.258C98.25 149.788 96.74 154.468 95.91 159.298L93.17 163.348C97.3 162.088 100.35 159.178 102.3 154.618C104.72 155.408 105.74 155.488 105.37 154.868L106.96 154.118C107.4 148.728 107.51 143.288 107.29 137.808L106.41 136.268C102.77 134.158 103.97 130.348 106.92 133.718C107.78 132.548 108.42 132.778 109.4 133.428C105.73 129.058 103.18 114.698 105.92 110.018C107.28 107.688 108.39 107.968 109.83 110.108C110.62 111.278 111.48 128.398 110.15 112.538C111.72 100.198 109.8 89.8381 105.7 78.2581C105.28 75.4681 104.79 71.8481 108.59 72.8281C109.97 73.1781 116.51 97.0982 115.85 100.178L114.47 101.098C114.18 103.448 113.36 112.948 114.39 114.668C114.54 114.928 114.95 115.028 115.42 115.098C115.49 118.408 118.88 115.448 120.58 113.898L119.67 113.468C121.04 109.588 121.51 105.488 121.08 101.178L116.6 84.5081C116.95 82.6881 117.66 81.9482 119.54 82.3082C117.87 75.2782 117.13 68.1282 117.33 60.8582C119.44 45.8882 112.41 23.3382 98.2 16.2382C97.47 15.8682 83.33 11.5082 83.05 12.2482C82.65 14.4282 81.08 16.2782 78.33 17.7782C76.28 21.0282 75.01 24.7282 74.51 28.8582L73.02 29.3082C70.67 29.5382 70.69 28.6182 71.56 26.7382C69.61 24.5382 70.11 22.4682 71.04 19.8782C69.09 21.1882 67.59 21.2782 66.53 20.1582C64.16 21.6182 62.87 23.3382 66.49 24.0282C66.62 23.3682 66.84 23.3781 67.15 24.0081C71.69 26.0181 71.65 30.5781 67.05 25.6381C66.88 26.2581 66.68 26.2182 66.46 25.5682C64.91 24.9582 62.67 25.0081 61.18 25.7581C62.47 27.1381 61.45 28.1482 58.11 28.7682C59.5 29.9282 58.8 30.6482 56.01 30.9382C57.64 32.7982 55.09 34.7082 53.08 34.3582C53.3 34.6382 53.49 34.9182 53.57 35.2382C53.68 35.6482 49.46 41.6482 48.34 41.2382L49.17 42.7082C45.16 50.3982 44.41 61.5382 51.14 67.8582L50.73 69.5482C54.31 72.0182 54.8 72.8982 52.2 72.1882C52.07 73.5982 51.86 73.3282 51.13 72.1882C50.55 70.6582 50.63 71.2782 51.37 74.0582L54.52 80.3182C56.6 79.6282 57.3 82.0181 55.45 83.1381C55.59 85.3181 56.03 87.3781 56.77 89.3281C58.87 88.8781 59.02 90.5682 57.06 91.3482C57.87 96.0182 56.88 98.5582 54.1 98.9782L53.68 99.4481C55.05 99.0881 54.83 99.3782 53.82 100.338C54.08 101.918 52.76 103.178 49.85 104.118C47.11 105.808 45.18 105.898 44.06 104.398C42.03 105.898 39.97 106.658 37.89 106.678L37.17 105.778L35.97 107.228C19.75 105.458 15.42 115.078 14 129.158C14.02 148.268 14.84 167.388 16.47 186.498C15.84 188.778 12.34 188.598 12.58 185.768L11.97 176.288L11.59 170.308L11.21 164.958L10.26 151.558L10 147.058V131.268C10 123.858 13.88 110.588 18.09 107.708L21.21 105.578C22.04 105.008 24.45 104.008 25.46 103.938L35.61 103.168L40.95 102.918C41.52 102.888 43.23 101.978 42.88 101.578L39.39 97.6381L36.96 94.6082C35.41 92.6782 34.42 87.3682 34.98 84.8482L36.75 76.8782L40.25 63.7482L41.19 58.7182L41.93 54.1682L42.58 50.1882L44.14 44.4982L47.77 36.4282L51.06 26.6381C51.38 25.6881 52.4 23.5482 53.08 22.6882L56.72 18.0682L61.25 13.6082L63.93 11.7882C67.46 9.38817 71.79 8.51817 76.18 8.09817C80.12 7.72817 84.03 8.44815 87.65 9.51815L91.81 10.7482C94.89 11.6582 98.07 11.9582 100.74 13.7482L103.86 15.8382L105.68 17.2082L110.04 21.6182L112.32 24.6782L115.59 30.4682L117.52 34.3182L119.52 40.6981L120.24 44.4182L120.52 47.9182L120.48 52.5782L120.54 60.0282L120.75 66.2182L121.86 77.3182L122.99 81.4782L124.33 85.4382L126.11 90.3982C128.44 96.8782 130.27 102.648 128.58 109.548C127.92 112.228 124.62 114.158 125.92 115.198L128.86 117.558L132.28 121.678L135.06 127.248L137 133.498L137.93 138.708L138.45 143.248L138.88 149.658V155.898L138.54 162.848L137.84 171.838L137.08 179.308L135.95 190.398L133.78 190.628L133.83 190.588Z" fill="#060505"/>
<path d="M133.83 190.588L130.91 191.098L115.24 191.298L115.33 190.508L114.81 176.748L114.4 170.228L113.98 165.798L113.1 158.948L110.87 149.118C110.62 148.028 109.49 145.738 109.48 144.718L109.43 138.978C109.43 138.558 110.84 138.128 111.23 138.248L115.19 139.508C115.59 139.638 116.45 140.638 116.74 140.968L118.15 142.618L118.27 137.418C117.06 135.518 115.58 133.778 113.82 132.198C114.26 131.368 115.25 131.358 116.81 132.178L123.49 130.888C123.74 130.838 124.63 129.938 125.35 129.288C125.4 129.328 124.55 128.638 124.34 128.448C121.56 128.828 118.75 126.918 117.77 125.048L116.01 121.688L121.43 116.468C122.13 115.788 124.51 116.758 125.22 117.388L127.68 119.588C128.49 120.308 130.11 122.338 130.61 123.418L133.48 129.628C134.22 131.228 134.78 134.428 135.02 136.258L135.64 141.108L136.07 144.128L135.98 157.428L135.27 168.748L134.83 174.758L134.22 183.008L133.83 190.558V190.588Z" fill="#FCB670"/>
<path d="M37.2 105.738C37.55 105.768 37.89 105.828 38.17 105.988C39.26 106.578 34.38 127.898 33.6 130.158C32.77 132.568 30.8 136.988 28.16 136.918C27.85 141.408 26.71 145.848 24.73 150.248C22.42 158.618 21.52 166.758 25.63 174.768L24.52 176.068C25.62 180.038 26.3 184.108 26.55 188.258L25.22 189.408L20.72 188.908L15.44 188.318L12.77 188.018C12.28 187.968 12.64 186.228 12.61 185.738L13.72 187.888L15.03 187.048L14.15 172.538L13.56 163.438L13.02 155.238L12.56 150.088L12.54 128.998L13.23 124.488L15.87 114.678L17.46 112.178C21.66 105.558 29.84 105.368 37.2 105.738Z" fill="#FBB36E"/>
<path d="M44.09 104.358C45.18 105.408 44.82 106.068 43.03 106.338L41.5199 108.098C42.0499 108.378 42.87 108.808 42.81 109.218C41.81 115.918 39.73 125.558 37.94 132.078L36.32 132.768L35.0799 132.298C35.0799 132.298 34.84 133.578 34.86 133.468C34.65 133.378 32.6 134.188 32.4 134.848L30.5 141.138L29.47 142.348L27.75 147.448L26.5199 150.628C26.3599 151.048 25.9899 152.658 25.9899 153.168L25.9599 158.338C25.9599 159.358 26.0399 161.668 26.4299 162.478C28.7799 167.318 32.47 170.308 37.7 171.228L42.32 172.038L46.89 172.758L52.17 173.348L58.9899 173.808L66.5 174.318L71.04 174.678L75.57 175.378L79.6 176.498C80.36 176.708 82.34 177.378 83.04 177.848L88.35 181.378L90.92 183.368L95.19 187.318C95.46 187.568 93.54 188.598 93.19 188.468L86.7399 186.088L80 183.548L74.13 181.978L69.42 181.388C66.27 180.998 62.75 181.408 59.72 181.998L55.73 182.778L52.19 183.688L47.5499 185.068L45.04 186.178L42.89 187.318L40.47 189.348L34.95 189.848L29.5799 189.758L27.7699 188.908C26.5099 184.678 25.4299 180.398 24.5199 176.068L23.72 173.978L21.64 167.928C21.26 166.838 21.02 163.978 21.16 162.768L22.01 155.108L23.29 149.808L26.59 140.088L26.6799 135.078L26.7999 128.888L27.62 130.308L28.5799 136.038C30.1199 134.178 31.72 131.728 32.25 129.298L34.26 120.058L35.97 111.968L37.18 105.728C37.79 105.758 39.1 105.088 39.73 104.828L41.4599 104.638L44.07 104.358H44.09Z" fill="#121212"/>
<path d="M29.59 189.758L25.23 189.408L24.65 185.908L24.53 176.068C24.53 176.068 25.57 177.248 25.7 177.638L28.25 185.128L29.58 189.768L29.59 189.758Z" fill="#DD8E58"/>
<path d="M120.6 113.878C118.03 116.768 117.2 117.628 114.16 114.608C113.68 114.128 114.01 102.968 114.48 101.078C114.48 98.6682 114.37 95.0182 113.55 92.5082L110.24 82.3583L108.94 78.1583L107.93 74.8183C107.82 74.4483 107.25 73.4082 107.05 73.0782C107 74.8982 106.9 76.9283 107.17 77.8783L109.98 87.7283L111.31 92.3882L112.14 96.1183L111.98 104.128C111.9 108.298 111.17 112.168 112.14 116.318L113.25 121.108L114.44 125.248C114.54 125.598 113.34 126.798 113.23 126.578L112.29 125.048L110.8 122.278L109.52 118.948C109.17 118.038 108.69 115.728 108.63 114.758L108.29 109.368C108.07 109.578 107.36 110.258 107.3 110.528L106.51 114.168L106.66 121.978C106.69 123.388 107.49 125.938 108 127.108L109.66 130.978C109.97 131.698 111.33 133.038 112 133.678L115.01 136.528L114.97 137.708L111.82 136.258L108.34 134.528L106.94 133.678C99.0601 130.178 98.2501 119.318 100.39 111.788C98.5501 116.518 97.8701 121.508 98.3701 126.748C98.0701 128.228 97.1801 128.758 95.7201 128.358L96.0901 133.488L96.1801 144.318C96.2001 146.048 92.5001 152.518 90.0001 153.788L84.7701 156.438C83.0001 157.338 78.4801 156.968 78.1001 154.928L82.8501 153.758L85.3801 152.758L83.9901 151.928L79.1001 153.468L78.8201 152.178C79.7901 151.578 81.5901 150.518 81.9401 149.798L84.1301 145.228C84.4701 144.518 84.6001 142.618 84.6701 141.868L85.3501 136.358C90.3301 134.398 91.5101 137.468 91.7001 141.868C91.9901 136.448 90.6901 131.028 87.8001 125.608L87.9501 118.188C85.3701 120.598 82.6701 122.808 79.8601 124.798L80.9501 125.728L77.5201 131.248C73.9001 142.028 71.2501 129.888 74.1101 124.868C78.1801 119.658 81.9101 114.228 85.3101 108.588C87.2001 109.448 88.4801 101.898 88.3601 101.468C86.6501 105.558 79.3201 109.828 82.4701 102.758C82.3701 101.018 82.8501 99.1383 83.9301 97.1083C85.5101 88.1183 88.2801 79.6483 92.2501 71.6783C93.0801 68.2483 94.3201 67.4383 95.9601 69.2283C95.7701 66.1083 95.8901 62.9482 96.3001 59.7582C97.7801 55.6482 98.6001 51.4882 98.7601 47.2582C96.5701 48.0582 95.1301 46.4083 94.4501 42.3083L93.5001 35.8083C89.8201 36.7983 88.9501 30.8582 88.7501 28.0082C88.8101 31.0482 85.0801 34.6183 84.1901 30.9283C83.2501 27.0183 84.8301 21.1883 86.0101 17.4583C81.3601 19.3083 77.4201 23.2782 77.1001 28.8882L75.8701 29.8483C76.3801 31.2983 74.3001 30.5983 73.2101 30.0283C72.5201 29.9583 72.4801 29.7083 73.0501 29.2883C74.1901 25.3383 74.4601 18.8983 77.6301 16.4083L80.9101 13.8383L82.3601 12.6982C82.5301 12.5782 81.1101 12.5983 80.9001 12.6683L75.5601 14.3783C73.9301 14.8983 72.1301 15.0983 71.0001 15.7183L64.0801 19.4883C62.8501 20.1583 60.8701 22.3783 59.9901 23.4383L57.5201 26.4083L55.8901 27.8183L53.9801 29.4583C53.7101 29.6983 52.9901 29.8282 52.5801 29.9482C52.6201 29.1782 52.6201 28.3783 52.7601 28.1283L54.8601 24.3583L56.3001 22.1583L58.2701 19.4783L62.9201 15.1982C63.4501 14.7082 64.9201 13.8682 65.6401 13.5782L69.5201 12.0182L72.8201 10.8183L76.8601 10.2083H80.0201L84.4801 10.9883L88.6601 12.2582L93.8001 13.3983L98.4101 14.7083C99.1701 14.9183 100.76 16.2582 101.44 16.7582L104.06 18.6783L106.94 21.8383L108.96 24.1183L111.36 27.2582L112.56 28.9283L114.09 31.9183L115.55 34.9083L117.74 42.4683L118.49 46.5383L118.99 51.0583L118.84 60.8583L119.27 73.5683L121.55 84.5782L123.28 88.6982C123.49 89.2082 123.31 90.5883 123.14 91.9183C122.11 90.5583 121.17 89.1083 120.62 87.7283L118.95 83.5782L117.93 83.8183L121.92 97.6883C123.02 101.508 123.18 107.528 122.06 110.298L120.59 113.928L120.6 113.878Z" fill="#2A2A2A"/>
<path d="M73.0499 29.2782L73.2099 30.0182C74.7099 30.2282 75.6999 30.7882 76.1799 31.7082L77.1799 31.1182C76.7199 27.8382 77.5099 25.3782 79.2999 22.6282C83.0399 16.8882 86.9399 16.8782 84.2199 24.3282C83.2199 29.3082 84.6699 32.4382 87.2499 36.4882C88.9899 34.3582 89.6499 34.5982 91.5399 36.3482C92.4399 37.1882 96.4499 45.4582 94.2699 46.3482C96.4599 51.0682 97.1799 54.2782 94.9699 59.3082C97.4799 59.9582 95.2799 66.9482 92.8599 66.1282C89.1599 74.0282 78.7899 80.4682 70.0799 77.0582C70.2399 75.9482 69.4599 75.2882 67.7399 75.0782C67.6099 75.5482 67.4899 75.9182 67.4099 75.9082C62.3099 75.4582 55.8799 73.5382 52.1699 70.9082L50.7599 69.4982L49.6699 68.4482C48.9799 67.7882 47.3199 66.1682 46.9899 65.2682L45.7899 61.9982L44.8499 57.6382C44.4799 55.8982 44.3999 52.1382 44.8999 50.5082L46.9599 43.6882C47.1699 42.9882 48.1399 41.4882 48.3499 41.1882L49.8099 39.8782C53.4799 41.1882 61.4399 41.4682 59.4899 35.6582C55.3899 36.9682 53.2599 36.5182 53.0999 34.3082L53.9399 33.3382L56.0399 30.8882C58.1199 30.3382 58.8199 29.6182 58.1399 28.7182L61.2099 25.7082C62.6599 24.9282 64.9699 24.9582 66.4899 25.5182C66.6499 25.5182 66.9399 25.5382 67.0799 25.5882C69.0499 27.5782 70.1099 28.2682 70.2499 27.6582C70.3599 26.0582 69.3399 24.8182 67.1799 23.9582L66.5199 23.9782C65.3799 23.9182 64.7099 23.5682 64.5199 22.9082C62.3799 23.7982 65.2699 20.7982 66.5699 20.1082L70.4899 18.4482L73.7999 17.0482L73.3599 18.3182C71.4399 22.3182 70.9599 25.6782 73.0499 29.2582V29.2782Z" fill="#FCB269"/>
<path d="M79.2301 103.768C80.4701 103.808 78.2901 107.478 77.7501 108.088C76.8001 109.158 75.5701 109.838 74.3201 110.438C76.3901 109.488 78.0101 109.528 79.1701 110.528C79.6001 109.368 80.2301 108.478 81.0601 107.858C83.5001 107.638 84.1401 108.488 82.9901 110.408C83.9201 110.768 83.9301 111.488 83.0201 112.568L74.2801 124.648C71.6501 129.908 72.72 135.138 76.7701 139.118C77.8101 140.988 77.5501 142.108 75.9901 142.468L73.1001 143.158L67.1301 144.838C62.0601 146.258 60.7501 146.358 56.0301 144.178L50.2501 141.508L45.7301 139.168L42.5601 137.258L38.6401 134.388L36.3201 132.788L36.9001 128.818L38.5701 121.408L39.4001 117.688L41.5201 108.108L42.4801 106.398C46.6901 105.618 50.9901 105.078 55.3801 104.778C58.4901 101.808 61.0401 102.218 65.0301 102.858C69.7901 101.768 74.5001 99.9882 79.1501 97.5382L80.8701 98.6082L79.2201 103.758L79.2301 103.768Z" fill="#FCB36B"/>
<path d="M79.23 103.768L79.47 101.718L79.95 98.8382L77.08 99.8482L71.05 102.878C64.29 106.268 60.58 102.518 58.51 104.348C57.74 105.028 56.31 106.168 55.57 106.268L50.86 106.878L46.76 107.108L42.73 106.998L41.51 108.108C41.64 107.518 41.87 106.028 42.34 105.678L44.08 104.368C44.62 104.308 45.87 104.058 46.38 103.858L49.24 102.738L53.84 100.308C53.38 98.4582 53.61 98.1282 54.54 99.3082C57.03 97.9482 57.88 95.2882 57.09 91.3282L56.8 89.3082C56.05 87.3482 55.61 85.2782 55.48 83.1182L54.55 80.2982C52.83 77.7282 51.7 75.0182 51.16 72.1682H52.23C62.47 74.6982 67.59 75.9582 67.59 75.9582L67.75 75.0982L69.9 75.3782L72.15 76.3082C74 77.0782 78.67 76.1782 80.98 75.4282C84.51 74.2782 87.56 71.8482 89.85 69.2882L91.71 67.2082L92.87 66.1482C93.4 66.3282 94 66.5582 94.2 67.0582C94.62 68.1082 90.51 75.1982 88.19 75.4182L89.34 77.7182C87 84.8482 84.93 92.0982 83.12 99.4582C82.26 102.028 80.96 103.478 79.23 103.788V103.768Z" fill="#DC9056"/>
<path d="M84.6901 141.888L84.2001 138.178L83.6601 133.528L83.2101 129.738L84.0601 127.018C84.9301 124.228 83.7201 122.718 83.2401 122.998L82.0601 123.688L79.8801 124.928L82.5401 126.428C82.6101 125.908 82.4901 126.808 82.4301 127.238L81.4201 135.978C80.4701 136.838 78.9301 134.508 79.2301 133.308C78.0301 134.408 77.5601 135.788 77.8201 137.428C79.6101 137.378 79.5701 138.358 77.7001 140.358C79.5401 139.348 79.9401 140.428 78.4201 141.798L76.0001 142.468L76.9801 141.348L74.2601 138.558L71.9901 133.968C71.4301 132.838 71.4401 129.688 71.8201 128.478L72.9201 124.988L75.0901 121.088L77.3001 118.158L81.1801 113.698L82.9901 110.408C83.6401 109.018 83.4401 108.308 82.4101 108.298C80.4401 109.738 79.4601 107.598 80.1001 105.758C78.6001 105.238 81.2501 101.658 82.4701 102.768L82.2501 105.688L83.6201 104.778C84.5001 104.188 86.1001 102.268 86.6601 101.348L88.6701 98.0782L90.0701 95.6382L91.1401 95.8282L89.2301 104.528L88.4301 108.168C88.3301 108.618 87.6701 109.998 87.5601 110.178L85.9601 109.688L83.8101 113.348L82.2901 114.948L80.3101 119.008C80.0201 119.598 78.9001 120.838 78.3701 121.458L74.9701 125.418C74.5301 125.928 74.3901 128.128 74.3701 128.818L74.2601 133.038C74.2501 133.548 74.9601 135.138 74.9801 135.128L76.7601 130.898L78.5601 127.588L80.3501 123.358C80.6101 122.738 82.1201 121.858 82.7401 121.238L87.9201 116.018C89.4701 114.458 88.8301 110.938 91.8901 109.388L91.5301 111.448L90.1601 115.358C89.1201 118.338 88.7201 124.098 89.4801 126.128L90.6801 129.328L92.4501 133.308C94.1201 137.078 93.9501 144.488 90.6201 147.038C89.1701 145.998 90.8101 144.338 90.0001 140.238L89.4301 137.328L86.2001 137.418L85.0301 140.908L84.6901 141.908V141.888Z" fill="#100E0E"/>
<path d="M106.99 154.088C106.99 155.008 106.47 157.138 106.04 157.888L103.47 162.338L103.64 158.128L103.77 155.088L102.64 156.908L100.87 159.758C98.57 163.448 94.36 165.348 89.78 165.038L94.31 159.168C95.34 157.838 94.09 155.218 96.58 150.868C97.92 148.528 99.25 145.238 99.33 142.548L99.47 137.328L98.77 130.858C100.7 129.748 102.66 130.608 104.64 133.428C104.68 134.588 105.53 135.848 107.19 137.188C107.53 142.848 107.46 148.488 106.98 154.098L106.99 154.088Z" fill="#292929"/>
<path d="M57.1001 91.3182L57.3701 92.9782L57.5601 95.4282C57.6201 96.1982 57.2401 98.3882 56.5701 98.7682L53.8501 100.308L53.7101 99.4182L52.7701 98.8082C51.5801 99.0982 49.9501 99.4882 49.2301 99.9782C46.8901 100.258 45.5801 94.4082 45.1801 92.1882C44.3301 87.4382 45.3601 75.9182 46.1301 70.9882C46.1601 70.7782 46.5901 70.6382 47.1401 70.5182C47.5001 70.9982 48.2401 72.1482 48.4401 72.6982L49.8301 76.5582L51.5601 80.3182L52.9601 83.2482L53.8201 85.4982L54.7301 89.9782C55.0101 91.3482 55.0901 93.6682 54.9701 94.9682L54.7501 97.3982C54.7201 97.7782 54.1001 98.4282 53.7501 98.5782L54.1201 98.9482L56.1301 97.6582C56.5201 97.4082 56.7201 95.8782 56.7301 95.3982L57.0901 91.3282L57.1001 91.3182Z" fill="#12100F"/>
<path d="M106.95 133.698H104.61L106.81 135.968C107.09 136.258 107.73 137.688 107.73 138.158V152.708C107.67 152.898 107.09 154.188 107 154.108V137.308L103.64 134.538L100.97 131.828C100.57 131.718 99.04 131.318 99.45 131.428L99.49 137.338C99.17 137.528 99.1 137.058 99 136.348L98.01 129.378C97.93 128.818 95.86 127.868 95.75 128.378L96.98 126.468L96.87 121.668L96.85 119.128L98.24 112.978L100.59 107.768L102.4 104.718L103.92 102.618L103.36 106.508L102.25 110.248L100.93 117.078C100.27 120.518 102.13 127.828 103.72 129.378L106.35 131.928C106.66 132.228 106.93 133.418 106.97 133.708L106.95 133.698Z" fill="#101010"/>
<path d="M47.1599 70.5081L46.9599 81.5282L46.2399 84.3182L46.7099 92.3482L49.2499 99.9782L47.0899 101.438C46.7899 101.648 45.1599 101.768 45.0699 101.418L44.6499 99.7581C43.8899 96.7481 42.8599 93.2182 43.0699 90.1082L43.5099 83.5782L44.2899 78.1882L44.8799 74.2282L45.1199 69.6582C45.2299 69.4082 45.6499 68.4082 45.6199 68.4682L47.1499 70.5182L47.1599 70.5081Z" fill="#282727"/>
<path d="M48.3701 41.1982C48.3801 41.1082 48.6701 39.7582 48.8801 39.4482L51.3001 35.8383C51.6001 35.3983 52.7001 34.6183 53.1101 34.3183L55.3801 35.0883L59.0401 33.7283L61.0801 34.8083L61.5801 38.1783C61.7001 38.9683 60.0601 40.4183 59.3301 40.7783L55.7901 42.5182L51.8101 41.6883L48.3701 41.1982Z" fill="#F99660"/>
<path d="M120.6 113.878C120.2 114.868 118.86 116.718 118.03 117.408L115.66 119.388C116.08 119.928 115.8 119.568 115.08 118.648C114.51 117.038 113.54 114.178 113.57 112.758L113.65 107.938L113.75 101.568L114.49 101.078V104.978L114.44 114.368L115.15 114.588L115.82 110.558L117.22 102.078L117.28 99.3082C117.28 99.3082 118.42 99.5782 118.6 99.6182L118.39 104.758L117.7 109.248L116.82 114.718C116.78 114.968 117.86 115.488 118.09 115.338L120.6 113.878Z" fill="#161515"/>
<path d="M41.25 87.0982L40.73 94.8082C38.75 92.4582 37.71 89.5082 38.22 86.2982L38.91 81.9282L41.85 72.9882C42.17 72.8082 43.22 72.1182 42.96 72.2882L42.52 75.7882L41.94 80.4282L41.24 87.0982H41.25Z" fill="#E5E5E5"/>
<path d="M56.05 30.8982L58.1501 28.7282L58.9301 28.9182L63.6201 28.5282C66.0801 28.3282 67.7601 31.4382 67.3501 33.8582C67.1301 34.2082 66.2301 35.5882 66.4201 35.2882L63.5901 31.3582C62.9501 30.4682 60.7701 31.6582 57.9601 31.0982L56.0701 30.8982H56.05Z" fill="#1F1106"/>
<path d="M81.43 135.978L81.4 138.828L81.38 140.728L78.44 141.788L77.72 140.348C78.73 138.458 79.11 137.148 78.87 134.978C79.69 137.018 79.35 137.828 77.84 137.418L77.21 136.728C76.97 136.468 77.53 132.828 78.49 131.338L81.15 127.218L81.21 129.008L80.61 134.858C80.59 135.078 81.55 136.148 81.44 135.988L81.43 135.978Z" fill="#F0B874"/>
<path d="M67.75 75.0882L69.95 76.1382L69.75 77.0582L68.43 76.9982L59.55 75.2482L56.17 74.1082L52.86 72.9882C52.65 72.9182 52.11 72.0182 52.24 72.1582L53.6 71.6482L51.85 71.4382L50.78 69.5182L54.52 71.4882L60.93 73.8082L64.01 74.5382L67.76 75.0782L67.75 75.0882Z" fill="#12100F"/>
<path d="M126.12 107.618L124.49 109.638L124.09 99.2382L123.4 95.1282L124.56 96.4081L125.32 98.8582C126.12 101.418 126.2 104.468 126.12 107.628V107.618Z" fill="#E4E4E4"/>
<path d="M116.8 132.188L114.69 132.208C114.39 131.688 114.8 132.398 115.1 132.928L117.74 135.528C118.05 135.838 118.28 137.018 118.27 137.428L116.68 135.848L113.51 132.808C112.66 131.988 111.35 130.218 110.76 129.168L109.55 127.008L110.78 127.198L114.11 130.678C114.36 130.938 115.63 131.318 115.91 131.458L116.81 132.198L116.8 132.188Z" fill="#B48962"/>
<path d="M66.5701 20.1282L64.7001 22.4681C64.6301 22.6581 64.2701 23.5982 64.5301 22.9282L66.5301 23.9982L61.8301 23.9182L64.7601 20.8782C65.0401 20.5882 66.1901 20.2981 66.5701 20.1381V20.1282Z" fill="#4F2E17"/>
<path d="M66.49 25.5283L61.21 25.7183C61.38 25.5483 61.79 24.8083 61.99 24.7983L65.73 24.7483C65.9 24.8683 66.7 25.4483 66.49 25.5283Z" fill="#4F2E17"/>
<path d="M56.81 89.2982C56.63 89.4582 56.13 88.6981 55.99 88.5281L55.48 85.4581V83.1082L56.14 85.3881L56.81 89.2982Z" fill="#12100F"/>
<path d="M51.17 72.1483L51.8299 73.9583L53.94 78.6583L54.5499 80.2783L53.7 79.4383L51.02 74.1683C50.78 73.6883 50.7799 71.9083 50.7999 71.2383L51.17 72.1583V72.1483Z" fill="#12100F"/>
<path d="M67.0901 25.6083L68.1101 25.9683L70.08 27.9483L69.9601 26.1483L67.9501 24.7483L67.1901 23.9883C67.7201 23.9683 68.8501 24.5483 69.2401 24.9083L71.2601 26.8183L69.8501 28.6183L67.7601 26.4283L67.0701 25.6083H67.0901Z" fill="#4F2E17"/>
<path d="M82.48 102.758L81.22 104.058L80.11 105.748C81.04 107.998 81.42 109.208 79.18 110.518C77.03 111.488 74.16 112.078 71.58 112.368L69 111.448L71.11 110.398L75.13 108.318C75.97 107.888 77.5 106.228 78.05 105.448L79.24 103.748L80.6 101.858L82.88 96.7982L85.71 84.2781L87.22 78.6682L88.3 76.4081L85.79 77.2081L84.32 76.9081C83.98 76.8381 84.76 75.8281 85.06 75.6381L87.41 74.1082L91.27 71.4382C91.63 71.1882 92.08 69.5682 92.19 69.1282L92.88 66.1282C92.88 66.1282 93.32 65.3281 93.38 65.1481L94.67 61.2482L94.99 59.3082C97.23 54.1582 96.43 51.1481 94.29 46.3481L93.69 44.8481L91.49 39.3381C91.07 38.2881 90.12 36.8482 89.43 35.8782L88.52 38.3682C88.44 38.5482 86.41 37.9282 86.1 37.3682L83.97 33.5881C83.68 33.0781 83.05 31.1981 83.05 30.5881L83.11 24.1282L84.08 20.5181L83.94 19.0682L80.33 22.7881C79.74 23.3981 78.58 25.5382 78.53 26.3782L78.29 30.6282L78.39 34.2482L76.2 31.6981C74.72 30.7581 74.61 30.1381 75.89 29.8281C75.62 28.4581 76.32 25.7581 77.17 24.3981L79.25 21.0781C79.54 20.6081 80.62 19.3982 81.07 19.0582L84.09 16.7881L88.57 14.3582C88.77 14.4982 89.95 15.3282 89.82 15.2382C85.64 19.0082 85.12 24.6181 84.96 30.0281C85.27 30.4381 86.22 31.8181 86.13 31.6981L87.96 25.1682L88.98 22.0881C88.92 22.0881 89.72 22.0181 89.73 22.0181L90.17 24.7881L90.31 29.7581L91.37 32.8582L92.14 35.0682L92.61 34.6581L93.71 25.4781C93.75 25.1681 94.61 24.1581 94.91 23.8381L94.69 27.8881L94.6 32.0482L95.13 36.8082L95.92 41.9781L97.08 45.8082C97.19 46.1582 97.8 47.5582 97.7 47.2982L99.34 38.4481C99.41 37.5781 101.09 37.5182 100.94 38.3782L100.01 43.6082L99.56 52.9182L97.79 58.3381L97.09 71.3281L97.7 75.8481L98.25 78.7281L99.17 84.1481L98.67 90.0381C98.64 90.3881 97.44 90.4582 97.39 90.1082L96.69 85.4382L95.79 79.4681L95.21 75.1082L94.72 68.9481C94.44 69.2981 93.78 70.2082 93.66 70.5682L92.54 73.9982L90.98 77.8782L88.64 83.5881L86.09 93.3981L84.2 100.328C84.01 101.028 82.94 102.278 82.47 102.768L82.48 102.758Z" fill="#090505"/>
<path d="M102.94 98.8783L101.58 102.538L100.99 102.148L101.99 95.4383L101.6 88.5883L100.74 79.2682L102.06 78.9983C102.11 79.8583 102.13 80.7783 102.2 81.1083L103.81 88.7483C104.45 91.7783 104.08 95.8583 102.95 98.8983L102.94 98.8783Z" fill="#080808"/>
<path d="M75.88 29.8481L76.19 31.7181L73.87 30.8281C73.67 30.7481 73.26 30.2381 73.22 30.0281L75.88 29.8481Z" fill="#745B3E"/>
<path d="M84.63 59.2982C84.03 59.6982 81.66 58.6382 81.16 58.0582L78.16 54.6182L78.03 50.2882L80.59 48.6082C81.84 47.7882 85.63 48.8082 86.29 49.9983L88.01 53.0982C88.53 54.0282 87.89 56.2382 87.34 57.4782L84.64 59.2782L84.63 59.2982Z" fill="#FC9764"/>
<path d="M88.3801 46.7982L87.1701 43.8682C86.5301 42.3282 84.9101 40.9882 83.0301 40.9982L79.3801 41.0382L79.5201 39.2482L83.9201 38.3282C86.0601 37.8782 88.9201 40.2282 89.2201 42.3282L89.8801 46.8682L88.3801 46.7782V46.7982Z" fill="#2A1A10"/>
<path d="M69.8001 55.3182C70.2201 55.4482 71.9901 55.0682 72.3701 55.0382C72.6001 55.0182 73.0701 55.7182 72.9701 55.9282L72.3101 57.3382C66.0101 57.4582 56.9401 52.1382 55.8101 48.4082C55.6801 47.9682 56.9901 47.0282 57.2901 47.3782L59.3801 49.8582L62.5301 52.6682C62.8501 52.9582 64.2201 53.5482 64.7101 53.7082L69.8101 55.3182H69.8001Z" fill="#33160A"/>
<path d="M63.74 42.5682C63.65 42.8682 62.05 43.8082 62.02 43.5582C61.88 42.3882 62.19 39.9382 62.89 39.2482C63.94 38.1982 66.68 37.7582 67.81 37.9482C68.6 38.8982 68.99 39.3682 68.18 38.3982C65.71 38.8682 64.14 40.7382 63.74 42.5682Z" fill="#5A2B15"/>
<path d="M94.98 59.3082L95.48 55.3582L95.8 51.0981L94.23 49.4982L94.27 46.3381L94.97 47.3481L96.99 51.2581C97.31 51.8781 97.23 53.8681 96.99 54.5381L95.59 58.4182L94.97 59.2881L94.98 59.3082Z" fill="#BE7F50"/>
<path d="M68.38 43.5682L68.16 46.4782L65.78 44.1982L68.38 43.5682Z" fill="#9C541D"/>
<path d="M83 110.398L83.02 108.388L80.87 109.758L79.18 110.518L79.99 109.158L78.74 108.398L80.11 105.748L81.11 107.008C81.29 107.258 81.9 108.108 81.9 108.098C81.9 108.078 82.63 107.698 83.37 107.288L84.53 107.878L83 110.388V110.398Z" fill="#2A2A2A"/>
<path d="M77.7099 140.348L77.8299 137.418L78.2699 136.468L78.6899 134.598L80.2599 137.018C80.4399 137.298 80.9 138.168 80.64 138.348L79.4399 139.138L77.7 140.348H77.7099Z" fill="#FCB36B"/>
<path d="M90.11 31.7882L88.42 33.3982L88.26 29.7982L90.11 31.7882Z" fill="#896D51"/>
</svg>
