<svg width="38" height="22" viewBox="0 0 38 22" fill="none" xmlns="http://www.w3.org/2000/svg">
<path fill-rule="evenodd" clip-rule="evenodd" d="M19.1709 11.2993L4.26118 6.5861L19.1709 1.87203L34.0818 6.5861L19.1709 11.2993ZM28.6423 17.9833V10.2198L19.4326 13.1313C19.262 13.1851 19.0797 13.1851 18.9091 13.1313L9.69989 10.2198V17.9833C11.8435 19.34 15.413 20.1714 19.1709 20.1714C22.9287 20.1714 26.4978 19.3396 28.6423 17.9833ZM3.50624 15.1447C3.4786 15.3541 3.37365 15.5447 3.2131 15.6769C3.05256 15.8091 2.84868 15.8729 2.64363 15.8551C2.54012 15.8787 2.43276 15.8782 2.32947 15.8535C2.22619 15.8288 2.12962 15.7806 2.04689 15.7125C1.96417 15.6443 1.8974 15.558 1.85153 15.4598C1.80565 15.3616 1.78183 15.254 1.78183 15.1451C1.78183 15.0362 1.80565 14.9286 1.85153 14.8304C1.8974 14.7322 1.96417 14.6458 2.04689 14.5777C2.12962 14.5095 2.22619 14.4613 2.32947 14.4367C2.43276 14.412 2.54012 14.4114 2.64363 14.4351C2.84841 14.4175 3.05197 14.4813 3.21231 14.6133C3.37265 14.7453 3.47756 14.9355 3.5054 15.1447H3.50624ZM37.3688 5.7113L19.4326 0.0400025C19.262 -0.0133342 19.0797 -0.0133342 18.9091 0.0400025L0.97077 5.7113C0.788734 5.7689 0.629462 5.88491 0.516324 6.04231C0.403186 6.19972 0.342138 6.39023 0.342138 6.58589C0.342138 6.78155 0.403186 6.97206 0.516324 7.12946C0.629462 7.28687 0.788734 7.40288 0.97077 7.46048L1.75316 7.7077V12.754C1.2479 12.9031 0.803584 13.217 0.487316 13.6484C0.171049 14.0797 0 14.6051 0 15.1451C0 15.6851 0.171049 16.2104 0.487316 16.6418C0.803584 17.0731 1.2479 17.3871 1.75316 17.5362V19.5599C1.75823 19.7991 1.85429 20.0268 2.02078 20.1941C2.18726 20.3614 2.41092 20.4551 2.64384 20.4551C2.87677 20.4551 3.10043 20.3614 3.26691 20.1941C3.43339 20.0268 3.52946 19.7991 3.53453 19.5599V17.5362C4.03979 17.3871 4.4841 17.0731 4.80037 16.6418C5.11664 16.2104 5.28769 15.6851 5.28769 15.1451C5.28769 14.6051 5.11664 14.0797 4.80037 13.6484C4.4841 13.217 4.03979 12.9031 3.53453 12.754V8.2711L7.91851 9.65596V18.4756C7.91848 18.6224 7.9528 18.767 8.01857 18.8973C8.08433 19.0275 8.17962 19.1397 8.29641 19.2242C10.7031 20.9625 14.7683 22 19.1709 22C23.5734 22 27.639 20.9617 30.0449 19.2242C30.1622 19.14 30.258 19.028 30.3241 18.8977C30.3903 18.7674 30.4249 18.6226 30.4249 18.4756V9.65596L37.3714 7.46005C37.5534 7.40245 37.7127 7.28643 37.8258 7.12903C37.939 6.97162 38 6.78111 38 6.58545C38 6.38979 37.939 6.19929 37.8258 6.04188C37.7127 5.88448 37.5534 5.76846 37.3714 5.71086L37.3688 5.7113Z" fill="black"/>
</svg>
