<svg width="28" height="25" viewBox="0 0 28 25" fill="none" xmlns="http://www.w3.org/2000/svg">
<path fill-rule="evenodd" clip-rule="evenodd" d="M9.40051 1.0517C9.44003 1.01202 9.48706 0.980482 9.53891 0.958914C9.59075 0.937345 9.64638 0.926169 9.7026 0.926029H18.2972C18.4106 0.926839 18.519 0.971915 18.599 1.0515C18.6791 1.13108 18.7244 1.23876 18.725 1.35122V4.54616H19.6583V1.35122C19.6579 0.993056 19.5143 0.6497 19.2592 0.396413C19.004 0.143125 18.6581 0.000571808 18.2972 0H9.7026C9.34173 0.000652991 8.99584 0.143223 8.74067 0.396484C8.4855 0.649745 8.34185 0.993053 8.34119 1.35122V4.54616H9.27452V1.35122C9.27455 1.29551 9.2857 1.24036 9.30733 1.18895C9.32895 1.13754 9.36062 1.09089 9.40051 1.0517ZM11.6405 21.8511H4.81572C4.69196 21.8511 4.57326 21.8999 4.48575 21.9867C4.39823 22.0736 4.34906 22.1914 4.34906 22.3142C4.34906 22.4371 4.39823 22.5549 4.48575 22.6417C4.57326 22.7286 4.69196 22.7774 4.81572 22.7774H11.642C11.7658 22.7774 11.8845 22.7286 11.972 22.6417C12.0595 22.5549 12.1087 22.4371 12.1087 22.3142C12.1087 22.1914 12.0595 22.0736 11.972 21.9867C11.8845 21.8999 11.7658 21.8511 11.642 21.8511H11.6405ZM27.0092 11.2766V24.053C27.0085 24.3039 26.9077 24.5444 26.7289 24.7218C26.5501 24.8993 26.3079 24.9993 26.055 25H1.94265C1.68982 24.9993 1.44755 24.8993 1.26877 24.7218C1.08999 24.5444 0.989221 24.3039 0.988482 24.053V11.2766L4.74541 12.1829V12.9564C4.74541 13.0792 4.79458 13.197 4.8821 13.2839C4.96961 13.3707 5.08831 13.4195 5.21208 13.4195C5.33584 13.4195 5.45454 13.3707 5.54205 13.2839C5.62957 13.197 5.67874 13.0792 5.67874 12.9564V12.4074L13.7675 14.3592C13.9205 14.399 14.0812 14.399 14.2342 14.3592L22.323 12.4074V12.9558C22.323 13.0786 22.3721 13.1964 22.4597 13.2833C22.5472 13.3701 22.6659 13.4189 22.7896 13.4189C22.9134 13.4189 23.0321 13.3701 23.1196 13.2833C23.2071 13.1964 23.2563 13.0786 23.2563 12.9558V12.1829L27.0135 11.2766H27.0092ZM27.9998 10.0396V5.53085C27.9997 5.52319 27.998 5.51561 27.995 5.50857C27.992 5.50152 27.9876 5.49514 27.982 5.48979C27.9766 5.48428 27.9701 5.4799 27.9629 5.47693C27.9558 5.47396 27.9481 5.47245 27.9403 5.47249H0.0595157C0.0517536 5.47245 0.0440628 5.47396 0.0369009 5.47693C0.029739 5.4799 0.0232524 5.48428 0.0178273 5.48979C0.0122986 5.49514 0.00788686 5.50152 0.00484415 5.50857C0.00180144 5.51561 0.000187384 5.52319 9.42102e-05 5.53085V10.039C-0.000675161 10.0524 0.00328645 10.0656 0.0112941 10.0764C0.0191676 10.0875 0.0311122 10.0952 0.0445825 10.0977L4.74541 11.234V10.7248C4.74541 10.602 4.79458 10.4842 4.8821 10.3973C4.96961 10.3105 5.08831 10.2617 5.21208 10.2617C5.33584 10.2617 5.45454 10.3105 5.54205 10.3973C5.62957 10.4842 5.67874 10.602 5.67874 10.7248V11.4582L13.9853 13.4622C13.9881 13.4622 13.9928 13.4622 14.0002 13.4622C14.0077 13.4622 14.0124 13.4622 14.0152 13.4622L22.3217 11.4582V10.7248C22.3217 10.602 22.3709 10.4842 22.4584 10.3973C22.5459 10.3105 22.6646 10.2617 22.7884 10.2617C22.9122 10.2617 23.0309 10.3105 23.1184 10.3973C23.2059 10.4842 23.2551 10.602 23.2551 10.7248V11.234L27.9562 10.0992C27.9697 10.0967 27.9816 10.0891 27.9895 10.0779C27.9974 10.0668 28.001 10.0532 27.9998 10.0396Z" fill="black"/>
</svg>
