<svg width="153" height="256" viewBox="0 0 153 256" fill="none" xmlns="http://www.w3.org/2000/svg">
<path d="M18.4286 180.473C19.1305 177.587 23.6826 166.143 27.2022 157.022C29.4359 151.234 32.5202 144.64 33.018 142.24C33.4307 136.084 33.2384 132.778 32.1154 126.716C30.7117 119.14 31.0626 110.12 29.3078 102.905C27.5531 95.689 21.2361 92.8026 18.4286 92.8026C15.621 92.8026 2.89715 85.3097 0.530402 75.8458C-1.46471 67.868 2.63607 61.4144 5.09268 55.2811C7.54929 49.1478 8.52906 47.5798 9.30399 42.2929C9.97788 37.6952 9.65493 32.9124 9.30399 30.387C8.95304 27.8615 10.0059 9.10061 13.8663 4.77116C17.7267 0.441708 27.2022 -0.279788 29.3078 0.0809965C30.9923 0.369624 37.8394 -0.306031 41.5909 2.96727C47.1643 7.83024 36.3864 22.1029 43.6965 22.0889C46.7023 22.0831 47.8871 19.8878 50.7154 18.8418C58.266 16.0494 63.058 16.4072 71.0702 15.9555C76.4072 15.6547 79.6374 14.3766 84.7571 15.9555C89.9635 17.5612 92.393 20.0487 96.3382 23.8928C99.5229 26.9958 99.2272 31.3887 103.357 32.9124C111.007 35.7348 103.778 19.7076 105.463 11.6261C107.568 1.5241 113.885 4.77116 115.289 4.77116C116.693 4.77116 135.644 10.5437 138.452 11.6261C141.259 12.7084 149.213 17.2137 151.787 23.8928C153.908 29.3942 152.384 33.1599 151.787 39.0457C150.799 48.8052 144.221 53.4497 145.12 63.2183C145.492 67.2667 147.481 69.2549 147.576 73.3203C147.773 81.7622 142.019 85.1961 138.452 92.8026C134.618 100.977 135.418 107.934 128.625 113.728C124.234 117.473 118.448 119.501 115.289 119.861C112.762 120.15 106.125 122.853 103.357 127.799C101.211 131.634 99.7797 134.975 101.602 138.983C103.229 142.559 106.165 144.034 109.674 144.756C113.184 145.477 125.818 149.807 127.221 150.167C128.625 150.528 141.301 152.502 145.12 159.548C148.455 165.702 148.574 171.503 145.12 177.587C142.713 181.825 137.605 181.051 135.644 185.524C133.842 189.635 136.181 192.595 135.644 197.069C134.661 205.253 132.101 209.481 128.625 216.913C125.294 224.034 118.448 234.23 118.448 234.23C118.448 234.23 110.616 245.23 103.357 249.022C99.3774 251.102 97.8725 253.271 92.4778 252.63C87.0832 251.99 83.886 243.398 77.3872 244.693C71.9568 245.775 71.972 252.265 66.8589 254.434C61.0314 256.907 52.1192 254.434 50.7154 254.434C49.5924 254.434 41.1043 252.962 36.6777 249.022C31.9044 244.774 31.5511 240.297 29.3078 234.23C26.8984 227.714 27.5818 223.399 25.0965 216.913C22.4423 209.986 17.4243 207.61 15.972 200.316C14.4481 192.663 17.7267 183.36 18.4286 180.473Z" fill="#FEFEFE"/>
<path d="M135.533 68.3259C135.954 70.3865 136.744 71.9374 137.911 72.964L138.834 74.0644L139.521 74.8841L137.217 74.7217C135.924 74.633 133.635 75.5045 132.438 76.1101L129.403 77.6537C128.561 78.082 126.877 78.3331 125.651 78.5473L127.527 79.9874C132.394 83.7244 134.802 91.8114 131.729 97.1288C130.4 99.4257 127.446 101.782 126.434 100.77C129.056 98.2957 128.82 93.2737 126.966 91.0433L125.415 89.1822L124.086 87.7568C124.145 87.6313 123.761 88.4437 123.687 88.5988C124.891 91.4347 124.994 95.8733 124.123 97.6163L122.195 101.457C121.929 101.981 121.058 103.251 121.154 103.813C121.257 104.418 122.86 105.378 123.443 105.267L126.538 104.699C126.227 106.833 124.839 107.934 123.066 108.982C121.486 109.92 119.189 109.167 117.594 109.278C116.331 109.366 113.879 110.459 112.66 110.29L110.29 109.965C109.101 109.352 109.78 109.13 110.851 108.864H111.486C111.294 108.65 111.146 108.436 111.124 108.214C111.087 107.771 105.467 107.875 103.968 108.177L103.709 108.561L102.535 111.619L98.7391 122.882L97.8159 125.237L96.686 127.963L92.2326 137.423L88.9978 146.286L92.011 148.671L93.8795 150.067L96.9223 152.105L99.7656 153.597L102.897 155L106.885 156.33L114.374 157.873L121.981 159.993C122.527 160.148 123.428 161.337 123.709 161.758L124.477 162.925L135.939 166.581C136.515 166.765 137.741 167.977 138.177 168.412L140.104 170.377C141.493 171.795 142.586 174.372 141.803 176.278C140.858 178.589 138.177 178.944 136.146 178.139L132.852 176.839C132.601 176.898 131.729 177.659 131.619 177.954C131.36 178.833 130.806 181.004 130.895 181.905L131.39 186.957C131.523 188.338 131.382 190.421 131.057 191.654C130.348 194.335 127.512 195.251 125.289 194.231L124.337 197.223L122.453 203.123L120.437 209.431L119.425 212.156L118.443 214.563L115.592 221.114L112.897 226.225L110.29 230.25L108.658 232.406L105.349 235.774C105.002 236.129 103.828 236.978 103.303 237.177L99.2856 238.728C97.9489 239.245 95.3935 239.046 94.0051 238.669L90.822 237.805C90.2385 237.65 88.8575 236.897 88.3848 236.505L86.1988 234.674L84.249 232.325L82.4322 229.6L81.6715 228.463L79.7292 230.782L75.9553 234.578L73.7914 236.409L71.332 238.388L68.6881 240.183L64.6557 242.207L59.5746 243.809C57.4107 244.489 52.4034 243.669 50.8451 242.428L48.984 240.944L47.4404 239.068C46.1258 237.473 45.2174 234.585 44.7595 232.429L42.6178 222.392L41.894 217.99L41.4435 214.6C41.3918 214.194 40.3948 213.611 39.9591 213.515L35.779 212.525L32.0567 211.041C31.3034 210.391 30.7126 209.785 30.3064 209.216C32.0715 207.85 36.1335 209.63 37.0862 211.491C37.3816 209.896 39.191 210.295 39.2648 211.89C39.804 211.159 39.9074 211.181 39.5455 211.986C41.3992 212.518 42.7212 212.296 43.504 211.306C48.0313 211.447 50.2986 211.521 50.2986 211.521C48.467 201.107 46.8422 190.635 45.4242 180.125L45.4538 168.036C46.6428 166.92 47.3666 167.496 47.6324 169.779C47.9131 169.823 48.1716 169.882 48.371 170.03C48.6516 170.236 48.8953 176.455 47.6177 176.433C47.7875 177.902 47.9722 179.372 48.1716 180.834C49.4049 180.738 49.4271 182.873 48.1716 183.065C48.3488 184.372 48.5408 185.672 48.7329 186.979C49.2277 187.038 49.2055 187.193 48.7329 187.422C48.9027 188.56 49.0874 189.689 49.2794 190.812C50.7491 190.997 50.6826 191.506 49.2794 191.92L49.8407 194.135C51.4211 194.18 51.3473 195.421 49.8407 195.782L50.402 198.028C52.0193 198.028 51.9455 199.874 50.3946 200.221L50.9337 201.358C52.5585 201.284 52.5068 203.773 50.9559 204.091L51.4654 205.243L52.204 205.177C52.9942 207.577 53.5112 210.191 53.7549 213.027L54.811 214.334C56.3619 214.851 57.1152 215.671 57.0635 216.786C57.9572 216.166 59.1388 216.136 60.6233 216.69L70.9923 217.052C72.0632 216.557 73.1193 216.04 74.168 215.516C75.5269 216.631 76.8784 216.882 78.2226 216.277C77.7573 215.265 78.5623 214.371 80.6376 213.603C76.8784 202.547 73.4812 191.314 70.4458 179.904C69.2641 168.316 67.9939 156.736 66.635 145.185L67.5877 144.299C65.9703 143.937 60.483 143.597 59.545 144.432C59.5598 152.43 61.1329 160.266 64.2643 167.94C64.2347 170.007 62.7355 170.613 62.0487 168.442C60.9704 168.361 60.9556 167.925 62.0117 167.637L60.8965 165.281C60.4017 165.244 60.4165 165.104 60.8818 164.867L60.2762 163.567C58.4963 163.7 57.1374 158.708 58.5997 157.748C57.839 153.981 57.6913 150.244 58.1713 146.537C57.0488 146.67 56.9454 146.168 57.0635 145.185C55.2984 145.592 54.1685 145.267 53.6737 144.21C52.7136 151.972 52.0267 159.764 51.6205 167.585C49.8628 171.647 49.0947 166.957 49.7003 164.542C48.179 164.624 48.3341 162.755 49.8259 162.556L50.3798 158.649C48.7181 158.841 48.8363 156.234 50.3798 155.953L50.9042 152.519L50.173 152.423C49.8481 150.407 49.9441 148.243 50.4463 145.946C49.3754 146.108 48.7181 145.747 48.4892 144.853C48.0313 146.478 47.8023 146.278 47.0342 144.883C46.8718 145.37 46.6724 145.363 46.436 144.89C41.8793 148.908 38.674 155.355 36.9532 161.256C33.5043 168.139 31.0819 175.495 29.6713 183.323C27.3892 185.214 27.7068 182.489 28.2016 180.679V180.251C28.5044 179.549 28.6816 178.774 28.7407 177.939V177.496C29.1026 176.994 29.2651 176.374 29.2503 175.657C29.2355 175.547 29.2134 175.347 29.2355 175.258C30.1365 172.747 30.912 170.148 31.5545 167.467L31.5176 166.891C32.426 165.118 33.1572 163.235 33.6963 161.241V160.872C35.0774 158.73 36.1113 156.463 36.8203 154.07L37.7287 152.142L42.9575 144.085C43.1938 143.723 43.7256 142.482 43.7404 142.032L43.9619 136.559L43.8659 133.199L43.312 129.285L42.1156 123.738C40.9856 118.487 40.7715 111.922 43.1938 107.852L44.922 104.95C45.2248 104.448 45.4833 102.993 45.2544 102.439L44.3017 100.09L42.2707 95.9176L39.0137 89.2117L37.6031 86.1542L35.971 82.336L34.3979 78.2962L31.1336 68.7986L30.3064 66.162L28.7333 62.8977C27.9948 61.3616 26.7762 59.722 26.3848 58.1416L24.6418 51.0368L22.7069 40.1361L22.3893 37.7727L21.0083 30.2102C20.8753 29.4716 20.4174 27.9281 19.9521 27.4185L18.3052 25.6091L16.6657 23.3418C14.4796 20.3285 14.0586 14.9668 16.3186 12.7364L19.9817 9.11759C20.447 8.65231 21.8059 8.0467 22.4041 7.85468L25.5059 6.87983C27.4261 6.27423 27.5886 7.62575 30.7938 6.07483C32.8913 5.06303 33.0095 8.91818 33.7997 10.7497L35.3358 14.3169C35.875 15.5576 34.8189 18.1499 34.228 19.4718L32.6476 23.0094C32.426 23.5043 32.4925 25.2398 32.7288 25.8233L35.5131 32.8689L37.5958 37.4182L38.9768 40.4979L40.3431 43.6293L42.3224 48.1787L43.6148 51.3175L43.7699 49.5967L44.1244 45.5791L44.7226 41.783L46.7979 35.9929C47.0047 35.4168 47.8023 34.1022 48.1937 33.6296L50.2321 31.1628C50.6309 30.6754 51.7904 29.6193 52.3665 29.3387L57.5436 26.8129L63.5036 24.4348C65.601 23.5929 68.5035 23.5043 70.7486 23.7997L74.2271 24.2502C78.2078 24.7671 82.4765 26.2442 85.3421 29.058L90.9106 34.5306L92.528 36.7536L95.8219 41.4285L99.6179 45.3206C100.349 46.0665 102.55 47.0561 103.591 47.2186L106.929 47.743C110.061 48.2378 113.229 48.7326 115.578 50.8522L116.944 52.0856L119.064 49.5746L121.863 46.2955L124.145 43.5924L126.168 41.1848L128.517 38.4005L130.836 35.2248C131.146 34.8038 130.526 33.2529 130.275 32.7581C127.564 27.4702 129.573 25.8085 129.787 24.841L130.407 21.9976C130.518 21.4881 130.873 19.7525 131.39 19.782L134.24 19.9519C135.378 20.0184 136.574 18.1203 138.162 18.7555L140.289 19.6048L143.125 21.0745L145.282 22.4481C146.05 22.943 146.884 24.8114 147.386 25.742L148.383 27.5662C148.878 28.4746 148.612 31.1629 148.191 32.1747L146.574 36.0446L145.193 38.0682L143.066 40.4906L135.112 56.1992L132.667 60.5196L130.304 64.6628C129.809 65.5343 132.254 65.298 134.418 67.3142L135.555 68.3777L135.533 68.3259Z" fill="#090706"/>
<path d="M46.4064 144.868L46.8791 145.37C42.7138 154.291 39.6636 163.575 37.736 173.22C36.835 185.14 36.8424 197.104 37.7582 209.113C38.2087 210.309 37.9871 211.085 37.0787 211.461L35.6164 211.1L31.3994 209.416C31.2886 209.682 30.9637 210.413 31.2222 209.822L32.0493 211.011L30.3728 210.154L27.8692 208.869L26.5694 207.909L23.7113 205.265C23.2681 204.859 23.246 203.109 23.3937 202.488L25.1809 195.051L27.042 185.221L27.7658 181.396L28.172 180.657L28.2163 183.227C28.3493 183.279 28.9179 183.493 28.4896 183.331L29.206 180.657L29.9888 177.74L30.4836 175.421L31.0966 173.08L31.6357 171.034L32.2783 168.604L33.4747 165.584L34.8262 162.888L35.9045 160.827L36.8055 157.674L37.965 155.192L39.0654 152.814C39.7079 151.426 40.1658 151.367 40.6089 150.577L42.1746 147.748L43.9397 145.518C44.1022 145.311 44.7004 144.964 44.9441 144.949L46.4138 144.86L46.4064 144.868Z" fill="#131313"/>
<path d="M10.2773 77.1071L9.36886 77.7866C8.58601 76.4277 7.76624 73.7763 8.20197 72.3805L10.4028 65.4161L13.2536 60.2833C13.4013 60.0248 14.8857 59.8623 14.7897 60.0987L14.221 61.6422L11.2374 70.704L10.2699 77.1071H10.2773Z" fill="#444444"/>
<path d="M135.533 68.3259C135.666 68.4441 136.079 68.7838 136.131 68.9684L136.596 70.6819C136.685 71.0068 136.914 71.7897 137.076 71.9817L137.911 72.9713L135.584 72.3436L130.769 72.2549C130.444 72.2549 129.425 71.7158 129.13 71.5829L126.53 70.4751C126.523 70.6597 126.582 69.6553 126.582 69.4116L128.406 67.7056C129.565 66.6199 131.744 66.8784 132.512 67.6982L134.602 69.9138L136.035 71.7527L136.138 70.6375L135.548 68.3333L135.533 68.3259Z" fill="#E9EAEB"/>
<path d="M147.394 53.3189C146.884 55.7043 145.016 57.9347 143.354 59.3232L142.564 59.9805C142.401 60.1134 142.187 59.1607 142.29 58.9687L143.479 56.7605C144.558 54.759 145.584 52.6321 145.887 50.2835L146.53 45.3427C146.699 44.0429 148.708 47.1964 148.236 49.412L147.401 53.3263L147.394 53.3189Z" fill="#3F3F3F"/>
<path d="M117.409 28.7774L117.638 25.8159L117.823 20.3581C117.845 19.7968 117.143 18.2016 117.033 17.9505L115.098 15.4838L116.117 14.6566L118.753 16.2519C119.44 17.6846 120.43 20.1735 120.23 21.6653L119.625 26.1482L117.417 28.7774H117.409Z" fill="#393939"/>
<path d="M20.5059 75.4306L20.8013 76.1987L22.1454 83.5619C22.4261 83.6136 21.4881 84.2487 21.1484 84.2414C19.6344 82.8603 18.3863 80.1499 18.4749 77.89L18.7555 71.2505C18.7703 70.9773 19.1544 69.8695 19.1544 69.9507C19.9298 68.8798 20.3286 69.286 20.3582 71.1693C20.1735 72.9565 20.2178 74.3745 20.5059 75.4306Z" fill="#4A4A4A"/>
<path d="M36.5617 233.211C36.3771 230.878 36.8202 229.644 37.8911 229.526L39.154 234.814L42.0712 241.387L41.3696 242.288L39.6119 240.272C39.2131 239.814 38.3268 238.558 38.1126 237.916L36.5617 233.211Z" fill="#4C4C4D"/>
<path d="M111.486 108.857C111.294 108.79 110.519 108.251 110.223 108.251L106.944 108.266L103.968 108.177C103.761 108.273 104.618 107.764 104.788 107.756L110.105 107.572L111.449 107.527C111.708 107.52 110.785 106.737 110.652 106.508L109.396 104.307L110.482 102.985L111.449 104.307L113.222 106.412C113.443 106.678 113.495 107.697 113.2 107.867L111.479 108.857H111.486Z" fill="#DBDBDB"/>
<path d="M37.8911 229.526L37.3446 230.87L36.9236 232.849L36.5618 233.211C35.934 231.313 35.7051 225.523 36.9458 224.497L37.4111 227.022L37.8911 229.533V229.526Z" fill="#343434"/>
<path d="M20.5059 75.4306L20.3508 78.7171C20.5207 78.8352 20.1958 78.6137 19.8708 78.3921L19.989 71.2505C19.8708 70.9698 19.4055 69.6996 19.1544 69.9507L19.2357 69.4632C19.6049 68.9758 19.7822 68.3776 19.7748 67.6612L20.7497 67.159C20.757 67.0925 20.89 68.2003 20.8826 68.4219L20.7201 71.4499L20.5133 75.438L20.5059 75.4306Z" fill="#191919"/>
<path d="M110.851 108.864L110.29 109.964C110.068 109.935 109.44 109.883 109.278 109.728L108.355 108.849L110.851 108.864Z" fill="#DBDBDB"/>
<path d="M33.6815 160.842L34.1246 159.638L35.7568 156.226L36.8055 154.033L36.7243 155.599L34.1911 160.547C34.1468 160.628 33.9105 160.783 33.6889 160.835L33.6815 160.842Z" fill="#131313"/>
<path d="M29.2133 175.229L29.7968 172.91L30.9784 168.213C31.0227 168.028 31.4289 167.223 31.5323 167.437L31.2221 169.365L29.9002 174.712C29.7598 174.845 29.3315 175.362 29.2059 175.229H29.2133Z" fill="#131313"/>
<path d="M28.1793 180.229L28.2384 178.552L28.7111 177.917L28.8662 179.771L28.1793 180.229Z" fill="#131313"/>
<path d="M19.2357 69.4558L19.4204 68.3628L19.7748 67.6538L19.9521 69.0497L19.2357 69.4558Z" fill="#4A4A4A"/>
<path d="M28.7186 177.474L28.9033 176.403L29.2208 175.635L29.3685 177.046L28.7186 177.474Z" fill="#131313"/>
<path d="M31.4954 166.861L33.039 162.327L33.6741 161.204L33.4156 162.77L32.1823 166.374C32.1306 166.529 31.5102 167.157 31.488 166.854L31.4954 166.861Z" fill="#131313"/>
<path d="M71.5757 144.69L75.2536 145.274C75.9035 145.377 77.0852 146.16 77.2994 146.692L78.8946 150.577L80.4972 153.494L82.5356 156.98L85.7556 161.492L87.949 164.336L89.655 166.47L96.5234 173.619C96.745 173.464 97.6017 172.88 97.5205 172.932L95.7701 170.931L94.0419 168.671L92.5501 166.396L90.268 163.59L87.7422 160.621L86.4572 158.612L84.8989 156.263L83.3627 153.944L82.2919 152.32L80.4898 149.1L79.3451 147.416C79.19 147.187 79.4042 146.286 79.6627 146.323C80.2978 146.397 81.9521 146.655 82.2919 147.157L84.0865 149.772L85.2829 151.537L87.1145 154.24L88.1189 153.819L85.3494 149.698L84.1973 147.977C83.6064 147.098 87.5207 147.12 89.7141 149.181L95.1867 154.314L97.5057 156.352L99.3742 157.836L102.41 160.318L104.625 162.127L107.35 164.358C107.601 164.468 108.318 164.417 108.864 164.306L104.271 159.779L102.845 158.73L100.031 156.175C99.8321 155.99 98.9901 155.096 99.1969 155.192L103.739 156.751L109.042 158.154L112.764 158.966L119.854 160.975L122.335 162.076C122.439 163.567 122.38 166.101 122.055 167.607L120.969 172.592C120.895 172.925 119.905 173.759 119.647 173.708L116.228 171.935C115.784 171.706 114.817 171.536 113.783 171.403L116.168 173.693C116.545 174.055 117.712 174.845 118.163 175.059L120.866 176.352C121.434 176.625 122.786 177.43 122.941 178.021C123.31 179.409 122.919 182.422 122.158 184.283L121.346 186.27C120.186 187.082 119.27 187.333 118.591 187.031C111.442 180.532 103.953 174.21 96.6859 168.109C97.7346 168.575 98.1482 169.298 97.9193 170.288L98.0153 170.864C98.4215 171.75 98.8277 172.555 99.5957 173.183L100.408 174.572L101.789 176.551L112.299 186.994L115.334 189.534L117.527 191.292C117.874 191.565 117.978 192.939 117.734 193.367L116.523 195.546C116.412 195.745 115.925 196.358 115.895 196.388C115.563 196.713 115.245 197.008 114.75 196.986C112.867 196.92 93.7539 177.762 91.1838 174.874L106.723 205.531L106.25 208.094L105.039 208.817L101.368 210.878C99.6105 211.868 97.1881 213.101 95.0537 213.249L90.1277 213.596L87.2696 213.012L86.0362 212.636C81.1176 201.417 76.9227 189.955 73.4516 178.242C72.0853 167.031 70.8224 155.82 69.6703 144.609L71.5609 144.713L71.5757 144.69Z" fill="#2D2D2D"/>
<path d="M83.5548 102.202C84.9654 101.021 85.9107 100.821 86.3908 101.597L87.4026 105.068L88.2519 107.343L89.3745 109.824C89.7142 110.57 90.7186 112.04 91.3907 112.549L93.6949 114.292C94.0494 114.558 95.2827 115.083 95.7406 115.053L98.7317 114.854C98.9237 114.913 99.5367 115.607 99.5589 115.836L98.4511 119.204L95.7923 126.611L95.0021 128.443L93.7097 131.109L92.2252 134.092L90.9475 136.795L88.9683 141.382L87.9122 143.974C87.6906 144.513 87.181 146.293 86.7748 146.574L79.6996 144.978L74.1385 143.789L66.5094 142.733L58.1492 142.6C56.3767 142.881 53.3783 143.169 51.6058 142.903C48.9618 142.512 47.9869 139.277 48.3414 136.818C49.0504 131.965 53.7401 129.912 58.0089 128.472C68.7841 124.846 72.6836 127.01 81.738 132.682C87.2179 137.726 83.3406 131.382 81.354 129.152C77.7573 125.119 75.5121 124.58 70.3129 124.218C59.5155 124.617 38.7553 125.245 44.8999 108.354L44.8186 107.719L46.6723 104.935L47.8392 103.502L50.0918 100.644L52.8982 97.7712L53.8066 99.4403L56.8641 102.727L59.7075 105.12L62.2407 107.055C62.9349 107.586 64.9437 107.911 65.8669 107.69L69.663 106.804L72.4103 105.925L76.2064 104.617L80.7631 103.103L83.5696 102.202H83.5548Z" fill="#2C2C2C"/>
<path d="M119.632 75.5044L109.832 89.4184C108.207 91.2057 106.405 92.7566 104.411 94.086C103.119 97.0697 101.206 97.6162 98.6282 95.5261C99.1969 94.6694 98.7759 94.47 97.3505 94.9205L97.6164 95.4006C95.9621 96.6413 93.488 99.2927 95.29 100.881C95.4525 100.452 95.9326 99.95 96.1394 100.112C99.3594 102.69 102.705 105.533 100.571 109.883L100.822 110.393L99.8246 112.808C99.5144 113.561 95.999 114.47 94.3964 113.155C91.1025 110.452 90.1424 108.576 88.7835 104.787L88.2518 103.318C87.4394 100.186 87.4099 97.0475 88.1632 93.8866L89.3301 93.3474L89.98 90.2382L91.0656 85.8366C91.1838 85.3639 92.0405 84.101 92.4097 83.7686L94.6992 81.7451L98.0669 78.9239L102.025 75.1721L103.805 73.0894L106.11 70.3938L108.177 67.9418L110.836 64.0867L112.742 60.9775L114.455 58.1784L115.784 56.2656L119.669 51.2731L121.442 49.1461L123.473 46.7459L126.818 42.8612L129.359 39.8479L130.777 37.9351L132.202 35.9928C132.593 35.461 132.52 33.792 132.202 33.1199L131.102 30.7344C130.252 28.8955 131.094 26.3401 131.441 24.4716L132.025 21.3772C132.291 19.974 133.576 22.6179 134.935 23.1423L137.711 24.2132C137.955 24.3092 138.251 25.3874 138.007 25.513C137.645 25.6976 136.692 25.9856 136.286 25.8601L133.531 25.0255L133.613 26.6799C134.078 26.8276 135.356 27.0934 135.695 27.3889L138.081 29.4863C138.812 30.1288 139.078 32.4035 139.181 33.3415L139.336 34.8111L140.4 32.4995C140.769 31.7019 143.516 33.1494 144.447 32.2706L146.456 30.3578C146.411 30.2618 146.5 30.4759 146.899 31.3843L144.033 37.1375L142.335 38.6072L140.333 42.4845L136.227 50.6601L134.322 54.2051L131.316 59.6407L128.997 63.289L127.21 66.0807L125.843 67.8901L124.337 69.766L122.631 71.9004L120.629 74.404L119.654 75.5044H119.632Z" fill="#FBB36C"/>
<path d="M33.1939 12.5074L33.5854 13.8885C33.8512 14.8117 33.5411 16.7097 33.0979 17.7732L31.1113 22.5589C30.6755 23.6002 31.2147 26.0743 31.6209 27.1304L33.2161 31.2515L35.0477 35.5424L36.1924 38.238L39.0431 44.2645L40.6901 48.0679L42.721 53.9245L44.4935 59.7885L48.0976 67.4545L49.8036 70.608L51.3988 73.4588C51.6573 73.9167 52.3959 75.1131 52.8021 75.5045L56.384 78.9978L58.3485 81.4423L59.7738 83.4511C60.0028 83.7761 60.2613 84.847 60.0249 85.1941L58.4371 87.4909L56.5464 90.0758L54.9143 92.3062L52.7799 95.2234L51.5613 96.6857C50.3132 97.7196 49.2128 96.2721 50.1876 95.0166C50.1876 93.2958 50.4387 91.5159 50.9409 89.677L50.4387 89.3225C49.9587 91.1245 48.8878 90.9842 47.2113 88.9089C39.2352 84.6771 35.0255 75.379 33.8734 66.7898C31.0891 63.3113 28.9474 59.434 27.4408 55.1431L27.1232 54.0131L26.0154 49.5228L24.9445 44.0207L24.4497 41.1478L23.8884 37.8909L22.7289 31.1924L22.0199 28.0536C21.8279 27.2043 20.7349 25.6607 20.1514 25.0699L18.7482 23.6593C17.729 21.8499 17.0717 19.9814 16.7689 18.0612C17.1825 17.5516 17.7438 17.8692 18.4602 19.0287C19.6123 20.0848 21.1558 20.203 23.0982 19.3832L23.785 21.4363C23.8515 21.4363 24.3906 20.9489 24.4571 20.7421L25.2768 18.172C25.5501 17.3079 28.0316 14.7895 30.1512 14.5236L30.2472 13.5045H27.197C26.7244 14.3464 26.296 14.1987 25.9194 13.054C24.3611 12.633 24.9814 12.0422 27.7879 11.2962H28.2753C29.8927 10.8162 32.4554 10.5872 33.2013 12.5001L33.1939 12.5074Z" fill="#FCB46C"/>
<path d="M82.0038 47.4327L77.8901 46.4135L74.9729 45.5273L71.2433 43.6736L69.1607 41.3176L67.2922 39.7815L66.2287 38.6958L64.6999 36.916L62.9865 34.1982C62.8092 33.9175 61.4799 33.3341 61.5094 33.659L61.8787 37.9795C61.9452 38.7549 62.3514 40.3871 62.632 41.0296L64.5596 45.4682L66.8047 48.8211L66.1327 49.8256L64.4193 48.8507L63.0087 48.0457C60.217 46.4578 58.0235 43.8803 58.0457 40.6529L58.0679 36.2882V33.6664C58.2082 33.6443 57.6469 33.7329 57.5583 33.7476L57.093 36.3104C57.0191 36.7166 56.7754 37.7136 56.5686 38.0016L55.158 39.9366L53.5776 42.3073C53.1492 42.9424 52.3959 44.678 52.3442 45.5051L51.938 52.2554L51.8125 55.0987L51.6574 57.4029L51.1108 60.7411L50.1138 65.1354L49.0282 65.4308L47.5733 62.7942C47.0711 61.8932 46.1036 60.0173 46.0445 59.072L45.7786 54.5743L45.6088 50.6823L45.5645 48.2672L46.2144 42.7799C46.3399 41.7312 46.687 40.0178 47.0711 39.2202L48.9248 35.365C49.2128 34.7594 49.9587 33.4079 50.4536 32.9869L53.7843 30.1288C54.5155 29.5011 56 28.8364 56.9231 28.4524L60.0841 27.1378L62.0633 26.3106C62.4991 26.126 63.7767 25.6311 64.2715 25.5647L69.2271 24.9295C70.069 24.8188 71.9745 25.1659 72.8607 25.3579L76.0586 26.0521L79.1826 26.9827C79.7734 27.1599 81.0806 27.832 81.6271 28.1939L83.9461 29.73L86.2282 31.5542L88.3183 33.659L89.8249 35.594L91.7746 38.105L93.3772 40.3206L95.2605 42.9424C97.6977 46.3323 100.194 47.5804 100.15 47.7946L99.9059 48.9467L102.417 51.31L104.876 53.208L109.337 55.3424L112.143 56.4428C112.461 56.5684 113.059 57.3439 112.867 57.6097L111.656 59.3157L109.935 62.5801L108.052 66.2137C107.69 66.9153 105.91 67.1294 105.297 66.7749L102.336 65.0616L96.036 58.7471L93.4289 55.3055L91.9002 53.4518L90.3714 51.6054C90.3935 51.4134 90.46 50.6601 90.4379 50.8669L92.5427 51.1254C92.8676 51.1623 93.7908 50.7783 94.1748 50.5863L93.6357 49.4711C93.5028 49.1978 92.7273 48.5331 92.4245 48.4371L89.4187 47.5213L86.6492 46.5539L80.9772 43.8508L78.7542 42.3073L76.4869 40.616L74.5667 39.1833L72.0779 37.3295L69.6998 35.5571C69.914 36.1774 70.2315 36.9529 70.4679 37.1892L72.713 39.3753L76.4278 42.7873L79.2047 44.6558L81.3539 46.2732L82.0185 47.4253L82.0038 47.4327Z" fill="#292929"/>
<path d="M67.5654 144.277L66.9598 145.385L60.9777 145.503C61.4503 153.147 63.5551 160.451 67.3069 167.408C69.0129 176.388 70.4826 185.428 71.7086 194.542L76.8266 215.014C77.5356 215.243 77.9935 215.664 78.2003 216.269C77.8901 216.454 77.3214 216.964 76.9669 217.023L75.128 217.333C74.9507 217.362 74.515 216.897 74.3821 216.764L73.4294 216.432C73.1266 217.724 71.9227 218.219 70.3718 218.16L68.592 218.094L60.4828 217.783L58.0235 217.348L57.0486 216.779C53.932 207.702 51.6795 197.703 50.0769 188.175C49.523 184.874 47.3148 166.101 48.5776 164.816C48.8731 164.513 49.2793 164.468 49.6781 164.528L49.9439 168.774L50.4683 167.615C50.6012 167.327 50.8966 166.152 50.904 165.783L51.0148 158.87L51.7534 156.766L52.4254 154.085L52.6396 150.99L52.935 148.051L53.2009 145.303C53.2747 145.052 53.5923 144.284 53.6514 144.196L54.7518 144.809C53.9837 154.986 53.6218 165.177 53.6514 175.384C55.483 180.738 57.9866 185.805 61.1475 190.583L62.1002 193.168L61.3839 171.049C60.8669 169.727 61.0884 168.848 62.0411 168.427L62.9274 169.217L63.1859 168.05L61.6054 162.977L60.7487 160.473L59.5227 155.473L59.1904 151.995L58.9984 149.262L59.1609 146.529L59.3307 143.708H66.8047C66.9524 143.789 67.846 144.27 67.5654 144.277Z" fill="#141414"/>
<path d="M55.8227 71.162C55.8227 70.6524 55.675 70.4086 55.2614 70.0985L55.062 69.6554C55.3205 68.5845 55.1211 68.1487 54.4711 68.3408L53.5627 66.3246C53.4298 66.0218 52.4919 65.5122 52.2703 65.298C52.0266 65.0616 52.2555 64.1754 52.3294 63.7618L53.0236 59.9658L53.9689 54.9511C54.1388 54.0575 57.5139 50.483 60.9333 51.5021L62.2184 50.7415L65.4901 51.5982C66.2877 51.805 68.2005 51.6646 69.0646 51.576L72.8237 51.1772C72.9124 51.4135 72.6834 50.7858 72.6243 50.6159C71.8341 50.2614 70.1946 49.5967 69.685 49.1093L66.7678 46.2807C65.8667 45.4018 64.9214 43.0385 64.3232 41.5984L64.8845 40.7122L67.4029 43.1863L70.3866 45.5939L72.5283 46.4727C72.6982 46.5983 72.9271 47.3073 72.9271 47.5731V48.8508L74.6332 48.6366C75.608 48.5185 77.3362 48.5037 78.1781 48.7179L81.0658 49.4638L86.7082 50.9039C87.3581 51.0738 88.5989 52.5657 88.9164 53.1786L90.4009 56.0737C90.6151 56.4946 90.8588 57.92 90.844 58.4592L90.7332 62.3734L90.4304 65.106C90.0685 68.3777 88.525 72.1073 86.5605 74.6109L85.3419 76.1618L82.0407 79.6256L79.766 81.2503C78.4218 82.2104 75.4825 83.0671 73.8429 82.6388L68.555 81.2503L62.9865 78.4882L59.6778 76.1692C58.0974 75.0614 56.7237 72.868 55.8448 71.1841L55.8227 71.162Z" fill="#FBB36C"/>
<path d="M126.161 186.433L122.431 197.887L121.752 200.11L118.82 208.884L117.646 212.038L116.028 216.1L114.507 219.416L110.607 226.646L108.178 230.39C107.52 231.395 106.22 232.717 105.312 233.448L103.067 235.25C102.232 235.922 100.113 237.059 99.0788 237.111L95.2384 237.288C94.6771 237.318 93.0523 236.941 92.5353 236.683L88.9018 234.895C88.4069 234.652 87.4542 233.677 87.1588 233.27L85.7113 231.306L84.1899 229.053L81.6789 224.238L81.1545 223.012C80.3791 217.51 85.6596 216.343 90.1056 217.495C94.2414 217.377 98.1704 216.461 101.907 214.748L102.52 214.733C103.155 216.742 103.51 218.913 103.576 221.247L103.591 221.823C104.935 221.86 105.393 220.368 104.965 217.34C104.817 213.035 106.087 210.804 108.584 207.518L112.749 203.153C111.553 202.2 112.047 201.218 114.234 200.214L116.228 198.419C119.699 195.295 118.82 191.403 119.566 190.295L122.092 187.503L123.576 184.195L124.226 182.031C124.337 175.702 127.106 180.015 126.626 184.099C127.749 184.461 127.601 185.236 126.176 186.425L126.161 186.433Z" fill="#FCB66F"/>
<path d="M70.3276 227.118L70.66 224.94C70.7634 223.78 71.8933 223.396 72.9273 223.581C77.8385 224.46 76.9523 231.35 73.976 234.134L71.7456 236.003L69.8993 237.421L63.8285 240.833C61.8197 241.963 57.13 242.731 54.7519 241.926L52.1301 241.04C49.2277 240.058 47.0564 235.257 46.1849 231.483L45.3651 227.946L44.5823 224.142L44.2278 221.218L43.7994 216.639C44.1687 215.848 44.9516 215.656 46.1554 216.077C51.9233 219.297 57.0192 221.867 63.7251 222.362C67.0264 223.551 68.533 225.649 68.1711 229.231C69.1312 229.792 69.8476 229.083 70.3202 227.111L70.3276 227.118Z" fill="#FCB670"/>
<path d="M39.2648 211.86L37.0861 211.461L36.6799 209.519L36.3476 203.005L36.0448 197.983L36.03 177.585L36.643 173.028L37.5219 168.641L39.2648 161.921L40.8896 157.009L42.3962 153.346L43.5409 150.754L46.4065 144.86H47.0047C47.5733 144.964 48.0165 145.156 47.95 145.798C46.6797 151.515 45.727 157.29 45.0919 163.139C45.4907 179.121 45.2322 195.103 44.309 211.092C43.8954 212.658 40.7419 212.215 39.2648 211.86Z" fill="#2F2F2F"/>
<path d="M67.5654 144.277L68.1119 147.046L68.9538 152.999L69.4486 159.749L69.8622 165.325L70.9626 175.768L71.5165 179.668L73.5179 187.585L74.419 190.576L75.7483 194.771L76.5386 197.274L78.0526 201.92L80.0171 207.636L81.1692 210.981L82.0628 213.581C82.0259 213.707 81.4646 214.342 81.3021 214.467L78.215 216.269L76.3761 216.469C76.1102 216.498 75.8222 215.479 75.7557 215.228L74.9507 212.311L73.4072 206.72L72.4766 202.976L71.6864 199.468L70.6377 194.763L70.0025 191.595L67.6688 174.549L67.1813 171.005L66.2729 167.77L64.9879 164.587L63.6068 161.537L62.3661 158.774L61.273 155.547L60.4976 152.017L59.9141 145.909L59.759 144.255L67.5801 144.277H67.5654Z" fill="#2D2D2D"/>
<path d="M58.1492 142.6C58.4668 142.682 57.6544 143.154 57.4697 143.154H53.1862L49.7964 143.302L45.9781 143.664C45.7049 143.693 44.8556 143.413 44.8851 143.14L45.1953 140.4L45.6089 136.611L45.3578 132.704L44.8039 129.853L44.0653 126.619C43.8511 125.688 43.8068 124.359 43.8585 123.354L43.0461 118.288L43.1569 112.195C43.1791 110.858 43.8364 108.783 44.8851 108.347L45.0402 109.477L44.2352 113.362C43.7256 115.814 48.0756 121.419 52.5068 122.158L56.4358 122.815L59.7297 123.11H70.3719L74.877 123.65C77.4693 123.967 80.6376 126.286 82.4322 128.738L83.8871 130.725L84.7808 131.973L85.8443 134.787L86.1323 136.618C85.2904 136.308 83.9167 135.739 83.3111 135.274L81.125 133.598L77.4693 131.493L74.9804 130.053L72.4842 128.856L68.6216 127.704C67.8314 127.468 65.6306 127.49 64.8329 127.712L58.3634 129.506L56.3989 130.296L53.4521 131.781L51.916 132.571C50.4315 133.332 49.2498 135.422 49.4566 136.995L49.8924 140.304C49.9736 140.946 51.2143 142.578 51.6575 142.586L58.1418 142.6H58.1492Z" fill="#131313"/>
<path d="M87.1587 89.0714L86.8042 90.4229L86.0952 93.1259C85.9844 93.5469 85.9032 94.5513 85.8958 94.9723C85.6521 96.3681 85.2385 97.6827 84.6403 98.9013L83.7688 100.172L81.0806 101.375L78.215 102.365L71.0586 104.647L66.657 105.807C63.9982 106.508 62.8166 105.88 60.7339 104.086L58.053 101.774L54.7739 98.5246C54.8256 98.34 55.2614 97.114 55.4903 96.7669L57.2332 94.1377L60.1135 90.2161L61.2804 88.7612C63.112 86.8188 63.8062 87.9562 64.1533 90.0832L64.4192 89.5957C65.5048 90.0462 66.5905 90.5189 67.6835 91.0137C68.8652 89.7656 69.84 90.578 70.6229 93.4583C72.772 93.1776 74.5962 91.6784 76.0954 88.9458C78.3923 86.4274 81.0215 86.4496 82.7792 88.8867L83.1632 88.6873C82.661 87.838 84.9136 85.2162 85.5339 85.1571C86.2281 85.0981 87.8603 88.0079 87.1661 89.0714H87.1587Z" fill="#FCB26B"/>
<path d="M58.1566 146.515C57.6839 150.207 57.8242 153.944 58.5849 157.726L60.2614 163.545L60.867 164.845L60.8818 165.259L61.997 167.615L62.0339 168.42L62.477 170.931L62.802 179.069L63.0161 184.113L63.0826 190.251L63.2451 194.667L63.8137 198.965L64.2126 201.484L63.2672 200.302L61.7606 195.546L60.1358 191.056L58.548 188.19L57.0709 185.76L55.3871 182.939L53.4373 178.434L52.5289 175.746L52.6619 159.853L53.2232 151.965L53.585 149.173L53.6441 144.188L56.9011 144.048L58.1418 143.804V146.515H58.1566Z" fill="#2D2D2D"/>
<path d="M48.4668 144.831C48.9174 144.838 49.5377 145.015 49.5156 145.318C49.0724 153.22 48.6515 161.064 48.4595 169.025C48.4447 169.483 48.1567 169.697 47.6323 169.742L46.9824 168.626C46.8568 168.353 46.495 167.541 46.5614 167.681L46.5245 179.978L46.9012 182.023L47.9794 190.76L48.3339 192.924L48.6219 194.682L49.0872 197.54L49.4639 200.051L50.0104 202.798L50.328 204.615L50.7932 207.547L51.4875 211.89C51.4801 212.185 50.7932 212.99 50.6381 212.894C49.7667 212.65 48.2896 212.333 47.6988 212.34L44.2572 212.37L39.9885 212.407C39.826 212.407 39.1465 211.772 39.2647 211.853L43.1863 211.831L43.3045 203.589L43.6294 200.812L43.8732 190.841L44.2129 187.489L44.3532 178.05L43.9913 163.065L45.3945 152.556L46.4728 149.21L47.5806 145.843L47.0119 144.853L48.4668 144.823V144.831Z" fill="#131313"/>
<path d="M115.91 196.366L114.773 197.606L113.694 198.781C112.956 199.586 112.055 199.143 110.696 200.657L110.194 201.211C109.367 201.764 108.591 201.417 107.875 200.177C108.835 201.233 109.263 202.311 109.16 203.434L109.027 204.549C108.968 205.044 107.949 204.593 106.892 206.764L106.257 208.072L105.696 205.908L103.355 201.055L100.556 195.487L99.4111 193.227L98.1334 190.709L96.6416 187.769L95.519 185.561L94.3817 183.316L93.5841 181.876L91.6417 178.316L89.6107 174.202L88.0894 171.61L88.8279 170.864L90.6004 172.725L92.8825 174.97L94.9282 177.334L99.9576 182.481L101.523 183.626L107.276 189.202L109.027 190.819L111.412 192.924L114.078 195.28L115.895 196.381L115.91 196.366Z" fill="#131313"/>
<path d="M50.8819 152.497C50.7194 153.649 50.5422 154.794 50.3575 155.931V158.627C50.1803 159.934 49.9956 161.234 49.8036 162.533L49.6781 164.52L49.2719 165.864V169.143L49.3383 177.031L49.5968 179.771L49.9883 182.991L50.4018 185.783L51.746 192.223L52.7356 196.233L53.4741 199.231L54.3161 202.798L55.254 206.956L55.9925 210.236L56.9157 213.692L57.6986 216.292C57.7429 216.439 57.189 216.757 57.0413 216.786L54.4416 215.427C53.7843 215.088 52.7061 213.788 52.5953 213.049L52.1669 210.154L51.8567 208.049L51.4432 205.25L50.9336 204.098L50.9114 201.366L50.3723 200.228V198.035L49.8184 195.79V194.143L49.2645 191.927V190.819L48.718 187.43V186.986C48.5333 185.679 48.3487 184.379 48.1567 183.072V180.842C47.9868 179.372 47.8022 177.902 47.6028 176.44L47.6176 169.786V166.463L47.6766 152.009L48.0607 147.711L48.4521 144.875L51.6795 144.727L51.0961 149.365L50.8671 152.541L50.8819 152.497Z" fill="#303030"/>
<path d="M95.0168 61.1104C97.1733 64.5299 99.4701 67.8754 101.907 71.1397L101.353 72.2697L100.445 74.729C99.9502 76.0658 98.0743 77.5576 97.3284 76.8634L96.1541 75.7704C95.9399 75.571 95.1275 76.2283 95.2679 76.4867L95.7405 77.3434L96.228 78.2223L94.0788 80.4084C93.9459 80.5413 93.0227 81.0435 92.8085 81.1469L91.3241 78.2001C91.1395 78.082 90.6889 77.7866 90.9179 77.9343L91.1321 80.172L91.7007 81.9888L90.5117 83.1336C90.2901 83.3477 89.4187 83.8942 89.1306 83.7982L86.7156 82.9932C86.2282 82.8308 85.9771 81.206 86.1174 80.7112L87.1809 76.9298L88.0524 75.1057L89.6328 72.7276C89.8839 72.3583 90.4305 71.2874 90.5708 70.8443L91.5826 67.6317L92.3654 64.8917C92.491 64.4634 92.9341 63.4368 93.1483 63.0528L94.1748 61.2064C94.2708 61.0292 94.7435 60.3128 94.8026 60.4974L94.9946 61.1104H95.0168Z" fill="#121213"/>
<path d="M50.4387 89.315L50.8597 89.64C50.483 91.4346 50.2615 93.2219 50.195 95.0091L51.5687 96.6782L50.5126 97.8451L48.3782 100.194L46.9011 101.826L43.5334 94.6324L42.0563 91.6488L40.7565 89.1156L38.408 83.5544L37.1303 80.5634L35.5499 76.5383L34.6932 74.1233L32.4185 67.4322L31.318 64.1974L28.4968 58.9243L27.9651 56.9302L27.4481 55.1356C27.5441 54.8402 28.2384 55.527 28.2974 55.7043L29.7154 59.7071L30.6238 61.5535L31.8203 62.5874L32.3077 64.0571C33.5927 64.0276 34.996 66.0364 35.0329 66.8783L35.1363 69.6774L36.6872 74.1676L38.2529 77.6904L40.3356 81.2502L41.7683 83.1482L45.4832 86.6341L47.6471 87.8527C48.2083 88.1703 49.1167 89.1451 49.6411 89.8024L50.4609 89.315H50.4387Z" fill="#DC8E53"/>
<path d="M134.639 175.945L130.304 174.823L127.675 175.517L124.086 176.883L121.996 175.133C121.708 174.889 122.01 173.648 122.106 173.272L123.133 169.217L123.739 165.502C123.768 165.31 124.455 164.793 124.654 164.83L128.251 165.584C131.257 166.211 133.812 167.423 136.574 168.818L139.536 172.024C140.06 172.592 140.496 174.343 140.562 175.354C140.629 176.292 138.369 177.216 137.483 176.913L134.639 175.938V175.945Z" fill="#F8F7F3"/>
<path d="M87.1588 89.0713L86.8486 87.2102C86.8117 86.9296 86.2947 86.4939 85.6079 85.8661C85.6153 85.8144 85.6079 85.8292 85.5192 86.3461C85.0687 87.3358 84.0496 88.3697 83.1559 88.6873L83.3406 88.8276L85.6153 88.6799L85.5414 90.1275L84.3007 90.4376C83.7911 90.2604 83.3997 89.965 83.1116 89.5662L83.0156 89.1821L82.7793 88.8867L80.896 88.7685C80.6006 88.739 80.0615 88.0743 79.6922 87.6977L77.351 89.3003C76.9522 89.5735 76.1251 90.5558 75.8001 90.9842L73.8356 93.5469C73.3925 94.1303 71.7456 94.6473 70.7707 94.603C68.7693 94.5144 69.7811 91.5307 67.691 91.0137C66.2656 90.1496 65.0914 89.8468 64.1682 90.0905L62.1963 88.5618L61.2953 88.7759L62.669 86.8041C62.8536 86.5308 64.242 86.9222 64.3307 86.9665L67.6171 87.4466L67.787 83.1335L69.1828 83.4068L72.9051 84.1453C76.0143 84.7657 78.8133 84.1306 81.5238 82.299L84.3819 79.6772C85.0761 79.042 83.9609 83.0818 86.5237 85.8809C86.9372 86.0877 87.7939 86.7819 87.7053 87.1142L87.181 89.0787L87.1588 89.0713Z" fill="#DB8D53"/>
<path d="M100.578 109.876L100.349 108.702L99.5587 104.61C99.4849 104.234 98.2515 103.576 97.9783 103.303L96.0581 101.375L95.29 100.873C93.1409 99.95 96.7375 94.9354 98.4288 95.3046C98.51 95.3194 97.0477 95.9693 97.3431 94.9206C97.5721 94.736 98.2072 94.3963 98.5026 94.2929C99.1156 94.0787 99.3889 95.2751 101.412 95.6961C102.801 95.9915 102.734 93.8867 103.864 93.1038L105.873 91.7227L108.99 88.6948L111.272 85.556L114.3 81.7525L116.36 79.4261L117.985 77.1515L119.632 75.5045L119.115 76.7526L118.03 78.4143L116.73 80.497L112.934 86.6564L109.913 91.9443L107.956 95.4598L105.401 100.696L103.65 104.544L101.427 109.448C101.287 109.566 100.777 109.994 100.578 109.876Z" fill="#DC9054"/>
<path d="M113.362 101.929L113.628 97.1139V92.2987C113.628 92.0698 113.835 91.0063 113.864 91.0284C115.386 91.1097 116.213 93.2071 116.368 95.3858L116.567 98.074C116.117 98.266 116.612 98.0519 116.973 97.9042L117.446 95.5187L117.727 94.0933L118.111 96.5379C118.369 98.1848 120.371 93.473 117.653 89.4701L116.42 87.6533C116.235 87.3801 115.74 86.5824 115.851 86.3239L116.892 84.0197C117.018 83.7464 120.297 85.2014 121.235 87.2102L122.956 90.9176C123.665 92.439 123.266 96.7004 121.944 98.7904L120.349 101.309C119.987 101.885 119.44 103.672 119.758 104.241C120.26 105.127 121.914 106.383 122.815 106.781C123.177 107.077 123.51 107.343 123.48 107.321L121.929 107.897C121.102 108.199 119.004 108.022 118.362 107.416L116.279 105.467C115.6 104.824 113.214 104.647 113.362 101.922V101.929Z" fill="#282828"/>
<path d="M71.5757 144.69L70.1724 144.897L70.5048 147.549L70.8371 149.779L71.3172 152.733L71.4723 157.474L71.8785 159.402L72.0926 165.148L72.4841 168.08L73.001 171.979L74.1679 178.05L75.6671 183.205L76.7528 186.122L77.8163 188.988L78.8945 191.654L80.3125 195.169L81.5607 198.338L82.8014 201.528L83.7393 203.936L85.3715 207.909L86.7599 210.967L87.2695 212.998C85.4897 212.636 83.4661 213.64 82.9786 212.193L81.0954 206.624L79.574 201.964L78.6213 199.098L76.5238 192.813L74.5298 186.565L73.5328 183.168L72.7204 178.286L71.8563 170.864L71.524 169.055L71.3615 164.291L70.9848 162.327L70.7116 155.421L70.3571 152.644L70.1281 150.458L69.8327 148.051C69.685 146.854 69.2714 145.518 68.8505 144.306C70.0173 144.233 70.9627 144.092 71.5683 144.705L71.5757 144.69Z" fill="#151515"/>
<path d="M70.3276 227.118L69.8032 229.016L68.976 230.974L67.8978 231.727L67.7944 230.028C67.5876 226.675 66.0219 223.891 63.149 223.374L59.3234 222.687L56.0074 222.104C55.4978 222.015 54.2275 221.528 53.7253 221.262L48.9765 218.758L46.5689 217.37C46.4359 217.296 45.9411 217.156 45.786 217.133L44.2647 216.897L44.2351 221.217C44.0726 221.528 43.8215 220.752 43.8068 220.597L43.4153 216.971L43.1642 214.652C43.1421 214.46 43.7994 213.544 43.9988 213.559L50.6825 214.091C51.074 214.12 51.9602 215.324 52.2778 215.553L54.8036 217.348C56.4653 218.529 58.7547 219.024 60.9703 219.142L69.0204 219.571C69.2641 219.585 69.7958 220.464 69.7589 220.715L69.4709 222.983L69.109 225.641L68.6068 229.364L69.1902 229.378L69.7589 227.886L70.3276 227.111V227.118Z" fill="#DF955B"/>
<path d="M103.569 221.24L102.993 220.604L103.008 216.24L102.343 215.752L100.268 216.269L98.8055 217.185C96.0877 218.057 92.1808 218.869 89.2267 218.529L85.7925 218.13C84.5075 217.983 82.9196 219.622 82.4322 220.56L81.1545 223.012L80.2387 221.21L78.7986 218.367C78.7026 218.167 78.9537 217.377 79.1531 217.281L82.1737 215.863C83.0895 215.427 84.7364 215.051 85.7334 215.036L91.9962 214.977L95.6889 214.467L99.8542 213.175C100.526 212.968 102.498 211.934 102.757 212.481C103.023 213.433 103.466 215.346 103.488 216.254L103.576 221.24H103.569Z" fill="#DF9559"/>
<path d="M121.36 186.248C120.998 187.127 120.06 186.794 119.883 187.208C119.913 187.725 119.854 188.707 119.588 188.98L118.281 190.302L113.694 185.775L111.959 184.446L107.011 179.608L103.251 175.554L99.9133 171.721L98.3476 169.919L97.934 170.259L97.4909 169.727L96.3978 168.412L96.6785 167.341L99.6548 169.786L103.887 172.637L106.915 175.258L110.164 178.08L112.535 180.125L114.736 182.016L119.152 186.071C119.499 186.388 121.094 186.359 121.353 186.255L121.36 186.248Z" fill="#131313"/>
<path d="M131.168 94.8985L130.363 96.826L130.031 95.6074C129.44 93.4509 128.923 90.7479 127.202 89.0419L122.269 84.1454L119.64 82.7569L118.709 82.2326C118.421 82.0701 118.532 81.0066 118.716 80.7186L120.489 78.0008C120.792 77.5355 122.18 78.2149 122.668 78.5177L125.474 80.2754C125.939 80.5635 127.047 81.2503 127.35 81.6565L129.278 84.2414C129.588 84.6624 130.282 85.8662 130.459 86.4275L131.648 90.2457C131.973 91.3018 131.611 93.8571 131.176 94.8985H131.168Z" fill="#252525"/>
<path d="M73.9832 234.134L74.8473 232.31C75.0688 231.911 75.3643 230.612 75.3199 230.139L74.8916 225.656C74.8325 225.036 72.7203 224.548 72.5357 224.703L70.6598 224.947L71.4426 219.209L75.3199 218.551C75.7409 218.478 77.026 218.463 77.1811 218.802L78.0378 220.693L80.8737 226.919L77.9787 230.006L75.2756 232.886L73.9832 234.142V234.134Z" fill="#DA8B52"/>
<path d="M55.9999 51.2805L54.028 53.4001L53.1344 52.8536L53.4815 48.4593L54.2127 45.0695C54.3308 44.5229 54.8404 43.1788 55.1358 42.7357L56.2215 41.1331L58.2081 46.1773L60.4311 49.4342L59.0501 49.8478C58.2598 50.0841 56.5169 50.7266 55.9925 51.2953L55.9999 51.2805Z" fill="#EAA667"/>
<path d="M55.062 69.6554L54.4712 68.3408L55.2836 67.1665C55.4017 66.7381 55.8006 65.6156 56.096 65.298L57.994 63.2006C58.5627 62.5654 61.2583 63.0529 62.1076 63.8505L63.5256 65.1725L62.9053 67.1074C62.7576 67.5801 61.7679 68.614 61.2805 68.7691L58.0162 69.7735C57.6617 69.8843 56.7828 69.323 56.1329 68.9907L55.0546 69.6554H55.062Z" fill="#F89462"/>
<path d="M101.353 72.2697L100.659 71.2949L98.7612 68.6361L95.4304 63.2301L94.8101 61.5905L95.0095 61.1105L96.265 62.4251L99.4702 65.778C99.7582 66.0808 100.718 66.7677 101.073 66.9744L103.909 68.614C104.182 68.7765 104.802 69.4338 104.618 69.6849L104.012 70.4973L102.314 72.8089L101.339 72.2771L101.353 72.2697Z" fill="#2A2A2A"/>
<path d="M114.595 54.929C113.775 55.1801 111.589 55.0397 110.799 54.6409L104.802 51.6351L103.392 50.7636C103.296 50.5864 102.86 49.7297 102.897 49.7961L104.728 50.0251L111.183 50.8375C113.938 51.1846 115.659 54.604 114.603 54.9216L114.595 54.929Z" fill="#E7E8E8"/>
<path d="M131.973 73.8871L130.821 75.3494L127.202 76.8339C126.848 76.9816 125.459 77.1662 125.083 77.0776L121.353 76.2283L124.381 72.1737L126.456 72.9713L128.546 73.3184L131.301 73.7689C131.7 73.8354 133.531 74.1382 131.973 73.8797V73.8871Z" fill="#202020"/>
<path d="M110.201 201.218L109.573 202.865C109.529 202.99 109.175 203.448 109.175 203.441C108.96 203.493 108.318 202.976 108.192 202.769L106.952 200.775L105.209 197.976L102.476 193.589L101.619 191.676L102.454 191.528L104.079 193.589L105.777 195.753L108.983 199.748L110.209 201.225L110.201 201.218Z" fill="#303030"/>
<path d="M89.3302 93.3475L88.5252 97.7713L88.252 103.318C88.1116 103.214 87.5134 102.852 87.506 102.638L87.3288 98.7018L86.9078 99.9869L86.3835 101.597L84.8916 101.811L83.5475 102.21L84.3894 101.309L85.608 100.364L86.0216 98.1258L85.5415 97.6014L84.6405 98.916L84.8916 97.4168L85.3347 95.5114C85.4307 95.371 85.8 94.8541 85.896 94.9796L85.8517 97.4759L86.1176 97.8451L86.6419 95.696L87.2549 93.1998L87.9418 90.3786L88.5104 89.2855L88.6138 92.9265L89.3302 93.3549V93.3475Z" fill="#1D1A1A"/>
<path d="M127.527 187.075C127.498 186.366 127.409 185.65 127.254 184.919L128.502 184.822L129.145 184.195C129.145 183.7 129.27 183.722 129.521 184.195L129.647 189.217C129.669 190.051 129.13 191.89 128.724 192.592C128.546 192.895 127.217 192.983 126.892 192.873L125.925 192.548C125.733 192.481 125.895 191.757 125.969 191.543L127.535 187.068L127.527 187.075Z" fill="#DEDDD7"/>
<path d="M103.584 221.816L104.662 221.631L104.625 214.593L104.367 212.008C104.345 211.764 104.574 211.004 104.78 210.804L107.048 208.692L108.576 207.503L108.392 208.943C108.096 211.299 106.796 210.967 106.42 212.54L105.275 217.37L105.179 221.225L104.913 222.761L103.658 223.699L103.584 221.808V221.816Z" fill="#D99158"/>
<path d="M128.856 182.311C129.004 185.251 126.124 186.292 126.7 182.511C126.367 181.115 126.043 179.786 125.718 178.515C125.703 178.501 126.257 177.725 126.471 177.644L129.58 176.462L130.607 176.699L129.713 179.896L128.849 182.319L128.856 182.311Z" fill="#D4BA9A"/>
<path d="M23.1572 8.94766C23.6372 9.92991 24.4349 10.3139 25.5353 10.1145C25.6535 9.95945 25.8824 9.70835 25.9415 9.52372C26.5692 8.43807 27.1896 8.84427 26.8277 10.0555L25.587 10.8974C25.3802 11.0599 25.4984 12.2858 25.5057 11.7024L27.7804 11.311L26.488 11.9978C26.3698 12.1234 25.8676 12.7142 25.8972 12.6773L27.1896 13.5266L26.7613 13.7334L26.4954 14.7452C26.3846 14.9076 26.0966 15.336 26.104 15.336C25.2694 13.2533 25.0552 13.2829 25.4467 15.4172L24.4496 14.5975L24.3906 16.3404C24.3906 16.5324 23.9917 16.9608 23.8145 16.9608L23.2089 16.7983C22.3596 14.6713 21.429 12.6699 20.4172 10.7718L21.7023 9.86344L23.1646 8.96242L23.1572 8.94766Z" fill="#391E12"/>
<path d="M142.615 28.7035C142.084 29.2943 141.604 29.6784 140.511 30.3283C140.776 28.5854 141.072 27.4258 141.744 26.3623L143.635 23.4082L144.905 24.2945L145.54 25.4023L142.608 28.6887L142.615 28.7035Z" fill="#DEA36D"/>
<path d="M108.576 207.51C108.606 207.222 108.96 206.772 109.189 206.425L110.149 204.992L111.183 202.895C111.427 202.392 111.811 201.344 112.166 201.137L114.219 200.214L112.535 201.683L112.852 202.311L115.127 200.856C115.127 200.856 115.423 201.292 115.784 201.838L112.631 204.763L110.888 205.945L109.884 206.661L108.569 207.51H108.576Z" fill="#E59955"/>
<path d="M23.8072 16.9534H22.6773L21.3627 14.7452L19.7453 12.5739C19.605 12.3893 19.2726 11.7172 19.4425 11.5695L20.4026 10.7645C20.7719 10.6537 21.9314 11.3405 22.1455 11.8058L23.5635 14.856C23.7555 15.2622 23.8515 16.5767 23.7998 16.9534H23.8072Z" fill="#DFA470"/>
<path d="M125.718 178.515C125.777 178.419 126.39 179.01 126.419 179.158L127.165 182.762C127.202 182.954 127.04 183.692 126.966 184.18L128.066 183.862L128.857 182.311L129.521 184.195H129.145L128.502 184.822L128.037 185.893L127.527 187.075L127.379 185.62L126.161 186.432L126.301 182.917C126.353 181.639 125.659 179.97 124.964 179.04L124.521 180.827L124.219 182.038L124.086 179.195C124.086 178.995 124.521 178.301 124.632 178.117L125.718 178.523V178.515Z" fill="#090706"/>
<path d="M20.314 18.5855L18.8443 17.4113L17.2638 16.045L16.7468 15.1366L18.1944 13.4453C18.3421 13.2681 19.3243 13.8515 19.4646 14.0362L20.4026 15.3065C21.3257 16.562 21.407 17.8249 20.3213 18.5929L20.314 18.5855Z" fill="#D29D64"/>
<path d="M144.033 31.3696L142.889 30.5424L144.373 28.3342L145.274 26.9975C145.422 26.7759 146.604 27.1747 146.692 27.4332C146.781 27.6917 146.759 28.7109 146.581 28.8881L144.041 31.3696H144.033Z" fill="#D19663"/>
<path d="M141.271 24.7671C140.223 25.8454 139.329 26.643 139.573 24.5898L139.61 22.0419C139.61 21.8794 140.459 21.3624 140.592 21.4584L142.327 22.7435C142.785 23.0832 141.574 24.2501 141.279 24.7671H141.271Z" fill="#E7B278"/>
<path d="M139.152 21.3404L137.793 22.8396L135.976 22.0567L135.998 20.3876L138.295 20.3655C138.465 20.3655 138.938 21.0376 139.159 21.3404H139.152Z" fill="#B78A66"/>
<path d="M23.7926 21.4363C23.7557 21.4363 23.4012 20.8381 23.3199 20.7126C23.2313 20.4762 22.9211 19.6491 22.9655 19.6417C21.7616 19.6934 19.583 21.6653 17.2861 18.305L16.8799 18.5413L17.552 20.3211L18.549 22.6106L18.7558 23.6593L18.2314 22.943L16.7987 20.0183C16.6214 19.6565 16.5919 18.6521 16.5107 17.5664C16.4294 16.9387 17.8105 16.7245 17.6702 17.5295L19.546 19.5235C19.8784 19.878 21.2816 19.398 21.7616 19.3315L23.6597 19.0583L23.7926 21.4363Z" fill="#CB9366"/>
<path d="M141.271 24.767L139.447 27.9723L138.472 28.3932L138.036 27.3445C137.785 26.7389 139.536 26.3475 139.558 24.5972C139.728 24.8926 140.252 24.9517 140.444 24.9074L141.256 24.7744L141.271 24.767Z" fill="#B07D56"/>
<path d="M25.5354 10.1145L24.0509 12.0495L22.6477 10.2623L23.1647 8.94767C23.2459 8.89597 23.8515 8.92552 23.9328 8.97721L25.5428 10.1145H25.5354Z" fill="#CCA164"/>
<path d="M27.6551 10.1515C27.5296 10.6389 27.3523 10.6168 27.1381 10.1367L26.8353 10.0481L25.9491 9.51633L26.3627 8.31254C26.5104 7.89158 28.3789 8.16482 28.4897 8.57101L28.7777 9.56064L27.6551 10.1515Z" fill="#B5895C"/>
<path d="M58.585 157.726L58.2231 156.404L57.6987 153.568L57.5215 147.187C57.5953 147.061 58.0975 146.219 58.1566 146.515L58.1714 153.457L58.6662 155.377L58.585 157.726Z" fill="#141414"/>
<path d="M30.8751 9.89295L29.7969 8.88856C30.1514 8.21649 30.3951 7.66997 30.5945 7.68474L31.5915 7.77336L31.8869 8.85901C31.9312 9.02149 31.6284 9.25043 30.8751 9.89295Z" fill="#A98B72"/>
<path d="M33.194 12.5074L32.5367 11.9683C32.293 11.7689 31.3329 11.3036 31.0079 11.3036H28.2679C28.1202 11.2741 28.7037 10.8309 28.8145 10.7423L32.1674 10.7792C32.6548 10.7792 33.3638 12.1381 33.194 12.5V12.5074Z" fill="#391E12"/>
<path d="M48.1641 180.805L47.6028 180.17L47.6102 176.403L48.1715 177.038L48.1641 180.805Z" fill="#131313"/>
<path d="M49.8037 162.533L49.8553 159.291C49.9218 159.158 50.2763 158.457 50.3502 158.627V161.92C50.2911 162.053 49.8849 162.703 49.7963 162.541L49.8037 162.533Z" fill="#141414"/>
<path d="M48.7254 186.957C48.6589 187.134 48.2454 186.455 48.1567 186.3V183.043C48.2232 182.873 48.6294 183.537 48.718 183.67V186.957H48.7254Z" fill="#131313"/>
<path d="M26.1041 15.3286L25.4468 15.4098L24.4276 13.0761C24.3537 13.0687 25.4689 13.2164 25.6609 13.2386L26.0967 15.3286H26.1041Z" fill="#B58D6F"/>
<path d="M49.2719 190.79C49.198 190.93 48.7918 190.332 48.7106 190.206L48.7253 187.4C48.814 187.26 49.198 187.902 49.2866 188.042V190.79H49.2719Z" fill="#131313"/>
<path d="M50.3575 155.931L50.3796 153.198C50.3796 153.036 50.7858 152.327 50.8745 152.497L50.9114 155.325C50.8375 155.451 50.4461 156.064 50.3501 155.931H50.3575Z" fill="#141414"/>
<path d="M44.8111 107.712L45.7786 105.821C45.9041 105.578 46.4876 105.142 46.6574 104.928L44.8037 107.712H44.8111Z" fill="#131313"/>
<path d="M49.8258 194.113L49.2645 193.604V191.898L49.8406 192.422L49.8258 194.113Z" fill="#131313"/>
<path d="M119.558 190.295L120.755 188.523L122.084 187.511C121.885 187.961 121.287 188.907 120.925 189.246L119.558 190.302V190.295Z" fill="#131313"/>
<path d="M50.387 198.005C50.2984 198.094 49.8996 197.547 49.8184 197.429V195.76C49.9144 195.672 50.2984 196.225 50.3944 196.344V198.005H50.387Z" fill="#131313"/>
<path d="M55.8228 71.1619L55.2615 70.0984L55.9557 70.4677L55.8228 71.1619Z" fill="#F89462"/>
<path d="M51.4506 205.228L50.941 204.711V204.076C51.17 204.12 51.2955 204.15 51.3029 204.231L51.4506 205.228Z" fill="#131313"/>
<path d="M50.9114 201.344L50.3723 200.834V200.206C50.6308 200.25 50.8007 200.28 50.8081 200.347L50.9114 201.351V201.344Z" fill="#131313"/>
<path d="M99.6179 173.161L98.4658 172.415L98.03 170.835L98.7686 171.75L99.6179 173.161Z" fill="#131313"/>
<path d="M61.9968 167.615C61.9451 167.74 61.4355 167.149 61.3912 166.994L60.8816 165.259C60.9407 165.118 61.5167 165.694 61.5537 165.842L61.9968 167.615Z" fill="#141414"/>
<path d="M60.867 164.845L60.3795 164.284L60.2614 163.545L60.8005 163.789L60.867 164.845Z" fill="#141414"/>
<path d="M27.1306 10.1367L27.655 10.1515L27.4186 10.9417L27.1306 10.1367Z" fill="#391E12"/>
<path d="M95.2901 100.873L94.9947 102.262C93.3034 100.903 94.2635 97.3652 96.0139 95.9768L97.3432 94.9207L98.7981 95.1053L97.8602 95.9029L95.3049 98.4582L95.2901 100.881V100.873Z" fill="#471D0B"/>
<path d="M50.1877 95.0093L49.6855 94.8542C49.5378 94.8099 49.523 94.2338 49.5525 94.0713L50.4388 89.3225L50.7859 88.8868C50.8893 88.7613 51.362 89.3964 51.3472 89.5515L50.8081 93.7833C50.7711 94.0639 50.4462 95.0683 50.1951 95.0093H50.1877Z" fill="#643F25"/>
<path d="M49.7963 61.7899L49.0504 60.7855L48.7328 57.824L48.2527 54.4415L48.142 47.7725L48.6072 44.4712C48.8436 42.7578 49.7594 41.362 50.6234 39.9957L50.7268 41.4802L49.6855 44.6337C49.4196 45.4461 49.2498 47.2998 49.2572 48.4446L49.2867 55.4828L49.7667 57.4621L49.8037 61.7751L49.7963 61.7899Z" fill="#090706"/>
<path d="M80.7927 71.93C80.1723 72.8827 79.5003 73.3923 78.7765 73.4588C77.7425 73.769 77.6613 73.3406 78.6509 72.8163L79.1532 72.1885C78.7248 71.9374 78.7913 71.7971 79.3082 71.7675C79.2196 71.1102 78.6731 70.6376 78.0527 70.5416C78.3408 72.1072 77.0409 72.1811 76.487 70.7262C75.9774 70.6523 75.586 70.7114 75.1577 71.0142C75.0764 72.026 74.109 72.7128 72.2626 73.0747C71.4207 74.1825 70.5344 74.6774 69.6113 74.5592C70.7855 75.7039 68.8358 75.0614 67.92 74.5001L64.5006 71.1989L65.505 69.4633L67.5655 69.094L69.7885 68.4072L79.9582 65.2906C80.4087 65.1503 81.642 64.8401 81.8414 65.1503C82.0778 65.5121 82.5061 66.8046 82.3953 67.2108L81.6937 69.7366L80.8075 71.93H80.7927Z" fill="#140B09"/>
<path d="M86.7452 63.5329L82.1515 63.2744C81.4425 63.2375 80.2978 60.4237 81.2136 59.375L83.5621 56.6941L86.3021 56.9009C86.8338 56.9378 87.661 58.1121 87.8752 58.6069L88.8279 60.8077L86.7526 63.5329H86.7452Z" fill="#FB9A65"/>
<path d="M78.5254 54.7886C78.3703 54.7886 73.1636 57.44 74.8918 55.4681C75.5417 54.7295 77.1886 53.1786 78.1709 53.1195L82.026 52.8832L84.2786 52.5878C84.2712 52.5435 84.4927 53.5109 84.5666 53.7842C83.8576 54.3455 82.5799 54.8182 81.8931 54.8108L78.518 54.7886H78.5254Z" fill="#34210F"/>
<path d="M62.0263 59.4635C61.1844 59.5743 59.375 60.6378 58.6291 61.1548C57.6468 61.8342 57.1815 61.4132 55.8965 60.5492L58.3484 59.0573C58.9983 58.6585 60.5345 57.8314 61.3986 57.8314L65.5639 57.8092C65.2611 58.3926 64.8254 59.109 64.53 59.1533L62.0263 59.4709V59.4635Z" fill="#2A170D"/>
<path d="M67.9125 74.4926L69.4561 74.7659L69.6038 74.5517L70.4014 73.8132C71.9449 74.2489 73.518 74.404 75.1354 74.2711C76.5312 73.1928 77.7424 72.927 78.7764 73.4587L79.8916 72.5208L80.7926 71.9299C80.2904 73.1633 78.7616 74.9062 77.4692 75.4158L75.8075 76.0657C75.2388 76.2873 73.6583 76.5236 73.1266 76.3981L69.0425 75.4232L67.9052 74.4926H67.9125Z" fill="#693122"/>
<path d="M70.7928 64.2935C71.0365 64.2344 70.3053 64.4117 69.6185 64.5889C69.5373 64.5224 69.0794 63.5919 69.1089 63.3556L69.3822 61.0883L69.9361 61.9966L70.7854 64.3009L70.7928 64.2935Z" fill="#905521"/>
<path d="M84.3007 90.4377L81.9521 91.0285L78.9389 91.7818C78.8798 91.4938 78.7912 91.0802 78.806 91.1614L79.6774 90.4894L81.0142 90.0684L81.4351 90.0315C81.7084 89.6622 82.122 89.5293 82.6833 89.6253L83.1116 89.5588L84.8619 89.3003C84.8767 89.256 84.345 90.3121 84.3007 90.4377Z" fill="#5C290A"/>
<path d="M67.6836 91.0137L65.3203 90.5041L64.1534 90.0832L63.7103 88.9606L64.9141 89.1157L66.6645 90.3195L67.6836 91.0137Z" fill="#662E0E"/>
<path d="M81.0142 90.0684L79.6775 90.4893C79.803 90.3933 80.1132 90.1127 80.2831 90.1053L81.0142 90.0684Z" fill="#DB8D53"/>
<path d="M82.6833 89.6253L81.4352 90.0315L81.7454 89.3816L82.6833 89.6253Z" fill="#DB8D53"/>
<path d="M78.0453 70.5341C78.5844 70.379 79.1974 71.2283 79.3008 71.7601L79.1457 72.181L78.6435 72.8088L78.769 73.4513L77.7203 74.2194L75.3939 75.3198C74.3452 75.4232 72.6614 75.5118 71.8637 75.2607L69.5964 74.5444C70.7412 71.9373 72.7426 71.5164 75.1502 70.9994L76.4796 70.7114L78.0453 70.5267V70.5341Z" fill="#B45455"/>
<path d="M77.5874 68.9832C76.6347 69.5519 74.36 70.3274 73.1267 70.512L68.7693 71.1693C68.5477 71.2062 67.8461 70.3643 68.0603 70.2978L69.1238 69.9359L72.5063 68.9094L78.3038 67.1591L79.3008 67.9641L77.58 68.9906L77.5874 68.9832Z" fill="#D7D7D5"/>
<path d="M79.3007 71.7675L78.636 71.1472L78.0452 70.5416L78.4587 70.0468L79.5444 71.3835C79.6404 71.5017 79.4484 71.6567 79.3007 71.7675Z" fill="#693122"/>
<path d="M76.4795 70.7188L75.1501 71.0068L75.7262 70.5046L76.4795 70.7188Z" fill="#693122"/>
</svg>
