<svg width="29" height="26" viewBox="0 0 29 26" fill="none" xmlns="http://www.w3.org/2000/svg">
<path fill-rule="evenodd" clip-rule="evenodd" d="M12.9269 22.2044C12.9269 22.3887 12.8553 22.5655 12.7279 22.6959C12.6005 22.8263 12.4276 22.8996 12.2473 22.8997H5.72589C5.54557 22.8997 5.37264 22.8264 5.24514 22.696C5.11763 22.5656 5.046 22.3888 5.046 22.2044C5.046 22.02 5.11763 21.8431 5.24514 21.7127C5.37264 21.5823 5.54557 21.509 5.72589 21.509H12.2473C12.4276 21.5091 12.6005 21.5824 12.7279 21.7128C12.8553 21.8432 12.9269 22.02 12.9269 22.2044ZM1.35946 5.86448H27.6405V9.9801L23.5747 10.9898V10.796C23.5747 10.6117 23.5031 10.4349 23.3757 10.3046C23.2483 10.1743 23.0754 10.101 22.8952 10.101C22.7149 10.101 22.5421 10.1743 22.4146 10.3046C22.2872 10.4349 22.2156 10.6117 22.2156 10.796V11.3282L14.5 13.2462L6.78439 11.3286V10.7964C6.78636 10.7038 6.77024 10.6118 6.73696 10.5257C6.70369 10.4396 6.65394 10.3611 6.59062 10.2949C6.52731 10.2288 6.45171 10.1762 6.36826 10.1403C6.28481 10.1044 6.19519 10.0859 6.10466 10.0859C6.01413 10.0859 5.92452 10.1044 5.84107 10.1403C5.75762 10.1762 5.68202 10.2288 5.61871 10.2949C5.55539 10.3611 5.50564 10.4396 5.47236 10.5257C5.43909 10.6118 5.42297 10.7038 5.42494 10.7964V10.9898L1.35946 9.9801V5.86448ZM10.2206 1.56861C10.2212 1.52143 10.2398 1.47637 10.2725 1.4431C10.3052 1.40982 10.3494 1.391 10.3955 1.39066H18.6054C18.6515 1.39108 18.6957 1.40994 18.7284 1.44319C18.761 1.47644 18.7797 1.52146 18.7804 1.56861V4.47515H10.2196V1.56861H10.2206ZM26.6964 23.9163V11.6456L23.5747 12.422V12.9928C23.5747 13.1771 23.5031 13.3539 23.3757 13.4842C23.2483 13.6145 23.0754 13.6877 22.8952 13.6877C22.7149 13.6877 22.5421 13.6145 22.4146 13.4842C22.2872 13.3539 22.2156 13.1771 22.2156 12.9928V12.7591L14.7794 14.6078C14.5961 14.6558 14.4039 14.6558 14.2206 14.6078L6.78439 12.7591V12.9928C6.78636 13.0853 6.77024 13.1773 6.73696 13.2635C6.70369 13.3496 6.65394 13.428 6.59062 13.4942C6.52731 13.5604 6.45171 13.6129 6.36826 13.6488C6.28481 13.6847 6.19519 13.7032 6.10466 13.7032C6.01413 13.7032 5.92452 13.6847 5.84107 13.6488C5.75762 13.6129 5.68202 13.5604 5.61871 13.4942C5.55539 13.428 5.50564 13.3496 5.47236 13.2635C5.43909 13.1773 5.42297 13.0853 5.42494 12.9928V12.422L2.30357 11.6456V23.9163C2.30357 24.0999 2.37486 24.2759 2.50176 24.4057C2.62866 24.5354 2.80077 24.6084 2.98024 24.6084H26.0191C26.1986 24.6084 26.3707 24.5354 26.4976 24.4057C26.6245 24.2759 26.6958 24.0999 26.6958 23.9163H26.6964ZM0.902227 11.2966L0.943471 11.3072V23.9163C0.943983 24.4687 1.15876 24.9984 1.54067 25.389C1.92257 25.7797 2.44042 25.9994 2.98056 26H26.0194C26.5596 25.9994 27.0774 25.7796 27.4592 25.389C27.8411 24.9983 28.0558 24.4687 28.0562 23.9163V11.3072L28.0978 11.2966C28.3554 11.2332 28.5846 11.0827 28.7483 10.8696C28.912 10.6565 29.0007 10.3931 29 10.1221V5.68423C28.9997 5.36358 28.8751 5.05615 28.6533 4.82945C28.4316 4.60275 28.131 4.47532 27.8174 4.47515H20.1389V1.56861C20.1384 1.15263 19.9765 0.753856 19.6889 0.45978C19.4012 0.165703 19.0112 0.000348789 18.6045 0H10.3946C9.98797 0.000523377 9.59818 0.165966 9.3107 0.460033C9.02323 0.7541 8.86154 1.15278 8.86111 1.56861V4.47515H1.18224C0.868742 4.47532 0.568136 4.60276 0.346461 4.82947C0.124787 5.05618 0.000175526 5.36361 4.77738e-06 5.68423V10.1221C-0.000749785 10.3932 0.0879002 10.6565 0.251622 10.8697C0.415343 11.0828 0.644565 11.2332 0.902227 11.2966Z" fill="black"/>
</svg>
